<svg id="Layer_1" data-name="Layer 1" xmlns="http://www.w3.org/2000/svg" viewBox="0 0 900 900"><defs><style>.cls-1,.cls-2,.cls-3,.cls-4{fill:none;stroke:#565151;stroke-miterlimit:10;}.cls-1{stroke-width:56px;}.cls-2{stroke-width:71px;}.cls-3{stroke-width:42px;}.cls-4{stroke-width:11px;}</style></defs><title>new navigation icon</title><path class="cls-1" d="M645.18,779A99.54,99.54,0,0,1,447.8,753"/><path class="cls-2" d="M672.59,786.35c-39.87-2.31-79.47-7.94-119.05-13.2-42.28-5.68-86.14-11.6-127-23.76-41.36-12.3-83.39-23.06-125-34.57-36.82-10.27-73.25-22.06-108.69-36.45-23.22-9.42-45.77-20.71-67.9-32.52C110.18,638,99.39,625.7,97.18,608c-1.69-13.59,2.72-25.63,9.92-36.85,11.75-18.32,28.63-31.16,46.21-43.25,24.79-17,53.67-32.13,72.24-56.4,29.16-38.1,24.79-85.16,28.16-130.42,2.53-34,7-67.6,20.17-99.53,13.78-33.42,35.71-60.24,65.07-80.88C376.86,134,419.65,120.31,465.33,115c4.73-.55,9.54-1.27,14.25-1,7.48.51,11-2.34,13.14-9.74a72.3,72.3,0,0,1,33.36-43.32c19.3-11.38,40.2-14.12,62.46-8.6,17.3,4.29,31.62,12.46,43.55,25.51,16.84,18.43,22.57,40.59,19.33,64.45-1.55,11.47,2,16.51,11.1,22.17,35.8,22.22,66.89,49.78,87.44,87.15,31.23,56.76,34.88,116.4,14,177.26-7.55,22.06-18.82,42.82-27.3,64.6a563.21,563.21,0,0,0-18.28,54.8c-8.7,31.55-.39,60.21,16.31,87.47,13.24,21.61,26.07,43.57,33.85,68,5.11,16,6.4,32.24,2.21,48.71-9,35.31-55.07,35.69-84.4,34.59C681.79,786.84,677.19,786.61,672.59,786.35Z"/><path class="cls-3" d="M634,157.71c9.87-29.37-5.82-63.14-32.51-77.71-37.19-20.71-83.68-3.67-97.06,36.69-1.8,5.42-.33,6.94,5.17,7.24,21.84,1.18,42.72,2.53,63.93,8.32A248,248,0,0,1,634,157.74Z"/><path class="cls-4" d="M417.43,152.19s174-34.25,286.28,80.88c1.9-3.28-.71-45.37-.71-45.37s-57.33-30.18-58.59-31.42S568,140.79,566.3,139s-48.8-13.18-48.8-13.18l-20.72-1.25-65.11-4.32-23.51,4.42-23.36,10.7,7.81,13.27Z"/></svg>