<svg id="Layer_1" data-name="Layer 1" xmlns="http://www.w3.org/2000/svg" viewBox="0 0 822 814"><defs><style>.cls-1{fill:none;stroke:#565151;stroke-miterlimit:10;stroke-width:53px;}</style></defs><title>new navigation icon</title><path class="cls-1" d="M410.52,781.43c-47.95.78-96.69-3.16-144.55-7.28-40.66-3.56-80.71-11.51-117.93-29.56C125.47,733.65,105.51,719.1,96,695c-14.44-36.44-8.82-70.95,15-101.85,18.77-24.32,44.42-40.59,70.54-55.83,35-20.43,70.41-40.05,108.63-54.08A85.7,85.7,0,0,0,310,472.72c38.78-27.49-17.6-75.69-32.9-99.59-26.41-41.27-39.92-90.64-41.82-139.39a272.71,272.71,0,0,1,6.06-70.2C257.65,90.79,312,43.11,386.09,34.32c39.46-4.68,77.79-1.06,113.43,17.74,46.47,24.51,73.06,64.26,84,114.7C593.81,214.65,589.2,264.93,573,311a301.48,301.48,0,0,1-32.58,65.5c-13,19.72-29.6,37.56-36.95,60.46-4.13,12.89-5.05,28.46,7.89,36.61a274.22,274.22,0,0,0,31.95,17.8c31.44,14.38,63.6,27.24,94.68,42.35a222,222,0,0,1,67.23,49.79c28.38,31,33.5,67.54,25,106.88-3.9,18.07-15.91,31.26-30.64,41.88-24,17.31-51.62,25.94-80,32.21C555.4,778.6,489.76,779.6,424.41,781.12l-9.36.22Zm.35-14.38c29.47-.68,59.16-3.61,88.45-4.67,40-1.45,80.16-4.42,119.24-13.53,23.94-5.58,47.33-12.76,68.08-26.52,13.69-9.07,25.41-20.27,28.8-37,6.74-33.18,2.91-64.35-21-90.52a173.21,173.21,0,0,0-18.35-17.59c-34-27.69-73.58-45.31-113.78-61.78-16.95-7-33.93-14-50.2-22.4-19.22-9.91-29.29-31.35-26.54-52.49,2.85-21.91,15.91-35.94,28.75-52.8,14.44-19,27.06-39,36.36-61,21.53-51,29.88-103.56,17.32-158.14-11.58-50.31-39.29-88.2-88-108.48-30.38-12.65-62.2-14.79-94.43-10.1-63.34,9.23-106.26,44-125.66,105.16-15.52,48.95-12,98.32,3.68,146.68,7.12,22,17.36,42.79,29.35,62.51,10.7,17.58,25.19,32.65,34.67,51,14.09,27.3,12.24,58.88-16.5,75.13a94,94,0,0,1-14,6.72c-34.24,12.43-66.16,29.58-97.64,47.61C173,560,147.05,575.77,126.36,598.73,108.12,619,101.8,643.1,104.68,669.48c3,27.59,20.56,45.32,43.8,57.86,36.14,19.5,77.14,27.74,117.74,31.11q38.13,3.18,76.33,5.41c13.32.78,26.58,2.47,39.92,3C391.9,767.26,401.37,767.27,410.87,767.05Z"/><path class="cls-1" d="M410.58,732.17c-41.64.68-84-2.75-125.53-6.32-35.31-3.09-70.1-10-102.41-25.67-19.6-9.5-36.95-22.14-45.23-43-12.55-31.65-7.66-61.62,13-88.45,16.3-21.13,38.57-35.25,61.26-48.49,30.39-17.74,61.15-34.78,94.34-47a74.66,74.66,0,0,0,17.26-9.17C357,440.2,308,398.34,294.74,377.58c-22.94-35.84-34.68-78.71-36.33-121a236.93,236.93,0,0,1,5.26-61C277.82,132.39,325,91,389.37,83.35c34.26-4.06,67.55-.92,98.51,15.4,40.35,21.29,63.44,55.81,72.9,99.61,9,41.59,5,85.26-9.12,125.25a261.63,261.63,0,0,1-28.29,56.88c-11.29,17.13-25.71,32.62-32.09,52.51-3.59,11.2-4.39,24.71,6.85,31.8a238.9,238.9,0,0,0,27.74,15.45c27.31,12.49,55.24,23.66,82.23,36.78a193,193,0,0,1,58.39,43.24c24.64,26.93,29.09,58.65,21.72,92.82-3.38,15.69-13.81,27.15-26.61,36.38-20.85,15-44.82,22.52-69.5,28-55.69,12.28-112.7,13.15-169.46,14.48l-8.13.18Zm.3-12.49c25.6-.59,51.38-3.14,76.82-4.06,34.75-1.25,69.61-3.83,103.56-11.74,20.78-4.85,41.1-11.08,59.12-23,11.89-7.88,22.06-17.61,25-32.11,5.85-28.82,2.52-55.89-18.26-78.61a150.26,150.26,0,0,0-15.93-15.28c-29.56-24.05-63.9-39.35-98.81-53.65-14.72-6-29.47-12.18-43.6-19.46-16.69-8.6-25.43-27.22-23.05-45.58,2.48-19,13.82-31.21,25-45.85,12.54-16.47,23.5-33.84,31.58-52.95,18.69-44.27,25.94-89.93,15-137.33-10.06-43.7-34.12-76.61-76.44-94.22-26.37-11-54-12.84-82-8.76-55,8-92.28,38.19-109.13,91.32-13.48,42.51-10.41,85.39,3.2,127.39,6.18,19.09,15.07,37.15,25.49,54.28,9.29,15.26,21.87,28.35,30.1,44.29,12.24,23.71,10.63,51.14-14.32,65.25a83.12,83.12,0,0,1-12.15,5.83c-29.73,10.8-57.45,25.69-84.79,41.34-22.95,13.14-45.52,26.82-63.48,46.75C148,591.07,142.48,612,145,635c2.62,24,17.86,39.36,38,50.24,31.38,16.94,67,24.09,102.24,27q33.12,2.74,66.3,4.69c11.57.68,23.08,2.15,34.66,2.62C394.41,719.86,402.64,719.87,410.88,719.68Z"/><path class="cls-1" d="M410.64,688.93c-36.1.58-72.81-2.38-108.84-5.48-30.61-2.68-60.78-8.67-88.8-22.26C196,653,181,642,173.79,623.88c-10.88-27.44-6.64-53.43,11.31-76.69,14.13-18.32,33.44-30.57,53.11-42,26.35-15.39,53-30.16,81.8-40.72a64.71,64.71,0,0,0,15-7.95c29.2-20.7-13.26-57-24.77-75-19.89-31.08-30.06-68.25-31.5-104.95a205.37,205.37,0,0,1,4.57-52.86c12.26-54.78,53.17-90.69,109-97.3,29.71-3.52,58.57-.8,85.41,13.35,35,18.46,55,48.39,63.21,86.37,7.79,36.06,4.32,73.92-7.91,108.59A227.18,227.18,0,0,1,508.43,384c-9.79,14.84-22.29,28.28-27.83,45.52-3.11,9.71-3.8,21.43,5.94,27.57a207.3,207.3,0,0,0,24.06,13.4c23.67,10.83,47.89,20.51,71.29,31.89a167.21,167.21,0,0,1,50.62,37.49c21.37,23.35,25.23,50.85,18.84,80.48-2.94,13.6-12,23.53-23.07,31.53-18.09,13-38.87,19.53-60.27,24.25-48.28,10.65-97.7,11.4-146.92,12.55l-7,.16Zm.26-10.83c22.19-.51,44.55-2.72,66.6-3.52,30.13-1.09,60.35-3.32,89.78-10.18,18-4.2,35.64-9.61,51.26-20,10.31-6.83,19.14-15.27,21.69-27.84,5.07-25,2.19-48.45-15.83-68.16a130.79,130.79,0,0,0-13.81-13.24c-25.64-20.85-55.41-34.12-85.67-46.52-12.77-5.23-25.56-10.56-37.8-16.87-14.47-7.45-22.06-23.6-20-39.52,2.15-16.49,12-27,21.65-39.75,10.87-14.28,20.38-29.34,27.38-45.91,16.21-38.38,22.49-78,13-119.07-8.72-37.88-29.59-66.41-66.27-81.69-22.87-9.51-46.83-11.13-71.1-7.59-47.69,6.94-80,33.11-94.62,79.17-11.68,36.86-9,74,2.78,110.45A223.07,223.07,0,0,0,322.09,375c8.05,13.24,19,24.58,26.1,38.41,10.6,20.55,9.21,44.33-12.42,56.57A70.78,70.78,0,0,1,325.23,475c-25.77,9.37-49.81,22.28-73.51,35.85-19.9,11.39-39.46,23.25-55,40.53-13.73,15.23-18.49,33.41-16.32,53.27,2.27,20.78,15.48,34.13,33,43.57,27.22,14.68,58.09,20.89,88.66,23.43q28.71,2.39,57.47,4.07c10,.59,20,1.86,30.06,2.27C396.62,678.26,403.75,678.27,410.9,678.1Z"/><path class="cls-1" d="M410.68,651.84c-31.35.51-63.22-2.07-94.52-4.76-26.58-2.33-52.77-7.53-77.11-19.33-14.75-7.16-27.81-16.67-34.05-32.41-9.45-23.82-5.77-46.39,9.82-66.59,12.27-15.91,29-26.55,46.12-36.52,22.88-13.35,46-26.18,71-35.36a55.84,55.84,0,0,0,13-6.9c25.36-18-11.51-49.49-21.51-65.12-17.27-27-26.11-59.27-27.35-91.14a178.35,178.35,0,0,1,4-45.91c10.65-47.57,46.18-78.75,94.64-84.49,25.8-3.06,50.87-.7,74.18,11.59,30.38,16,47.77,42,54.89,75,6.76,31.31,3.75,64.19-6.87,94.3A196.76,196.76,0,0,1,495.61,387c-8.5,12.89-19.36,24.56-24.16,39.54-2.71,8.43-3.31,18.61,5.15,23.94a181.59,181.59,0,0,0,20.89,11.64c20.57,9.4,41.6,17.81,61.92,27.69a145,145,0,0,1,44,32.56c18.56,20.27,21.91,44.16,16.36,69.89-2.55,11.81-10.4,20.44-20,27.38-15.7,11.32-33.75,17-52.33,21.06-41.93,9.25-84.86,9.9-127.59,10.9l-6.12.14Zm.23-9.4c19.28-.45,38.69-2.37,57.84-3.06,26.17-1,52.42-2.89,78-8.85,15.66-3.64,30.95-8.34,44.52-17.33,9-5.94,16.61-13.26,18.83-24.18,4.41-21.7,1.9-42.08-13.74-59.19a111.38,111.38,0,0,0-12-11.5c-22.26-18.11-48.12-29.63-74.4-40.4-11.09-4.55-22.19-9.17-32.83-14.65C464.54,456.8,458,442.78,459.75,429c1.86-14.33,10.4-23.5,18.8-34.53C488,382,496.25,369,502.32,354.56c14.08-33.33,19.54-67.71,11.33-103.4-7.57-32.9-25.69-57.68-57.55-70.94-19.86-8.27-40.67-9.67-61.75-6.6-41.41,6-69.48,28.76-82.17,68.76-10.15,32-7.83,64.29,2.41,95.92a194.4,194.4,0,0,0,19.19,40.87c7,11.49,16.47,21.35,22.67,33.35,9.21,17.85,8,38.5-10.78,49.13a62,62,0,0,1-9.15,4.39c-22.39,8.13-43.26,19.34-63.85,31.13-17.28,9.89-34.27,20.19-47.79,35.2-11.93,13.23-16.07,29-14.18,46.26,2,18,13.44,29.64,28.64,37.84,23.63,12.75,50.44,18.14,77,20.35q24.93,2.07,49.91,3.53c8.71.51,17.38,1.61,26.1,2C398.51,642.57,404.7,642.58,410.91,642.44Z"/><path class="cls-1" d="M410.73,613.14c-26.39.43-53.23-1.74-79.58-4-22.38-2-44.43-6.34-64.92-16.28-12.43-6-23.42-14-28.67-27.28-8-20.06-4.86-39.07,8.26-56.08,10.34-13.39,24.46-22.34,38.84-30.74,19.26-11.24,38.76-22,59.81-29.77a47.28,47.28,0,0,0,10.94-5.81c21.34-15.13-9.69-41.67-18.12-54.83-14.54-22.72-22-49.9-23-76.74A150.26,150.26,0,0,1,317.6,273c9-40,38.88-66.3,79.68-71.14,21.73-2.57,42.83-.59,62.46,9.77C485.32,225.08,500,247,506,274.73c5.7,26.37,3.16,54-5.78,79.41a166,166,0,0,1-17.93,36.06c-7.16,10.85-16.3,20.68-20.35,33.28-2.27,7.1-2.78,15.67,4.35,20.16a152,152,0,0,0,17.58,9.8c17.32,7.91,35,15,52.13,23.32a122.14,122.14,0,0,1,37,27.41c15.62,17.07,18.44,37.18,13.77,58.84-2.14,10-8.75,17.21-16.87,23.06-13.22,9.53-28.42,14.28-44.06,17.73-35.31,7.78-71.45,8.33-107.43,9.18l-5.15.11Zm.2-7.91c16.23-.38,32.57-2,48.7-2.58,22-.79,44.12-2.43,65.64-7.44,13.18-3.08,26.06-7,37.48-14.6,7.54-5,14-11.16,15.86-20.36,3.71-18.27,1.6-35.43-11.57-49.84a96.21,96.21,0,0,0-10.1-9.68c-18.75-15.24-40.52-24.94-62.65-34-9.33-3.83-18.68-7.72-27.63-12.34-10.58-5.45-16.13-17.25-14.62-28.89,1.57-12.06,8.76-19.79,15.83-29.07a155.35,155.35,0,0,0,20-33.57c11.85-28.06,16.45-57,9.54-87.06-6.38-27.7-21.64-48.56-48.46-59.73-16.72-7-34.24-8.14-52-5.56-34.87,5.08-58.5,24.22-69.18,57.9-8.54,27-6.6,54.13,2,80.76A163.19,163.19,0,0,0,346,383.57c5.89,9.68,13.86,18,19.08,28.08,7.76,15,6.74,32.42-9.08,41.36a51.86,51.86,0,0,1-7.7,3.7c-18.85,6.84-36.42,16.29-53.76,26.21-14.54,8.33-28.85,17-40.24,29.64-10,11.13-13.52,24.43-11.93,39,1.66,15.19,11.32,25,24.11,31.85,19.9,10.74,42.47,15.27,64.82,17.13q21,1.75,42,3c7.33.43,14.63,1.36,22,1.66C400.48,605.34,405.7,605.35,410.93,605.23Z"/><path class="cls-1" d="M410.79,567c-20.48.33-41.3-1.35-61.75-3.11-17.37-1.52-34.48-4.92-50.38-12.63-9.64-4.67-18.17-10.89-22.25-21.17-6.17-15.57-3.77-30.31,6.42-43.51,8-10.39,19-17.34,30.13-23.85,15-8.73,30.08-17.11,46.41-23.11a36.37,36.37,0,0,0,8.49-4.5c16.57-11.75-7.52-32.34-14.05-42.55-11.29-17.63-17.06-38.72-17.87-59.55a116.69,116.69,0,0,1,2.59-30c7-31.08,30.17-51.45,61.83-55.2,16.85-2,33.23-.46,48.46,7.58,19.85,10.47,31.21,27.45,35.86,49,4.42,20.46,2.45,41.94-4.49,61.61a128.82,128.82,0,0,1-13.91,28c-5.55,8.42-12.65,16.05-15.79,25.83-1.77,5.51-2.16,12.16,3.37,15.64a116,116,0,0,0,13.65,7.6c13.43,6.15,27.17,11.64,40.45,18.1a94.82,94.82,0,0,1,28.72,21.27c12.12,13.24,14.31,28.85,10.69,45.66-1.67,7.72-6.8,13.35-13.09,17.89-10.26,7.4-22,11.08-34.19,13.76-27.4,6-55.44,6.47-83.36,7.12l-4,.09Zm.15-6.14c12.6-.3,25.28-1.55,37.79-2,17.1-.62,34.24-1.89,50.94-5.78,10.23-2.38,20.22-5.45,29.09-11.33,5.85-3.87,10.85-8.66,12.3-15.79,2.88-14.18,1.24-27.49-9-38.67a74.23,74.23,0,0,0-7.84-7.52c-14.54-11.83-31.43-19.36-48.61-26.39-7.24-3-14.49-6-21.44-9.57a21.94,21.94,0,0,1-11.34-22.43c1.22-9.35,6.8-15.35,12.28-22.55a120.46,120.46,0,0,0,15.53-26.05c9.2-21.78,12.77-44.24,7.4-67.55-4.94-21.5-16.78-37.69-37.6-46.35-13-5.4-26.57-6.32-40.34-4.31-27.06,3.94-45.39,18.78-53.68,44.92-6.63,20.91-5.12,42,1.57,62.67a127.54,127.54,0,0,0,12.54,26.7c4.57,7.51,10.76,13.94,14.81,21.79,6,11.66,5.23,25.15-7,32.09a40,40,0,0,1-6,2.87c-14.62,5.31-28.26,12.64-41.71,20.34-11.29,6.46-22.39,13.19-31.23,23-7.79,8.64-10.49,18.95-9.26,30.22,1.29,11.79,8.78,19.36,18.71,24.72,15.44,8.33,33,11.85,50.3,13.29q16.29,1.36,32.61,2.31c5.69.34,11.35,1.06,17.05,1.29C402.84,560.9,406.89,560.91,410.94,560.82Z"/><path class="cls-1" d="M410.85,520.39c-14.52.24-29.28-.95-43.77-2.2-12.31-1.08-24.45-3.49-35.72-9-6.83-3.32-12.88-7.72-15.77-15-4.37-11-2.67-21.49,4.55-30.85,5.69-7.36,13.45-12.29,21.36-16.91,10.6-6.18,21.33-12.12,32.9-16.37a26,26,0,0,0,6-3.2c11.74-8.32-5.33-22.92-10-30.16-8-12.5-12.09-27.45-12.67-42.21a83,83,0,0,1,1.83-21.26c4.94-22,21.39-36.47,43.84-39.13,12-1.42,23.55-.33,34.35,5.37,14.07,7.42,22.12,19.46,25.42,34.73a80.74,80.74,0,0,1-3.18,43.68,91.35,91.35,0,0,1-9.86,19.84c-3.94,6-9,11.37-11.19,18.31-1.26,3.9-1.53,8.62,2.38,11.08a82.54,82.54,0,0,0,9.68,5.39c9.52,4.36,19.26,8.25,28.67,12.83a67.17,67.17,0,0,1,20.36,15.08c8.6,9.39,10.15,20.45,7.58,32.37-1.18,5.47-4.82,9.46-9.28,12.68-7.27,5.24-15.63,7.86-24.24,9.75-19.42,4.29-39.3,4.59-59.09,5l-2.83.07ZM411,516c8.93-.21,17.92-1.1,26.79-1.42,12.12-.43,24.27-1.33,36.11-4.09,7.25-1.69,14.33-3.87,20.62-8,4.14-2.75,7.69-6.14,8.72-11.2,2-10.05.88-19.49-6.37-27.41a51.69,51.69,0,0,0-5.55-5.33C481,450.17,469,444.84,456.82,439.85c-5.14-2.11-10.28-4.25-15.21-6.79a15.52,15.52,0,0,1-8-15.89c.86-6.63,4.82-10.88,8.7-16a84.8,84.8,0,0,0,11-18.47c6.52-15.43,9-31.36,5.25-47.89-3.51-15.23-11.9-26.71-26.65-32.85-9.2-3.83-18.84-4.48-28.6-3.06-19.18,2.8-32.18,13.32-38.06,31.85-4.7,14.82-3.62,29.78,1.12,44.42a90.08,90.08,0,0,0,8.89,18.93c3.24,5.32,7.63,9.89,10.5,15.45,4.26,8.26,3.7,17.83-5,22.75a28,28,0,0,1-4.24,2c-10.36,3.77-20,9-29.56,14.42-8,4.58-15.88,9.35-22.14,16.3-5.52,6.13-7.44,13.44-6.57,21.43.92,8.36,6.23,13.73,13.27,17.52,10.94,5.91,23.36,8.4,35.65,9.43q11.55,1,23.12,1.63c4,.24,8.05.75,12.09.91C405.22,516.1,408.08,516.11,411,516Z"/><path class="cls-1" d="M410.88,502.08c-12.18.2-24.56-.8-36.71-1.85-10.32-.9-20.49-2.92-29.94-7.51-5.73-2.77-10.8-6.47-13.23-12.58-3.67-9.25-2.24-18,3.82-25.86,4.76-6.18,11.28-10.31,17.91-14.18,8.88-5.19,17.88-10.17,27.58-13.73a21.83,21.83,0,0,0,5.05-2.68c9.85-7-4.47-19.22-8.36-25.29-6.7-10.48-10.13-23-10.62-35.4a69.25,69.25,0,0,1,1.54-17.82c4.14-18.47,17.93-30.58,36.75-32.81,10-1.19,19.76-.27,28.81,4.5,11.8,6.22,18.55,16.32,21.31,29.13a67.69,67.69,0,0,1-2.66,36.62,77,77,0,0,1-8.27,16.63c-3.3,5-7.52,9.54-9.39,15.35-1.05,3.28-1.28,7.23,2,9.3a69.85,69.85,0,0,0,8.11,4.52c8,3.65,16.15,6.92,24,10.75a56.43,56.43,0,0,1,17.07,12.65c7.21,7.87,8.51,17.15,6.36,27.14-1,4.58-4,7.93-7.78,10.63-6.1,4.4-13.11,6.59-20.33,8.18-16.28,3.59-32.95,3.84-49.55,4.23l-2.37.06Zm.09-3.65c7.48-.18,15-.92,22.46-1.19,10.16-.37,20.35-1.12,30.28-3.43,6.07-1.42,12-3.24,17.28-6.74,3.48-2.3,6.45-5.15,7.32-9.39,1.71-8.42.73-16.34-5.34-23a44.7,44.7,0,0,0-4.66-4.47c-8.64-7-18.69-11.5-28.89-15.69-4.31-1.76-8.62-3.56-12.75-5.69a13,13,0,0,1-6.74-13.32c.72-5.57,4-9.13,7.3-13.41a71.54,71.54,0,0,0,9.23-15.48c5.47-12.95,7.59-26.3,4.4-40.16-2.94-12.77-10-22.4-22.35-27.55-7.71-3.21-15.79-3.75-24-2.56-16.08,2.34-27,11.17-31.9,26.7-3.94,12.43-3.05,25,.93,37.25A75.59,75.59,0,0,0,381,396.19c2.72,4.47,6.4,8.29,8.81,12.95,3.57,6.94,3.1,15-4.19,19.08a23.65,23.65,0,0,1-3.55,1.71c-8.7,3.15-16.8,7.51-24.8,12.09-6.71,3.84-13.3,7.84-18.56,13.66-4.63,5.14-6.24,11.27-5.5,18,.76,7,5.22,11.51,11.12,14.69,9.18,5,19.59,7.05,29.9,7.9q9.67.81,19.38,1.38c3.38.2,6.75.62,10.13.76C406.15,498.48,408.55,498.48,411,498.43Z"/><path class="cls-1" d="M410.92,469c-7.94.1-16-.43-23.93-1a65.45,65.45,0,0,1-19.52-4c-3.74-1.49-7-3.47-8.62-6.74-2.39-5-1.46-9.66,2.48-13.86,3.11-3.31,7.36-5.52,11.68-7.59a125.26,125.26,0,0,1,18-7.36,15.66,15.66,0,0,0,3.29-1.43c6.42-3.74-2.91-10.3-5.44-13.55a33.47,33.47,0,0,1-6.93-19,30.57,30.57,0,0,1,1-9.55c2.69-9.89,11.69-16.38,24-17.57,6.53-.64,12.87-.15,18.77,2.41,7.7,3.33,12.1,8.74,13.9,15.6A30.19,30.19,0,0,1,437.81,405a38.52,38.52,0,0,1-5.39,8.91c-2.15,2.68-4.9,5.1-6.12,8.22-.68,1.75-.83,3.87,1.31,5a49.76,49.76,0,0,0,5.29,2.42c5.2,2,10.53,3.71,15.67,5.76a37.18,37.18,0,0,1,11.13,6.77c4.7,4.22,5.55,9.19,4.14,14.54-.64,2.46-2.63,4.25-5.07,5.7-4,2.35-8.55,3.53-13.25,4.38-10.62,1.92-21.48,2.06-32.3,2.27l-1.55,0Zm.06-2c4.88-.09,9.79-.49,14.64-.63a126.24,126.24,0,0,0,19.74-1.84A38.53,38.53,0,0,0,456.63,461c2.27-1.24,4.21-2.76,4.77-5,1.11-4.51.48-8.75-3.48-12.31a27.67,27.67,0,0,0-3-2.4c-5.63-3.76-12.18-6.16-18.83-8.4-2.81-.94-5.62-1.91-8.32-3.05a6.72,6.72,0,0,1-4.39-7.14c.47-3,2.64-4.88,4.76-7.18a37.84,37.84,0,0,0,6-8.29c3.56-6.93,4.95-14.09,2.87-21.51-1.92-6.84-6.51-12-14.57-14.76a35,35,0,0,0-15.63-1.37c-10.49,1.26-17.6,6-20.81,14.3-2.57,6.66-2,13.38.61,20a37.82,37.82,0,0,0,4.86,8.5c1.77,2.39,4.17,4.44,5.74,6.94,2.33,3.71,2,8-2.73,10.21a16.24,16.24,0,0,1-2.32.92A115.88,115.88,0,0,0,376,436.81c-4.37,2.06-8.68,4.2-12.1,7.33a10.5,10.5,0,0,0-3.59,9.62c.5,3.75,3.4,6.16,7.25,7.87,6,2.65,12.77,3.77,19.49,4.23q6.32.43,12.64.74c2.2.1,4.4.33,6.61.41C407.84,467.06,409.41,467.06,411,467Z"/></svg>