<svg id="Layer_1" data-name="Layer 1" xmlns="http://www.w3.org/2000/svg" viewBox="0 0 782.99 740.36"><defs><style>.cls-1{fill:#544d4c;}</style></defs><title>new navigation icon</title><path class="cls-1" d="M508.27,517.29C471,549.94,431.81,572,387.18,583.74c-66.85,17.61-132.24,12.81-194.78-16.44C103.7,525.82,48.24,456.43,26.62,360.93,1,247.61,51.45,124.55,148.77,60.57c55.17-36.27,116-52.69,181.53-47.36C468.1,24.42,570,123.83,594.56,248.69c15.71,79.93-.39,154.25-46.09,221.88-2.9,4.3-2.79,6.72,1,10.3,9.66,9.15,18.6,19.06,28.41,28,2.47,2.26,7.46,3.66,10.69,2.89,26.56-6.29,48.62,1.38,67.59,20.2,28.57,28.36,57.33,56.54,85.86,84.94,26.75,26.62,28,65.5,3.24,92.28-24.38,26.33-65.8,29.86-92.66,5.19-33.35-30.63-65.15-63-96.79-95.4-15.7-16.08-19.34-36.47-15-58.42.61-3,.56-7.47-1.2-9.49C529.63,539.66,519,528.77,508.27,517.29ZM542,307.54c.59-126.91-103-233.22-228.13-234C183.91,72.71,80.49,173,79.62,300.78,78.73,430.6,182,536.62,311.52,537.33,442.34,538.05,542.64,432.63,542,307.54ZM605.4,565.17c-3.14,2.55-7.56,4.41-7.8,6.71-.44,4.14.22,9.94,2.87,12.62,28.23,28.58,56.94,56.68,85.5,84.92,5,5,10.66,7.87,16.46,1.88s2.43-11.68-2.45-16.49q-42.24-41.62-84.64-83.09C612.77,569.21,609.25,567.67,605.4,565.17Z"/></svg>