<svg id="Layer_1" data-name="Layer 1" xmlns="http://www.w3.org/2000/svg" viewBox="0 0 900 900"><defs><style>.cls-1{fill:#544d4c;}.cls-2{fill:none;}</style></defs><title>new navigation icon</title><path class="cls-1" d="M75.81,868.24c0,.24,0,.44,0,.66l-.1-3.95Z"/><path class="cls-2" d="M489.6,522.34c18.08,4.48,34.56,12.36,49.9,22.5C584.93,570.78,614.12,607,614.12,607l-2,199.61h3.6c21.33-.14,42.65-.32,64-.43,26.58-.14,53.16-.28,79.73-.28,3.5,0,4.34-1.17,4.32-4.56-.13-22.71,0-45.43,0-68.15q.13-59.54.29-119.07l-1.39-197.93c-9.31-9-18.86-17.66-28.37-26.41q-52.49-48.31-105-96.62c-30.26-28-60.33-56.2-90.55-84.23Q496,169.3,453.15,129.83c-1.46-1.34-3.15-2.43-4.82-3.7l-3.67,3.51V518.43A142.55,142.55,0,0,1,489.6,522.34Z"/><path class="cls-1" d="M539.5,544.84q5.09,3.36,10,7c15.15,11.32,28.39,24.69,40.82,38.87,4.4,5,8.28,10.51,12.5,15.92L587.89,618l.33,1h23.92V806.61l2-199.61S584.93,570.78,539.5,544.84Z"/><path class="cls-1" d="M764.2,582.81c.31-53.43.91-106.85,1.22-160.28a9.76,9.76,0,0,0-2.75-6.34l1.39,197.93Q764.12,598.46,764.2,582.81Z"/><path class="cls-1" d="M503.64,600.24c-18-11.78-37.27-18.29-59-15.41v1.48c30.28-3.62,65.73,8.42,101,57.15,0-2.66-1.9-5.7-3.74-7.86C530.59,622.27,518.35,609.89,503.64,600.24Z"/><path class="cls-1" d="M554.06,864.33c.17-16.22.35-32.44.35-48.66A14.12,14.12,0,0,0,547,803.42c0-.45,0-.91,0-1.4-.34-23.81-.53-47.63-.71-71.44-.21-29-.26-58.08-.7-87.11l.78,229.37v-8.51Z"/><path class="cls-1" d="M831.84,485.93c-9.05-6.79-25.93.71-22.19,14.78.9,3.39,1.64,6.81,2.28,10.24,0,.24-.08.48-.11.72-4.92,39.9-12.59,79.64-15.31,119.79-2.69,39.95-.53,80,3.22,119.86,2.15,22.81,4.82,45.58,7.42,68.35.69,6,4,11.33,9.48,13.22.31,10.14,1,20.25,2.28,30.33-2.14,0-4.27,0-6.39-.14-2.38-.12-4.18.1-5,1.25h19.63V871l6-390.37-1.28.33C831.87,482.62,831.85,484.27,831.84,485.93Z"/><path class="cls-1" d="M468,49.37l7.14,7.3-6,21L444.66,65.09v64.55l3.67-3.51c1.67,1.27,3.36,2.36,4.82,3.7q42.84,39.53,85.62,79.1c30.22,28,60.29,56.24,90.55,84.23q52.38,48.42,105,96.62c9.51,8.75,19.06,17.45,28.37,26.41l70.49,64.44h0L849,495.08l45.39-49.63Z"/><path class="cls-1" d="M444.66,518.43v.8c35.5-1.45,68,10.28,94.84,25.61-15.34-10.14-31.82-18-49.9-22.5A142.55,142.55,0,0,0,444.66,518.43Z"/><path class="cls-1" d="M763.77,801.34c0,3.39-.82,4.56-4.32,4.56-26.57,0-53.15.14-79.73.28-21.33.11-42.65.29-64,.43h-3.59L765.42,808l-1.36-193.88q-.24,59.53-.29,119.07C763.72,755.91,763.64,778.63,763.77,801.34Z"/><path class="cls-1" d="M762.67,416.19a9.76,9.76,0,0,1,2.75,6.34c-.31,53.43-.91,106.85-1.22,160.28q-.09,15.66-.14,31.31L765.42,808l-153.27-1.39h0V619H588.22l-.33-1,14.93-11.38c-4.22-5.41-8.1-10.9-12.5-15.92-12.43-14.18-25.67-27.55-40.82-38.87q-4.92-3.66-10-7c-26.83-15.33-59.34-27.06-94.84-25.61v65.6c21.71-2.88,41,3.63,59,15.41,14.71,9.65,27,22,38.25,35.36,1.84,2.16,3.7,5.2,3.74,7.86h0c.44,29,.49,58.07.7,87.11.18,23.81.37,47.63.71,71.44,0,.49,0,1,0,1.4a14.12,14.12,0,0,1,7.39,12.25c0,16.22-.18,32.44-.35,48.66H807.49c.85-1.15,2.65-1.37,5-1.25,2.12.12,4.25.14,6.39.14-1.28-10.08-2-20.19-2.28-30.33-5.48-1.89-8.79-7.23-9.48-13.22-2.6-22.77-5.27-45.54-7.42-68.35-3.75-39.81-5.91-79.91-3.22-119.86,2.72-40.15,10.39-79.89,15.31-119.79,0-.24.07-.48.11-.72-.64-3.43-1.38-6.85-2.28-10.24-3.74-14.07,13.14-21.57,22.19-14.78,0-1.66,0-3.31,0-5l1.28-.33h0Z"/><path class="cls-1" d="M444.66,36.48V30.67h-.21l-17.26,19.7L439.24,39C442.15,36.2,443.13,35.29,444.66,36.48Z"/><path class="cls-1" d="M447.69,39.87a19.27,19.27,0,0,0,2.37-2,26.48,26.48,0,0,0,2.06-3.18L468,49.37l-18.29-18.7h-5v5.81A23.72,23.72,0,0,1,447.69,39.87Z"/><path class="cls-1" d="M444.66,65.09V36.48c-1.53-1.19-2.51-.28-5.42,2.48L427.19,50.37l-3.46,4Z"/><path class="cls-1" d="M450.06,37.85a19.27,19.27,0,0,1-2.37,2,23.72,23.72,0,0,0-3-3.39V65.09l24.46,12.58,6-21L468,49.37l-15.83-14.7A26.48,26.48,0,0,1,450.06,37.85Z"/><polygon class="cls-1" points="546.41 879.56 827.12 879.56 827.12 871 546.41 872.84 546.41 879.56"/><path class="cls-1" d="M807.49,864.33c-.61.82-.74,2.1-.24,4.07a9.72,9.72,0,0,1-.23,2.35c-7.46,0-14.85-.06-22.24,0q-83.88.69-167.74,1.43-31.53.28-63.07.57l.09-8.43h-7.65v8.51L827.12,871v-6.67Z"/><path class="cls-1" d="M617,872.19q83.87-.72,167.74-1.43c7.39-.07,14.78,0,22.24,0a9.72,9.72,0,0,0,.23-2.35c-.5-2-.37-3.25.24-4.07H554.06l-.09,8.43Q585.52,872.43,617,872.19Z"/><line class="cls-2" x1="437.59" y1="-36.36" x2="437.59" y2="26"/><line class="cls-2" x1="451.48" y1="-10.36" x2="451.48" y2="52"/><path class="cls-2" d="M406.53,522.34c-18.07,4.48-34.56,12.36-49.9,22.5C311.21,570.78,282,607,282,607l2,199.61H280.4c-21.33-.14-42.66-.32-64-.43-26.58-.14-53.16-.28-79.74-.28-3.49,0-4.33-1.17-4.32-4.56.13-22.71.06-45.43,0-68.15q-.15-59.54-.29-119.07l1.39-197.93c9.31-9,18.86-17.66,28.37-26.41q52.49-48.31,105-96.62c30.27-28,60.33-56.2,90.56-84.23q42.72-39.63,85.61-79.1c1.46-1.34,3.16-2.43,4.82-3.7l3.68,3.51V518.43A142.64,142.64,0,0,0,406.53,522.34Z"/><path class="cls-1" d="M356.63,544.84q-5.07,3.36-10,7c-15.16,11.32-28.4,24.69-40.82,38.87-4.41,5-8.28,10.51-12.5,15.92L308.25,618l-.33,1H284V806.61L282,607S311.21,570.78,356.63,544.84Z"/><path class="cls-1" d="M131.94,582.81c-.31-53.43-.92-106.85-1.22-160.28a9.76,9.76,0,0,1,2.75-6.34l-1.39,197.93Q132,598.46,131.94,582.81Z"/><path class="cls-1" d="M392.5,600.24c18-11.78,37.27-18.29,59-15.41v1.48c-30.28-3.62-65.74,8.42-101,57.15,0-2.66,1.9-5.7,3.74-7.86C365.55,622.27,377.79,609.89,392.5,600.24Z"/><path class="cls-1" d="M342.08,864.33c-.17-16.22-.35-32.44-.36-48.66a14.16,14.16,0,0,1,7.39-12.25c0-.45,0-.91,0-1.4.35-23.81.54-47.63.71-71.44.22-29,.27-58.08.71-87.11l-.79,229.37v-8.51Z"/><path class="cls-1" d="M64.3,485.93c9-6.79,25.92.71,22.19,14.78-.9,3.39-1.65,6.81-2.28,10.24,0,.24.08.48.11.72,4.92,39.9,12.59,79.64,15.3,119.79,2.7,39.95.54,80-3.21,119.86-2.15,22.81-4.82,45.58-7.43,68.35-.68,6-4,11.33-9.47,13.22-.31,10.14-1,20.25-2.28,30.33,2.14,0,4.27,0,6.39-.14,2.38-.12,4.18.1,5,1.25H69V871L63,480.63l1.29.33C64.27,482.62,64.28,484.27,64.3,485.93Z"/><polygon class="cls-1" points="283.99 806.61 283.99 806.61 283.99 806.61 283.99 806.61"/><path class="cls-1" d="M428.18,49.37l-7.13,7.3,6,21,24.46-12.58v64.55l-3.68-3.51c-1.66,1.27-3.36,2.36-4.82,3.7q-42.84,39.53-85.61,79.1c-30.23,28-60.29,56.24-90.56,84.23q-52.37,48.42-105,96.62c-9.51,8.75-19.06,17.45-28.37,26.41L63,480.63h0L47.12,495.08,1.73,445.45Z"/><path class="cls-1" d="M451.48,518.43v.8c-35.5-1.45-68,10.28-94.85,25.61,15.34-10.14,31.83-18,49.9-22.5A142.64,142.64,0,0,1,451.48,518.43Z"/><path class="cls-1" d="M132.36,801.34c0,3.39.83,4.56,4.32,4.56,26.58,0,53.16.14,79.74.28,21.32.11,42.65.29,64,.43H284L130.72,808l1.36-193.88q.22,59.53.29,119.07C132.42,755.91,132.49,778.63,132.36,801.34Z"/><path class="cls-1" d="M133.47,416.19a9.76,9.76,0,0,0-2.75,6.34c.3,53.43.91,106.85,1.22,160.28q.09,15.66.14,31.31L130.72,808,284,806.61h0V619h23.93l.33-1-14.93-11.38c4.22-5.41,8.09-10.9,12.5-15.92,12.42-14.18,25.66-27.55,40.82-38.87q4.92-3.66,10-7c26.84-15.33,59.35-27.06,94.85-25.61v65.6c-21.71-2.88-41,3.63-59,15.41-14.71,9.65-26.95,22-38.25,35.36-1.84,2.16-3.7,5.2-3.74,7.86h0c-.44,29-.49,58.07-.71,87.11-.17,23.81-.36,47.63-.71,71.44,0,.49,0,1,0,1.4a14.16,14.16,0,0,0-7.39,12.25c0,16.22.19,32.44.36,48.66H88.65c-.85-1.15-2.65-1.37-5-1.25-2.12.12-4.25.14-6.39.14,1.28-10.08,2-20.19,2.28-30.33C85,831,88.3,825.66,89,819.67c2.61-22.77,5.28-45.54,7.43-68.35,3.75-39.81,5.91-79.91,3.21-119.86-2.71-40.15-10.38-79.89-15.3-119.79,0-.24-.08-.48-.11-.72.63-3.43,1.38-6.85,2.28-10.24,3.73-14.07-13.14-21.57-22.19-14.78,0-1.66,0-3.31,0-5L63,480.63h0Z"/><path class="cls-1" d="M451.48,36.48V30.67h.21l17.25,19.7q-6-5.71-12.05-11.41C454,36.2,453,35.29,451.48,36.48Z"/><path class="cls-1" d="M448.45,39.87a19.37,19.37,0,0,1-2.38-2A27.88,27.88,0,0,1,444,34.67l-15.84,14.7,18.3-18.7h5v5.81A23.72,23.72,0,0,0,448.45,39.87Z"/><path class="cls-1" d="M451.48,65.09V36.48c1.53-1.19,2.5-.28,5.41,2.48q6,5.7,12.05,11.41l3.47,4Z"/><path class="cls-1" d="M446.07,37.85a19.37,19.37,0,0,0,2.38,2,23.72,23.72,0,0,1,3-3.39V65.09L427,77.67l-6-21,7.13-7.3L444,34.67A27.88,27.88,0,0,0,446.07,37.85Z"/><polygon class="cls-1" points="349.72 879.56 69.02 879.56 69.02 871 349.72 872.84 349.72 879.56"/><path class="cls-1" d="M88.65,864.33c.6.82.73,2.1.24,4.07a10.07,10.07,0,0,0,.22,2.35c7.46,0,14.86-.06,22.25,0q83.87.69,167.74,1.43,31.53.28,63.06.57,0-4.21-.08-8.43h7.64v8.51L69,871v-6.67Z"/><path class="cls-1" d="M279.1,872.19q-83.87-.72-167.74-1.43c-7.39-.07-14.79,0-22.25,0a10.07,10.07,0,0,1-.22-2.35c.49-2,.36-3.25-.24-4.07H342.08q0,4.21.08,8.43Q310.63,872.43,279.1,872.19Z"/><path class="cls-1" d="M350.51,643.46s85.75-127.52,199.51,0-10.52-39.14-10.52-39.14l-35.72-44.66-42-12L421.12,557l-53.34,8.67-14.66,18.48-19.34,25.52,2.67,20Z"/></svg>