<svg id="Layer_1" data-name="Layer 1" xmlns="http://www.w3.org/2000/svg" xmlns:xlink="http://www.w3.org/1999/xlink" viewBox="0 0 594.28 594.28"><defs><style>.cls-1{fill:url(#radial-gradient);}</style><radialGradient id="radial-gradient" cx="297.14" cy="297.14" r="287.9" gradientUnits="userSpaceOnUse"><stop offset="0.1" stop-color="#fff"/><stop offset="0.48" stop-color="#dbd025"/><stop offset="1" stop-color="#d4c900"/></radialGradient></defs><title>BIO ICONS</title><path class="cls-1" d="M107.34,552.15C114,513.82,121,472.59,128.2,431.39c2.48-14.27,6.41-28.42,7.29-42.77.42-6.81-2.86-15.86-7.69-20.67-37.68-37.59-76.51-74.05-114-111.8-6.3-6.34-11.64-17.49-11-25.93.94-12.69,14.26-14.31,25-15.89,52-7.71,104-15.63,156.12-22.47,10.56-1.39,16-5.58,20.45-14.73,23-47.35,46.49-94.42,69.75-141.63,4.83-9.81,9.21-19.6,22.71-19.57s18,9.59,22.89,19.44c23.2,47.21,46.69,94.28,69.59,141.63,4.43,9.18,9.86,13.42,20.44,14.76,53.76,6.83,107.45,14.29,161,22.75,7.75,1.23,18.85,7.89,20.49,14.12,1.89,7.18-2.69,18.94-8.44,24.78-38.13,38.68-77.6,76-115.83,114.59-5.06,5.1-8.81,15.2-7.71,22.13,8.25,51.89,18.37,103.48,26.58,155.38,1.4,8.88-.6,23.25-6.32,27-6.74,4.42-20.74,3-29-1-47.19-23.27-93.74-47.84-140.16-72.61-9.14-4.88-16-4.91-25.19,0-47.33,25.37-95,50.14-142.72,74.72C121.24,584.47,106.62,576.43,107.34,552.15Z"/></svg>