<svg width="589" height="563" viewBox="0 0 589 563" fill="none" xmlns="http://www.w3.org/2000/svg">
<path d="M104.592 536.22C111.252 497.89 118.252 456.66 125.452 415.46C127.932 401.19 131.862 387.04 132.742 372.69C133.162 365.88 129.882 356.83 125.052 352.02C87.3722 314.43 48.5422 277.97 11.0522 240.22C4.75217 233.88 -0.587832 222.73 0.0521676 214.29C0.992168 201.6 14.3122 199.98 25.0522 198.4C77.0522 190.69 129.052 182.77 181.172 175.93C191.732 174.54 197.172 170.35 201.622 161.2C224.622 113.85 248.112 66.7801 271.372 19.5701C276.202 9.76007 280.582 -0.0299312 294.082 6.87722e-05C307.582 0.0300688 312.082 9.59007 316.972 19.4401C340.172 66.6501 363.662 113.72 386.562 161.07C390.992 170.25 396.422 174.49 407.002 175.83C460.762 182.66 514.452 190.12 568.002 198.58C575.752 199.81 586.852 206.47 588.492 212.7C590.382 219.88 585.802 231.64 580.052 237.48C541.922 276.16 502.452 313.48 464.222 352.07C459.162 357.17 455.412 367.27 456.512 374.2C464.762 426.09 474.882 477.68 483.092 529.58C484.492 538.46 482.492 552.83 476.772 556.58C470.032 561 456.032 559.58 447.772 555.58C400.582 532.31 354.032 507.74 307.612 482.97C298.472 478.09 291.612 478.06 282.422 482.97C235.092 508.34 187.422 533.11 139.702 557.69C118.492 568.54 103.872 560.5 104.592 536.22Z" fill="url(#paint0_radial)"/>
<defs>
<radialGradient id="paint0_radial" cx="0" cy="0" r="1" gradientUnits="userSpaceOnUse" gradientTransform="translate(294.392 281.21) scale(287.9)">
<stop offset="1" stop-color="#C8C8C8"/>
</radialGradient>
</defs>
</svg>
