<svg id="Layer_1" data-name="Layer 1"
  xmlns="http://www.w3.org/2000/svg" viewBox="0 0 570.89 570.89">
  <defs>
    <style>.cls-1{fill:currentColor;stroke:currentColor;stroke-miterlimit:10;stroke-width:8px;}</style>
  </defs>
  <title>BIO ICONS</title>
  <path class="cls-1" d="M230.11,340.63H153.39c-29.47,0-58.93.14-88.39-.05-31.51-.19-55.88-24.36-55.93-55.12s24.33-55.2,55.72-55.31c51.25-.17,102.5,0,153.75-.05h11.57v-9.94q0-76.41,0-152.83c0-33.61,23.73-58.4,55.55-58.26,31.38.14,54.9,24.88,54.94,58q.09,76,0,151.91V230.1H351c52.17,0,104.34-.19,156.51.1,27.26.16,49.63,20.44,53.73,47.67,3.86,25.64-12,51.56-37.3,59.63a70.22,70.22,0,0,1-20.76,3c-53.09.26-106.18.17-159.27.19a32.27,32.27,0,0,0-3.28.49v9.4c0,52.17.18,104.34-.09,156.51-.15,27.43-20,49.72-47.28,54.09-25.58,4.1-51.62-11.6-59.91-36.82a68.86,68.86,0,0,1-3.11-20.74c-.25-50.64-.13-101.27-.13-151.91Z"/>
</svg>