<svg id="Layer_1" data-name="Layer 1"
  xmlns="http://www.w3.org/2000/svg" viewBox="0 0 803.75 480.65">
  <defs>
    <style>.cls-1{fill:currentColor;}</style>
  </defs>
  <title>BIO ICONS</title>
  <path class="cls-1" d="M129.86,267.6c6.73,7.28,11.77,12.77,16.85,18.22,35.91,38.52,72,76.88,107.54,115.72a46.38,46.38,0,0,1,10.88,20.13c3.48,15.4-3.38,29.08-15.45,35.09-13.72,6.83-33.09,3-44.82-9.48Q155,394.14,105.5,340.64,67.72,300,30,259.39C14,242.25,14.13,223.93,30.24,207q87.5-92,175-184C216,11.64,228.76,6.58,244.11,9.31c11,2,18.63,8.68,21.75,19.68,4,14,1.48,26.79-8.6,37.5-18.9,20.09-38,40-57,59.94l-70,73.42,12.38.07,604.64,3.39c19.62.11,32.06,8.31,36.94,24.23A33.68,33.68,0,0,1,753.87,271c-3.44.19-6.9,0-10.34,0l-600.88-3.36Z"/>
</svg>