<svg id="Layer_1" data-name="Layer 1" xmlns="http://www.w3.org/2000/svg" viewBox="0 0 464.37 464.37">
<defs>
<!-- <style>.cls-1{fill:#5c5c5c;stroke:#5c5c5c;stroke-miterlimit:10;stroke-width:3px;}</style> -->
</defs>
<title>BIO ICONS</title>
<path fill="currentColor" class="cls-1" d="M297.74,280.49c26.21,6.44,49.95,16,71.82,30.12a186.42,186.42,0,0,1,53,51.23c17.73,25.71,26.21,54.26,26.07,85.43a24.14,24.14,0,0,1-.35,2.57H420.48c-.7-7.38-1.41-14.93-2.13-22.48-1.32-13.78-6.82-26.15-13.29-38.1-18.41-34-47.4-55.84-82.42-70.5-32.3-13.53-66.17-17.76-100.79-15.47-39.3,2.61-75.64,14.67-108.46,36.8-20.23,13.63-37.2,30.38-49.65,51.45C52.87,410,46,429.69,45.62,451.29c-.07,4.23-1.12,5.86-5.53,5.69-7.64-.29-15.3-.08-24.34-.08,1.12-9.69,1.54-19.22,3.4-28.46,9.9-49.27,38.54-85.61,79.3-113.35a226.42,226.42,0,0,1,56.63-27.61c2-.65,3.89-1.4,6.7-2.42-4.07-2.21-7.47-4-10.81-5.88-40.45-22.77-66.49-56.54-74.23-102.45C68.26,126.4,83.81,83.1,120.79,48.09c33.65-31.85,74.6-44.25,120.12-39.86,66.58,6.42,119,53.16,131.72,116.07,9.6,47.33-2.77,89.63-35.62,125.51a142,142,0,0,1-36.42,28.59A34.86,34.86,0,0,0,297.74,280.49Zm-74-16.52c6.59-.38,11.69-.29,16.67-1,33.42-4.87,61.06-19.91,80.69-47.79,21-29.86,26-62.75,14.15-97.2-12.63-36.6-38.67-60.51-75.7-71-46-13.1-87.15-2.91-120.71,31.51-34.71,35.6-40,89.06-13.56,131C148.33,245.92,182.72,262.64,223.75,264Z"/></svg>