<svg id="Layer_1" data-name="Layer 1" xmlns="http://www.w3.org/2000/svg" viewBox="0 0 231.67 572.63"><defs><style>.cls-1{fill:#5c5c5c;stroke:#5c5c5c;stroke-miterlimit:10;stroke-width:13px;}</style></defs><title>BIO ICONS</title><path class="cls-1" d="M29.65,238.35C43.38,237,196,239.15,196,241.71c1.36,78.6,3,166.6,4.34,254.6.72,46.82-33.46,53.73-67.76,53.76-38.94,0-87.63,0-92.66-50.65-4.46-44.9-6.44-90-7.73-135.07-.63-21.71-1.07-43.43-1.57-65.14C30.21,280,26.12,257,29.65,238.35Z"/><path class="cls-1" d="M111.46,189.93c-45,0-92.56-43.17-93.17-84.71-.56-38.7,43-75,92-76.82,46-1.66,87.5,36.55,86.43,79.55C195.56,154.21,158.45,189.89,111.46,189.93Z"/></svg>