<svg width="585" height="585" viewBox="0 0 585 585" fill="none" xmlns="http://www.w3.org/2000/svg">
<path d="M0 284.072C0.82 213.322 28 144.562 82.79 88.2016C139.21 30.1216 209.35 0.271601 290.47 0.00160083C455.63 -0.528399 585.02 130.612 584.69 294.332C584.53 373.472 555.25 442.842 499.11 498.852C441.58 556.212 370.63 583.982 289.42 584.722C268.157 584.799 246.968 582.209 226.35 577.012C149.77 558.102 88.89 516.012 46.05 449.632C15.27 401.992 0.17 349.122 0 284.072Z" fill="#AFAFAF"/>
<path d="M292.339 286.772C344.884 286.772 387.479 244.176 387.479 191.632C387.479 139.087 344.884 96.4917 292.339 96.4917C239.795 96.4917 197.199 139.087 197.199 191.632C197.199 244.176 239.795 286.772 292.339 286.772Z" fill="white"/>
<path d="M136.589 497.892C125.769 484.772 120.469 468.372 121.459 450.622C123.179 419.752 136.979 388.342 155.459 363.842C193.009 314.042 262.589 307.302 320.109 311.722C383.949 316.622 438.109 356.412 456.419 418.602C464.749 446.952 466.199 480.022 445.579 503.652C428.499 523.212 402.489 533.322 378.139 540.212C331.559 553.382 281.259 558.942 233.709 547.882C204.089 540.992 171.049 527.322 147.129 508.222C143.269 505.15 139.737 501.689 136.589 497.892V497.892Z" fill="white"/>
</svg>
