<svg id="Layer_1" data-name="Layer 1" xmlns="http://www.w3.org/2000/svg" viewBox="0 0 512.84 579.27"><defs><style>.cls-1{fill:#5c5c5c;stroke:#5c5c5c;stroke-miterlimit:10;stroke-width:8px;}</style></defs><title>BIO ICONS</title><path class="cls-1" d="M183.32,145.84c-33-.18-58.56-28.65-54.15-61.14.81-6,3.29-12,6-17.52,9.4-19.29,22.82-35.81,37-51.7,5.4-6.06,15.66-6.24,21.06-.23,14.71,16.39,28.16,33.69,38.34,53.42,17,32.89-6.61,69.71-37.5,75.74C190.51,145.1,186.9,145.37,183.32,145.84Zm.75-95.59-2.54,0c-6.6,10.62-13.67,21-19.66,31.93-5.61,10.25-2.58,20.93,6.7,28a24,24,0,0,0,29-.45c8.71-7,11.55-17.64,6.15-27.47C197.68,71.29,190.66,60.89,184.07,50.25Z"/><path class="cls-1" d="M327,145.84c-33-.18-58.56-28.65-54.15-61.14.81-6,3.29-12,6-17.52,9.4-19.29,22.82-35.81,37-51.7,5.4-6.06,15.66-6.24,21.06-.23C351.57,31.64,365,48.94,375.2,68.67c17,32.89-6.61,69.71-37.5,75.74C334.16,145.1,330.55,145.37,327,145.84Zm.75-95.59-2.54,0c-6.6,10.62-13.67,21-19.66,31.93-5.61,10.25-2.58,20.93,6.7,28a24,24,0,0,0,29-.45c8.71-7,11.56-17.64,6.15-27.47C341.33,71.29,334.31,60.89,327.72,50.25Z"/><path class="cls-1" d="M237.1,203.22c0-20.17-14.88-32.94-30.57-33-17.23,0-34.45-.07-51.67,0a30.54,30.54,0,0,0-30,30.18v67.73l112.2.26C237.09,246.19,237.07,224.7,237.1,203.22Zm-36,64.89H160.2V205.48h40.94Z"/><path class="cls-1" d="M508.45,345.64C502.63,300,466.86,269,420.73,268.69c-33.62-.2-67.24-.11-100.86-.15H314v-.09l-112.21-.26v.19h-6.41c-32.13,0-64.26-.28-96.39.05-9.52.1-19.36.6-28.49,3C6.82,288.33-15.4,365.58,29,414.88a12.66,12.66,0,0,1,3.62,9.22c0,34.28-.21,68.56.26,102.84.34,24.31,19.46,42.74,43.7,42.76q181.35.09,362.69,0A45.17,45.17,0,0,0,451,568c20.13-5.5,32.23-21.92,32.31-44q.17-50.43,0-100.86a12.73,12.73,0,0,1,3.45-9.31C504.17,394.43,511.72,371.36,508.45,345.64Zm-72,189q-81.47-.11-162.94-.17-95.37,0-190.76,0c-2.48,0-5,0-7.44-.2-4.68-.42-7.72-3.3-7.73-8-.08-28.48,0-57,0-85.44a2.39,2.39,0,0,1,.31-.83c6,.91,12,2.11,18,2.68,21.41,2,40.86-3.68,58.32-16,3.13-2.2,4.88-1.81,7.65.19,29.74,21.47,71.67,21.55,101.56.13,3-2.17,4.89-2.4,8.07-.11,29.75,21.42,71.29,21.48,101.2.41,1.46-1,2.95-2,4.46-3.08,24.35,18.35,51.11,23.22,80.61,15.11.13,1.94.31,3.36.31,4.78q.09,39.26.14,78.49C448.25,531.63,445.26,534.62,436.47,534.61Zm-5.19-127.74c-20,3.3-36.45-3.23-49.57-18.34-5.43-6.26-11.92-9.18-19.76-6.29-3.64,1.34-7,4.25-9.7,7.2-10.55,11.66-23.48,18.12-39.18,18.29-16.5.19-30.15-6.43-40.88-18.91-8.72-10.14-20-10.36-28.75-.39-22.88,26.17-59.05,25.95-81.65-.51-7.86-9.2-19.92-9-27.83.2-14.89,17.25-33.61,23.93-55.58,17.33C57,399,44.28,384.18,40.94,361.82a44.74,44.74,0,0,1,0-6.45c-.15-28.77,23.26-51.92,52.63-51.94q98.39,0,196.78.12,64.35,0,128.69,0c22.34,0,39.29,9.38,49.61,29.44C484.31,363.51,465.13,401.29,431.28,406.87Z"/><path class="cls-1" d="M380.88,203.22c0-20.17-14.88-32.94-30.57-33-17.22,0-34.45-.07-51.67,0a30.54,30.54,0,0,0-30,30.18v67.73l112.21.26C380.88,246.19,380.86,224.7,380.88,203.22Zm-36,64.89H304V205.48h40.94Z"/></svg>