<svg id="Layer_1" data-name="Layer 1" xmlns="http://www.w3.org/2000/svg" viewBox="0 0 437.82 536.39"><defs><style>.cls-1{fill:#5c5c5c;stroke:#5c5c5c;stroke-miterlimit:10;stroke-width:8px;}</style></defs><title>BIO ICONS</title><path class="cls-1" d="M6.58,291.84c0-40.59-.44-81.18.21-121.76.28-18.16,5.88-35.4,15.92-51.39a121.85,121.85,0,0,1,46-42.84c4.65-2.52,6.85-5.49,6.55-10.61-.45-7.82-.2-15.68,0-23.52.26-12.65,7.57-21,19.82-26.22,21.2-9.1,46.22,7.49,45.34,27.66-.19,4.12.05,8.25.06,12.38,0,2.87,1.6,4.31,4.72,4.4,1.21,0,2.42.07,3.63.07H287.3c10.19,0,10-.16,10.39-9.59.24-6.51,0-13.46,2.42-19.4,4.28-10.56,14-16.6,26.18-17.83,13.7-1.39,24.14,4.29,31.7,14.67,4.16,5.72,4.52,12.16,4.74,18.6.23,6.87.28,13.77,0,20.63-.19,4.15,1.63,6.59,5.47,8.57a121.32,121.32,0,0,1,36.76,29.51,109.09,109.09,0,0,1,23.81,48.4,83.58,83.58,0,0,1,1.52,17.66c.09,79.39,0,158.78.14,238.17,0,20.78-5.9,39.89-17.36,57.64-10.85,16.8-25.95,29.84-44.21,40-20.45,11.37-42.87,16.12-66.54,16.19-56.44.15-112.9.48-169.34-.09-44.1-.45-79-17.85-104.61-50.53a104,104,0,0,1-18.76-39c-2.23-8.74-2.88-18-2.95-27-.31-38.24-.13-76.5-.13-114.75ZM404,291.28h0q0-55.11,0-110.21c0-13-1.43-25.71-6.62-37.95a89.72,89.72,0,0,0-29.62-37.8c-3-2.19-4.27-1.66-5.21,1.76s-1.33,7.16-3,10.28C352.91,129.54,342,135,326.89,134.65c-13.51-.32-29.51-13-29.23-26.63.12-6-.11-12.11,0-18.16.05-4-2.09-5.81-6.37-5.78-1.51,0-3,0-4.53,0H150.06c-1.36,0-2.72,0-4.08.06-3.88.07-5.76,1.69-5.63,5.4.18,5.22.08,10.45.05,15.68-.08,15.11-14.12,28.77-29.95,29.67C90,136,75.33,120.9,75.16,107.81c0-1.2-.84-3.24-1.63-3.39a6.4,6.4,0,0,0-4.33,1.24c-15.05,11.18-25,25.58-31.11,42.15-3.62,9.71-4.12,19.85-4.11,30q.08,94.11,0,188.22c0,16.92-.14,33.85.38,50.77.31,10.08,3.58,19.68,8.26,28.87a92,92,0,0,0,30.27,34.35,96.25,96.25,0,0,0,33,15c13,3,26.33,4,39.92,3.87,50.09-.45,100.18-.12,150.28-.24,7.37,0,14.77-.62,22.1-1.36,25.32-2.56,45.83-13.62,62.09-30.9,15.75-16.75,23.53-36.65,23.65-58.71C404.17,368.88,404,330.08,404,291.28Z"/><path class="cls-1" d="M122.55,338.33c-14.36.2-27.25-12.14-27.1-27.84a27.33,27.33,0,0,1,54.65.39C150.19,325.81,137.35,338.54,122.55,338.33Z"/><path class="cls-1" d="M245.12,414c1.28,14.31-13.52,27.06-25.85,27.14-18.92.12-29.45-15-28.61-28.23,1-15.67,12.24-26.2,27.27-26.37C232.27,386.38,245.59,397.56,245.12,414Z"/><path class="cls-1" d="M218,284c13.21-1.41,27.61,12.1,27.38,27.29-.23,15.6-14.47,27.47-27.94,27.12-14.77-.38-27-13-26.79-28.26C190.78,296.36,203.9,282.73,218,284Z"/><path class="cls-1" d="M290.34,310.85c-1.8-14.08,13.14-27.62,27.3-27.1,13.54.51,27,11,26.69,27.67-.25,15.1-11.62,26.74-27.91,27C303.67,338.55,288.53,325.77,290.34,310.85Z"/><path class="cls-1" d="M245.14,208.21c.8,12.84-10.78,27.39-27.55,27-16.09-.34-26.14-12.84-27-25.84-.94-13.88,11.12-28.48,27.28-28.37C231.91,181.12,245.93,192.47,245.14,208.21Z"/><path class="cls-1" d="M313.68,181.25c16.79-.21,27.34,12.81,27,27.2-.33,14.94-10.94,26.81-27.65,26.83-14.4,0-27-12.08-26.91-27.9C286.2,193.92,299.14,179.85,313.68,181.25Z"/><path class="cls-1" d="M123.83,440.7c-13.21,2.35-27.47-10.41-28.22-24.34-.91-16.9,10.08-28.53,26.08-30,13.68-1.23,27.43,11.4,28.29,25.17C151,427.51,140.12,439.61,123.83,440.7Z"/><path class="cls-1" d="M313.23,440.67c-14.92,1.69-27.34-13.64-27.09-26.76.3-16,12.64-27.64,27-27.36,14.53.27,27,9.49,27.47,27.42C341,426.78,329.24,442.24,313.23,440.67Z"/><path class="cls-1" d="M122.62,181.19c15.48-.06,27.37,11.57,27.43,26.81a27.31,27.31,0,0,1-54.62.6C95.2,194.05,106.89,180.58,122.62,181.19Z"/></svg>