<svg width="517" height="451" viewBox="0 0 517 451" fill="none" xmlns="http://www.w3.org/2000/svg">
<path d="M258.487 445.989C199.82 445.989 141.153 445.989 82.4867 445.989C49.1567 445.989 20.1167 426.989 9.18667 397.469C6.05183 388.906 4.40803 379.868 4.32667 370.749C3.95334 294.016 3.9 217.283 4.16667 140.549C4.27667 97.5994 38.1667 65.4994 82.9067 65.3594C89.7467 65.3594 96.58 65.3594 103.407 65.3594C109.627 65.5068 115.812 64.3738 121.577 62.0308C127.341 59.6878 132.563 56.1849 136.917 51.7394C147.237 41.4494 157.597 31.2494 167.747 20.8994C178.637 9.76939 192.097 4.23938 207.747 4.13938C240.417 3.92938 273.077 3.97938 305.747 4.13938C321.087 4.20938 334.347 9.47938 345.177 20.0794C354.757 29.4494 364.707 38.4894 373.807 48.2794C385.427 60.7994 399.537 66.0094 416.807 65.5694C428.887 65.2594 441.327 65.2694 453.057 67.6194C486.837 74.3894 511.387 103.439 512.497 136.619C512.967 150.539 512.667 164.489 512.677 178.429C512.677 242.189 512.677 305.946 512.677 369.699C512.677 404.459 491.017 433.289 457.497 442.609C449.334 444.799 440.918 445.905 432.467 445.899C374.477 446.119 316.477 445.989 258.487 445.989ZM258.297 384.229C336.407 384.499 400.097 323.629 400.557 248.229C401.027 172.569 337.557 111.009 258.857 110.729C180.467 110.439 116.657 171.439 116.357 246.959C116.047 322.709 179.397 383.959 258.297 384.229ZM430.627 168.399C446.787 168.399 459.867 156.009 460.087 140.489C460.307 124.969 446.877 111.959 430.677 111.899C414.477 111.839 401.447 124.459 401.357 139.899C401.257 155.789 414.227 168.399 430.627 168.399Z" fill="#5C5C5C" stroke="#5C5C5C" stroke-width="8" stroke-miterlimit="10"/>
<path d="M258.357 351.23C237.915 351.237 217.93 345.176 200.935 333.815C183.941 322.454 170.701 306.303 162.894 287.41C155.087 268.517 153.064 247.731 157.082 227.688C161.1 207.644 170.977 189.243 185.462 174.819C199.947 160.394 218.389 150.593 238.449 146.659C258.51 142.725 279.287 144.835 298.147 152.721C317.007 160.606 333.102 173.913 344.393 190.955C355.683 207.997 361.66 228.007 361.567 248.45C361.357 305.29 315.087 351.36 258.357 351.23Z" fill="#5C5C5C" stroke="#5C5C5C" stroke-width="8" stroke-miterlimit="10"/>
<path d="M464.197 97.7295H401.357V160.57H464.197V97.7295Z" fill="#5C5C5C" stroke="#5C5C5C" stroke-width="8" stroke-miterlimit="10"/>
</svg>
