<svg id="Layer_1" data-name="Layer 1"
  xmlns="http://www.w3.org/2000/svg" viewBox="0 0 507.86 507.86">
  <defs>
    <style>.cls-1{fill:currentColor;stroke:currentColor;stroke-miterlimit:10;stroke-width:8px;}</style>
  </defs>
  <title>BIO ICONS</title>
  <path class="cls-1" d="M291.21,291.05q-91.56,93.81-183.15,187.58c-21.66,22.15-55.93,21.64-76.91-.87-18.11-19.43-18.29-50.93-.39-70.55.94-1,1.92-2,2.9-3Q216.6,216.73,399.56,29.34c21.22-21.74,54.67-22,75.83-.66,19.53,19.67,20.13,52.23,1.1,72.46-10.82,11.5-22,22.65-33,34Z"/>
  <path class="cls-1" d="M292.56,218.19q90,95.3,180,190.63c21.25,22.54,19.35,56.76-4,76.81-20.16,17.31-51.63,16.2-70.51-2.48-1-1-2-2-2.94-3Q215.29,289.71,35.47,99.28C14.62,77.19,15.75,43.76,37.9,23.48c20.44-18.7,53-18,72.44,1.85,11,11.28,21.74,22.92,32.59,34.4Z"/>
</svg>