<svg id="Layer_1" data-name="Layer 1"
  xmlns="http://www.w3.org/2000/svg" viewBox="0 0 568.37 552.56">
  <defs>
    <style>.cls-1{fill:currentColor;}</style>
  </defs>
  <title>BIO ICONS</title>
  <path class="cls-1" d="M302.23,15.45c35.43.64,67.89,4.38,99.06,16.05,19,7.12,36,17.58,51.71,30.3a321.73,321.73,0,0,1,57.06,59.58c19.1,26.06,30.91,55.49,38.05,86.86A273.66,273.66,0,0,1,554.88,261c1.62,55-12.76,105.58-42.35,151.83-21,32.79-48.14,59.28-82.11,78.53-24.73,14-51.12,23.48-79.35,27.19a272.9,272.9,0,0,1-37.53,2.78c-26.21-.22-51.65-5.3-76.48-13.85-19.6-6.75-39.35-13.14-59.27-18.89-21.73-6.27-44-6.79-66.51-4.88-20.9,1.78-41.44,5.67-62,9.8a192.19,192.19,0,0,1-23.73,2.75,20.5,20.5,0,0,1-8.13-1.57c-3.32-1.18-5-4.17-3.61-7.43a59.6,59.6,0,0,1,7.05-13.36c13.27-17.55,23-36.91,30.26-57.55a106.89,106.89,0,0,0,5.13-21.14c1.47-11-2-21.32-6.78-31.14-3.15-6.46-6.56-12.79-9.74-19.23a129.4,129.4,0,0,1-13.23-50.92,369.51,369.51,0,0,1-.46-40.07c1.93-35,9.83-68.63,25.75-100.11,9.57-18.9,22.51-35.34,37-50.59,39.56-41.57,88.12-67,143.66-79.83a292.33,292.33,0,0,1,48.23-6.69C288.71,16.11,296.68,15.74,302.23,15.45ZM289.16,308.6a47,47,0,1,0-47.11-47.19A46.8,46.8,0,0,0,289.16,308.6Zm96.55-47.09a33.46,33.46,0,1,0,66.91.05,33.46,33.46,0,1,0-66.91-.05Zm-199.07.1A33.42,33.42,0,0,0,153.31,228c-18.51,0-33.89,15.21-33.6,33.74S133.92,294.9,153,295.07A33,33,0,0,0,186.64,261.61Z"/>
</svg>