<svg id="Layer_1" data-name="Layer 1" xmlns="http://www.w3.org/2000/svg" viewBox="0 0 600.39 600.39"><defs><style>.cls-1{fill:#5c5c5c;}</style></defs><title>BIO ICONS</title><circle class="cls-1" cx="458.55" cy="309.1" r="36.7"/><path class="cls-1" d="M52.34,245.1S28.46,357.8,77.13,428.56c-1.86-3.32-5.85,42-5.85,42L56.72,434.62,29,352.31V308.17l3.74-43.67Z"/><path class="cls-1" d="M603,291.37c2.88,78.21-27.34,157.92-82.65,214.46-68.13,69.63-169.74,94.51-262.74,65-38-12.07-75.59-28.83-115.95-30.55-30.73-1.31-61.29,3.1-91.34,9.12-16.3,3.26-73,18.34-45.8-18.81,6.1-8.34,12.4-16.71,17.16-25.83,9.11-17.45,17.43-34.78,22.17-54.69,6.09-25.58-7.38-44.55-16.64-63.16-14.41-29-17-57.87-16.5-88.86.75-44.5,9.74-87.28,29.53-126.5,11.46-22.69,28.5-43.53,46.52-61.74,35.41-35.77,78.44-60.42,126.4-76.15C280.59,11.55,378.35,10.12,444,40.51c38.39,17.77,71.89,50.29,98.88,82.32C580.2,167.13,600.68,229.1,603,291.37ZM46.7,515.92l2.48,3.52c18.44-4.19,37.42-6.12,55.3-12.5,18.26-6.51,36.25-15.94,56.19-10.27a84.28,84.28,0,0,1,13,5.28c68.93,32.55,147.35,56.6,224,40.64,67.41-14,120.3-61.83,146.25-124.81C566.74,362.3,569.47,299,555.24,241c-12.77-52.1-40-101.67-81.9-135.95A209.38,209.38,0,0,0,372.13,60.23c-53.89-8.16-128.9-10.47-178.33,16-23.85,12.76-49.73,24.38-69,42.57-38.19,36.15-67.24,79.31-73.54,133.88-3.15,27.39-9.19,54.61-9.09,82.29.06,15.3,1.87,30.88,7.55,45.18,5.56,14,15.35,26,22.67,39.12,4.54,8.13,8.1,17.34,8,26.78-.06,9.82-5.52,18.07-10.23,26.34C62.07,486.7,54.6,501.43,46.7,515.92Z"/><path class="cls-1" d="M357.63,547.53s211.37-16.25,206.28-255S579,301.2,579,301.2l3.74,66.87L530.38,473.53S469.76,528.16,466,530.4s-50.36,17.29-50.36,17.29l-48.41,12.64Z"/><path class="cls-1" d="M78.3,453.15c2.37-1.35,3.19-4.47,1.3-11C71,412.68,60,385.91,55.1,355.36c-4.56-28.54-11.58-62-5.81-90.86.5-2.54-9.6-3.94-9.6-3.94L29,294.23l5.89,37.9c9.88,40,21.36,79.91,27.8,120.64C68.79,453.48,75,455,78.3,453.15Z"/><circle class="cls-1" cx="313.39" cy="309.1" r="51.9"/><circle class="cls-1" cx="161.53" cy="309.1" r="36.7"/></svg>