<svg id="Layer_1" data-name="Layer 1" xmlns="http://www.w3.org/2000/svg" viewBox="0 0 432.38 421.63"><defs><style>.cls-1{fill:#fff;stroke:#fff;stroke-miterlimit:10;stroke-width:27px;}</style></defs><title>BIO ICONS</title><path class="cls-1" d="M413.72,118.54c-.16-46.2-31.66-83.73-75.45-84.88q-28.15-.73-56.33-.94V74.18l39.11,0c36.66.05,51.36,14.51,51.38,50.74q0,9,0,18h41.35Q413.76,130.73,413.72,118.54Z"/><path class="cls-1" d="M19.53,118.54C19.7,72.34,51.19,34.81,95,33.66q28.14-.73,56.32-.94V74.18l-39.11,0C75.55,74.26,60.84,88.72,60.82,125q0,9,0,18H19.46Q19.49,130.73,19.53,118.54Z"/><path class="cls-1" d="M412.84,303.09c-.16,46.19-31.66,83.73-75.45,84.88q-28.15.73-56.32.94V347.45l39.1,0c36.66-.05,51.37-14.52,51.39-50.75q0-9,0-18h41.35Q412.89,290.9,412.84,303.09Z"/><path class="cls-1" d="M18.66,303.09c.16,46.19,31.66,83.73,75.45,84.88q28.15.73,56.32.94V347.45l-39.1,0C74.67,347.37,60,332.9,59.94,296.67v-18H18.58Q18.63,290.9,18.66,303.09Z"/></svg>