<svg id="Layer_1" data-name="Layer 1"
  xmlns="http://www.w3.org/2000/svg" viewBox="0 0 648.39 543.38">
  <defs>
    <style>.cls-1{fill:currentColor;stroke:currentColor;stroke-miterlimit:10;stroke-width:12px;}</style>
  </defs>
  <title>BIO ICONS</title>
  <path class="cls-1" d="M212.21,402.39c20.2-24.64,39.19-47.56,57.92-70.68C329.88,257.94,397.9,192.09,466.67,127c24.34-23,49.9-44.89,76.1-65.78,28.51-22.72,65.42-6.36,75,27.2,7.18,25.28-8,45-26.6,60.21-74.19,60.85-141.93,129-207.42,199.24C346,388.41,312.57,433,277.09,475.59c-11.09,13.34-22.63,26.09-38.93,33.73-15.66,7.35-31.41,7.88-45.91-.51a201.47,201.47,0,0,1-36.36-27.24C119.24,447.2,83.61,411.75,47,377.33c-21.08-19.82-24.5-49-6.72-69.59,18.23-21.12,47.17-23.2,69.37-3.17,32.15,29,63.27,59.19,94.78,88.93C206.94,395.85,209,398.67,212.21,402.39Z"/>
</svg>