<svg id="Layer_1" data-name="Layer 1" xmlns="http://www.w3.org/2000/svg" viewBox="0 0 666.88 412.49"><defs><style>.cls-1{fill:#5c5c5c;stroke:#5c5c5c;stroke-miterlimit:10;stroke-width:8px;}</style></defs><title>BIO ICONS</title><path class="cls-1" d="M329.7,395.69c-20.38.4-33.18-12.07-45.85-24.81q-41.1-41.36-82.26-82.63-41-41-82.16-81.88c-31.76-31.72-63.88-63.1-95-95.41C7.4,93.34,3,66.84,17.1,42.69c16-27.42,49.26-34.09,72.68-25,10.38,4.05,18.23,11.82,26,19.59q50,50.14,100.15,100.21,34.14,34.18,68.23,68.41c15.18,15.17,30.55,30.15,45.64,45.41,3.65,3.69,6.12,3.32,9.6-.17Q412.93,177.49,486.63,104c25.53-25.49,51-51.06,76.7-76.36,18.45-18.16,51.7-17,69.3-4.94,18.11,12.46,26.85,29.39,27.06,50.45.14,15-6,28.3-16.91,39.17-16.23,16.23-32.17,32.75-48.39,49-13,13-26.41,25.74-39.43,38.79-15.9,15.93-31.51,32.14-47.38,48.09-13,13.07-26.29,25.88-39.35,38.9-12.16,12.11-24.15,24.37-36.27,36.51q-19.79,19.8-39.69,39.48c-4.55,4.53-9.3,8.9-13.65,13.63C365.24,391.24,349,398.21,329.7,395.69Z"/></svg>