<svg id="Layer_1" data-name="Layer 1" xmlns="http://www.w3.org/2000/svg" viewBox="0 0 527.11 511.53"><defs><style>.cls-1{fill:#5c5c5c;}</style></defs><title>BIO ICONS</title><path class="cls-1" d="M440.12,207.2c-5.55-12.93-11.58-25.66-19.82-37.12-9.37-11.76-19.12-23.21-29.5-34.1s-20.57-21.71-32.1-31.22A265.82,265.82,0,0,0,334.57,90a31.87,31.87,0,0,1-4-2.67c-.75.86-1.51,1.7-2.3,2.5A43.87,43.87,0,0,1,317,98q-45.88,46.43-91.91,92.72Q175,241.11,124.8,291.46c-19.68,19.63-39.73,38.89-59.56,58.37-4.13,4.06-8.16,8.25-12,12.58-6.84,7.72-8.88,17.42-11.1,27,25.51,3.47,48.49,10.51,66.49,30.48,17.69,19.6,27.75,41.31,25.71,68.28,4.78-.27,8.87-.56,13-.73a42.23,42.23,0,0,0,29.35-13.07c20.14-20.4,40.56-40.52,60.78-60.85q60-60.33,120-120.75Q399.1,250.83,440.86,209C440.62,208.38,440.37,207.79,440.12,207.2Z"/><path class="cls-1" d="M526.22,120.89c-1.19-12.37-4.4-24.27-8.5-36-2-5.67-3.55-11.44-8.17-15.88-16.06-15.39-31.93-31-47.94-46.4a12.27,12.27,0,0,0-4.87-2.88c-12-3.45-24.13-6.36-36-10.22-6-2-10.68-.91-14.94,3Q392,25.15,378.49,38.14A223.76,223.76,0,0,1,414,64.37a488.9,488.9,0,0,1,34.9,36.07c12.49,14.11,25.51,28.85,35.21,45,2.69,4.48,5.13,9.1,7.42,13.8q8.55-8.06,17-16.22c5.84-5.72,11.3-11.82,16.74-17.92A6.15,6.15,0,0,0,526.22,120.89Z"/><path class="cls-1" d="M37.51,411.57a1.77,1.77,0,0,0-.36.66c-6.39,17.84-12.77,35.7-16.38,54.35-1.53,7.89-2.76,16.12-2.07,24.18.45,5.23,1.9,11.59,7,14.2,9.09,4.62,19.1,5,29.25,4.43a177.38,177.38,0,0,0,22.61-2.89q8.73-1.63,17.42-3.39c3-.61,5.93-1.25,8.89-1.88,5.42-1.17,8.4-3,8.94-8.88.74-8.15-.26-15.94-1-24A47,47,0,0,0,109,457,56.48,56.48,0,0,0,93.8,434.51a78.08,78.08,0,0,0-22.12-13.79A118.5,118.5,0,0,0,56,415.36c-5.77-1.55-11.55-3-17.45-4a1.37,1.37,0,0,0-.92.06Z"/><path class="cls-1" d="M365.91,51.21l39.91-38.68S412.73,7.2,418.6,9c-3.65-.36,40.91,9,43,13.69l49.65,48.28s13,19.66,15,51.66c-1,2.55-49,50.21-49,50.21l-23.86-46-52-52.92Z"/><polyline class="cls-1" points="309.35 105.73 338.13 76.77 390.7 102.33 435.7 151.34 449.45 201.59 434.62 215.25 395.2 181.09 334.45 121.83 309.35 107.58"/><polygon class="cls-1" points="362.45 53.84 412.95 4.83 459.45 15.84 513.45 67.83 531.45 126.83 479.45 177.34 453.35 126.79 404.17 76.77 362.45 53.84"/></svg>