<svg id="Layer_1" data-name="Layer 1" xmlns="http://www.w3.org/2000/svg" viewBox="0 0 563.8 563.8"><defs><style>.cls-1{fill:#fff;}</style></defs><title>BIO ICONS</title><path class="cls-1" d="M259.21,551.41h-177c-37.33,0-69.71-32.31-69.71-69.6q0-177.21,0-354.42c0-37.95,32.17-70.1,70.12-70.1q99.27,0,198.54,0c12.89,0,22.82,9.17,23.3,21.3a22.34,22.34,0,0,1-22.36,23.58c-15.27.13-30.54,0-45.82,0H83.14c-1.8,0-3.6,0-5.39.05-13,.48-19.71,7.22-20.25,20.26-.07,1.8,0,3.6,0,5.39q0,176.76,0,353.52c0,19,6,25.07,24.95,25.07l354,0h3.14c15.25-.17,22.2-7.08,22.21-22.43q.06-100.39,0-200.79c0-11.11,5.86-19.67,15.5-22.78a22.41,22.41,0,0,1,29.36,20.78c.23,10.18.06,20.36.06,30.54q0,84.68,0,169.35c0,38.17-32.16,70.25-70.44,70.26h-177Z"/><path class="cls-1" d="M442,12.39A112.29,112.29,0,0,1,479.87,24c37.29,19.46,61.33,49.23,70.48,90.68,2.58,11.73-.08,20.9-8.81,29.59Q415.15,270,289.4,396.48c-12.7,12.8-26.65,20.7-44.41,23.79-31.07,5.41-61.92,12.12-92.86,18.26-16.53,3.29-30-10.36-26.71-27q10.42-52.12,20.86-104.24a46.6,46.6,0,0,1,12.91-24.2Q290.8,151.43,422.47,19.79C427.38,14.87,433.13,12.22,442,12.39ZM175.91,388c22.47-4.5,44.13-9,65.85-13.1a21.53,21.53,0,0,0,11.82-6.4Q339.68,282.15,426,196q37.95-38,76-75.83c2.5-2.49,3-4.59,2-7.84-8-26.76-25.34-44.11-52-52.29-3.67-1.13-5.89-.3-8.56,2.37Q319.12,186.85,194.68,311.09a17.6,17.6,0,0,0-5.5,10.33c-.93,6.35-2.48,12.61-3.74,18.92C182.3,356,179.18,371.64,175.91,388Z"/></svg>