<svg id="Layer_1" data-name="Layer 1"
  xmlns="http://www.w3.org/2000/svg" viewBox="0 0 616.39 616.39">
  <defs>
    <style>.cls-1{fill:currentColor;stroke-width:6px;}.cls-1,.cls-2{stroke:currentColor;stroke-miterlimit:10;}.cls-2{fill:none;stroke-width:8px;}</style>
  </defs>
  <title>BIO ICONS</title>
  <path class="cls-1" d="M583.55,83.38c-4.73-3.09-10.84-4.75-16.54-5.56-19.12-2.73-38.33-4.92-57.53-7.08q-28.2-3.18-56.47-5.85c-17.51-1.67-35.05-3-52.58-4.55q-34.92-3-69.85-6C309.3,52.54,288,50.81,266.74,49c-13.11-1.13-26.2-2.49-39.31-3.54-14.06-1.13-28.15-1.9-42.2-3.07-6.82-.56-13.59-1.69-20-2.51-13.94,0-25.59,10.72-26.24,24.35q-1.75,36.44-2.95,72.91c-.75,23.52-1.18,47-1.62,70.56-.06,2.9-.87,4.09-3.88,4.12-3.48,0-7,.54-10.43.87-18.84,1.83-37.69,3.57-56.51,5.56-6.51.68-13.16,1.31-19.4,3.15-15.79,4.65-22.72,17.08-19,33,9.59,41.71,19.38,83.37,28.77,125.13,7.94,35.34,15.27,70.83,23.18,106.18,4.43,19.77,9.09,39.5,14.39,59,3.69,13.59,11.48,18,25.48,16.38,14.27-1.6,28.56-3,42.84-4.49,16.7-1.69,33.4-3.29,50.1-5q23-2.34,46.05-4.81c14.28-1.51,28.55-3.15,42.83-4.56,6.78-.67,13.45-1.6,20.39.18,26.65,6.82,53.26,13.92,80.17,19.51s54.41,9.73,81.68,14.21c13.35,2.19,25.95-7.77,28.13-21.26,2.73-17,5.71-33.87,8.62-50.79,2.71-15.74,5.59-31.44,8.16-47.2,3.72-22.77,7.17-45.59,10.83-68.37,4.43-27.55,8.79-55.12,13.49-82.62,4.25-24.86,8.31-49.78,13.53-74.45,8.62-40.82,18.09-81.46,27.23-122.16C593.29,99.29,593,89.56,583.55,83.38ZM96,373.66c-.65,1.1-1.48,2.09-3,4.14C83.68,337,74.54,297.2,65.29,257l21.5-2.14q34.86-3.53,69.71-7.05c15-1.48,29.94-2.79,44.9-4.27,19.37-1.93,38.73-3.95,58.09-5.94,12-1.24,24-2.44,36-3.79,2.63-.3,3.29.95,3.54,3.11.93,8.13,1.92,16.25,2.88,24.38,2.06,17.58,4,35.18,6.22,52.74,1,8.12,2.63,16.16,3.62,24.27a6.4,6.4,0,0,1-2,5Q278,367.5,246.06,391.41c-6.55,4.92-9.27,5-16,.4Q190.17,364.5,150.3,337.1c-5.65-3.86-11.61-7.28-17.23-11.18-3.33-2.32-5.77-1.65-7.81,1.41-6.32,9.5-12.66,19-18.78,28.62C102.8,361.73,99.53,367.76,96,373.66ZM335.13,500c-6.76.64-13.15,1.22-19.54,1.87-9.83,1-19.66,2.12-29.49,3.13-22.69,2.33-45.39,4.6-68.08,6.95-19,2-37.91,4-56.87,6-11.33,1.19-22.67,2.43-34,3.4-.91.08-2.63-1.64-2.9-2.77q-7.36-31.54-14.44-63.16c-2.12-9.42-4.28-18.83-6-28.33a13.69,13.69,0,0,1,1.08-8c8.11-16.34,16.55-32.51,24.81-48.78,3.09-6.08,5.82-7.12,11.84-3.41,19.66,12.12,39.23,24.4,58.82,36.63q20,12.46,39.93,25c6.51,4.07,8.34,3.73,13.32-1.95,13.72-15.65,27.62-31.15,41.22-46.91,4-4.63,8.2-6.16,14.19-4.68,8.68,2.14,8.66,1.87,9.94,10.66,3.68,25.22,7.46,50.42,11.17,75.64q2.58,17.49,5,35A32,32,0,0,1,335.13,500ZM506.78,337.84c-2.84,14.38-6,28.71-8.39,43.17-2.51,14.92-4,30-6.48,44.95-4.39,26.73-9.18,53.38-13.74,80.08q-2.24,13.09-4.19,26.23c-.36,2.45-1.15,3.46-3.87,3.06-25.74-3.8-51.55-7.18-76.68-14.3a76.27,76.27,0,0,0-12.15-2.69c-3.8-.43-4.79-2.52-5.22-5.77q-2.7-20.15-5.59-40.26-4.25-29.47-8.6-58.93-5.46-37.23-10.93-74.45c-1.14-7.7-2.65-15.34-3.45-23.07-.53-5.16-.1-10.43-.1-16.14,10.05,9.34,20,18.9,30.29,28,9.12,8.08,18.67,15.69,28,23.52a47.11,47.11,0,0,1,4.12,3.74c4,4.3,8.68,5.75,14.56,4.29,6.92-1.71,12.7-5.3,18.79-8.81,10-5.79,20.86-10.21,31.31-15.29,11.06-5.37,22.08-10.83,33.11-16.26.81-.4,1.58-.85,3.38-1.83C509.44,324.65,508.08,331.24,506.78,337.84Zm7.35-41.42c.14-1.39-4.63-1-5.34-.93-3.46.17-5.59,1.74-8.57,3.47-16.76,9.75-34.93,17.45-52.51,25.6-8,3.72-18.37,10.47-26.9,3.95a267.28,267.28,0,0,1-29.89-26.25c-10.44-10.75-22.44-20-33.79-29.85-4.45-3.87-9.2-7.44-13.37-11.59a13.23,13.23,0,0,1-3.23-6.94c-2.37-14.65-3.84-29.47-8.85-43.6-3.84-10.85-12.43-15.34-22.89-16.11-6.59-.49-13.33,1-20,1.62q-18.63,1.86-37.25,3.8c-14.42,1.47-28.84,3-43.26,4.44-11.47,1.16-22.95,2.28-35.32,3.51,1.05-42.65,2.09-84.62,3.15-127.61,125.32,11.41,250,19.37,374.79,34.37C538.63,175,520.16,234.12,514.13,296.42Z"/>
  <path class="cls-1" d="M442.22,255.86c-22.13,1.79-43.33-16.16-47.69-34.64-4.19-17.8-.38-33.42,13.37-46.22a48.84,48.84,0,0,1,34.87-13.44c22.92.23,43.63,14.49,48.37,38.15,3.46,17.27-1.63,32.21-15.22,44C466.18,252.23,455.15,256.54,442.22,255.86Zm0-22.58c9.55.5,16.92-3.55,22.72-10.87,6.45-8.15,5.84-21.8-1.67-29.18s-16.36-10.31-26.89-8.4c-14.51,2.64-24.14,17.52-19.86,31.13C419.06,224.11,430.21,234.59,442.2,233.28Z"/>
  <path class="cls-2" d="M442.2,233.27c-12,1.32-23.14-9.16-25.7-17.31-4.28-13.61,5.35-28.49,19.86-31.13,10.53-1.91,19.34,1,26.89,8.4s8.12,21,1.67,29.18C459.12,229.73,451.75,233.78,442.2,233.27Z"/>
</svg>