<svg id="Layer_1" data-name="Layer 1" xmlns="http://www.w3.org/2000/svg" viewBox="0 0 580.23 532.23"><defs><style>.cls-1{fill:#5c5c5c;stroke:#5c5c5c;stroke-miterlimit:10;stroke-width:8px;}</style></defs><title>BIO ICONS</title><path class="cls-1" d="M249.55,433v38.62H217.86c-7.88,0-7.88,0-7.89,8.05,0,9.18-.11,18.37,0,27.56.05,3.24-1,4.54-4.35,4.5q-15-.21-29.91,0c-3.43,0-4.32-1.5-4.28-4.62.11-9.77-.14-19.55.12-29.32.11-4.4-1.49-5.83-5.78-5.73-9.37.2-18.76-.13-28.14.09-4.42.11-6.31-1.08-6.16-5.9.31-10.7.1-21.41.1-32.75H170.5c0-8.91.37-17.24-.32-25.47-.13-1.56-4.3-3.5-6.86-4-21-4.32-41-11-59.45-22-41.52-24.82-68-61.17-81.3-107.38a154.38,154.38,0,0,1-5.47-55.05C22.91,145.4,68.89,86.38,134.81,63.48c48.36-16.81,95.5-12.56,141,10.47,5.35,2.7,9.38,3.19,14.94.28,26.49-13.85,54.7-21.48,84.77-20.8,31.39.71,60.75,8.73,87.59,25.33,1.49.91,3,1.78,4.45,2.64l31.72-32.06L474.55,26.08l1.08-1.59h80v81.58L530.72,78.7c-9.73,10-18.22,18.55-26.41,27.39-.77.84-.23,4,.76,5.2,17.89,21.39,31.33,45.21,38.54,72.19a171.21,171.21,0,0,1,4.53,67.78c-6,44.59-25.2,82-59,111.66-26.33,23.06-56.91,37.24-91.74,41.74-39.08,5-76.12-.8-110.51-20.87a8.05,8.05,0,0,0-6.72.11,188.83,188.83,0,0,1-56.47,20,42.12,42.12,0,0,1-5.21.73c-8.47.47-8.48.44-8.48,9.21,0,4.69.2,9.4-.06,14.07-.21,3.89,1.39,5.19,5.11,5.13,9.19-.13,18.37,0,27.56,0ZM193.5,103.26c-68.41.13-126.81,55.54-126.59,127.23a126.76,126.76,0,1,0,253.52-1C320.13,157.24,261.43,103.38,193.5,103.26ZM327.32,347c42.4,20.94,108.11,8.87,145-38.57C512.44,257,508.19,185.17,462.18,140,419.4,98,360.26,96.3,327.83,113.1Q413.78,230.39,327.32,347Z"/></svg>