<svg id="Layer_1" data-name="Layer 1" xmlns="http://www.w3.org/2000/svg" viewBox="0 0 482.28 482.28"><defs><style>.cls-1{fill:#01ea00;}.cls-2{fill:#fff;}.cls-3{fill:none;}.cls-4{fill:#0072f9;}.cls-5{fill:#00e901;}</style></defs><title>BIO ICONS</title><ellipse class="cls-1" cx="67.55" cy="160.65" rx="43.85" ry="0.36"/><path class="cls-2" d="M46.56,203.06v44h-.47V202.89Z"/><path class="cls-3" d="M46.09,248.65h.47v-44l-.47-.17Z"/><circle class="cls-4" cx="241.45" cy="243.32" r="228.3"/><path class="cls-1" d="M189.7,53.78c-3.78-9.87-6.63-20-9.44-30.19q-9.72,2.75-19.38,6.4C86,58.36,26.41,126.35,15.76,212.88a10.73,10.73,0,0,1,6.59,2.75c.09-.55.18-1.09.25-1.64,1.24-10.05,2.5-19.89,7.93-28.78,1.18-1.93,1.38-4.53,1.82-6.86a13.12,13.12,0,0,1,13.36-11c15.26,0,30.53-.56,45.75.22,10.12.52,17.7-4.25,25.61-9,.56-.33.9-1,1.38-1.52,3.94-4,7.2-9.54,12-11.72,10.19-4.63,15.84-14.12,24.46-20.36,8.28-6,15.6-13.41,22.86-20.69,3.89-3.89,7.92-7.94,7.57-14.6-.5-9.33,0-18.71-.19-28.06C185.06,57.76,186.74,54.92,189.7,53.78Z"/><path class="cls-1" d="M429,330.94c-1.16,7.45-2.22,14.92-3.68,22.31-2.32,11.75-4.93,23.43-7.23,34.28,59.27-69.76,72.93-182.37,12.46-272.39A231.15,231.15,0,0,0,360.6,47.63c-4.27,4.85-8.65,9.6-13.22,14.19A10.72,10.72,0,0,1,343,64.58a5.24,5.24,0,0,1-.9,2.41c-2.43,3-5.54,5.47-8.17,8.34-2.17,2.37-4.53,4.76-5.94,7.57a202.32,202.32,0,0,0-9,20.15,192.19,192.19,0,0,0-5.78,19.59c-.89,3.47-1.77,7.2-1.4,10.67.8,7.49,1.72,15.1,3.82,22.29,4.16,14.21,11.14,27.07,21.76,37.59,10.21,10.11,20.22,20.73,35.65,22.75.32,0,.79.24.87.47,1.51,4.67,5.55,3.26,8.76,3.52,3,.25,6.14,0,9.21,0l0,.52-3.65.91.1.86H416.7c0,.32,0,.64,0,.95h-20.2c5,.94,10,.86,15,1s9,3.11,9.73,6.66c1.5,7.31,3.26,14.57,4.91,21.85h.44v-12.4c.92,15.42,2.2,32.25,2.85,49.1.45,11.94.06,23.92,0,35.87A38.61,38.61,0,0,1,429,330.94Z"/><path class="cls-1" d="M177.94,60.6c0,5.69.13,11.39,0,17.07-.17,5.47-.65,10.93-1,16.56C181.21,83.27,177.61,71.75,177.94,60.6Z"/><path class="cls-1" d="M180.85,54.35l-.55-.17V87.81h.55Z"/><path class="cls-1" d="M433.49,286.4l-.54-.06v27.37h.54Z"/><ellipse class="cls-2" cx="112.86" cy="380.58" rx="0.38" ry="55.65"/><ellipse class="cls-2" cx="280.31" cy="283.87" rx="0.33" ry="23.18"/><ellipse class="cls-3" cx="112.86" cy="382.13" rx="0.38" ry="55.65"/><ellipse class="cls-3" cx="280.31" cy="285.42" rx="0.33" ry="23.18"/><ellipse class="cls-3" cx="95.64" cy="194.45" rx="55.62" ry="0.33"/><path class="cls-3" d="M249.23,464.54H212.5l.23.57h36.5Z"/><path class="cls-3" d="M242.66,466.71v.37h22.25v-.37Z"/><path class="cls-5" d="M283.89,266.45c0-5.78-4-11.89-9.55-13.23-8.11-1.95-16.41-3.08-24.65-4.49a89.71,89.71,0,0,0-10.17-1.39c-11.29-.59-20-9.77-31.65-9.15-.33,0-.91,0-1-.21-1.93-5.25-6.86-3.31-9.47-3.88-.69-1.74-.77-2.92-1.4-3.36-4.09-2.9-8.05-7.39-12.54-8.05-9-1.32-12.57-9.75-20-12.75-1.79-.73-3.44-1.8-5.19-2.64-3.34-1.59-9.14-2.61-9.62-4.79-1.47-6.76-6.15-5.3-11-5.67L141,195.2l.12-1.45c-5.08-1-10.15-2.79-15.24-2.86-21.14-.33-42.28-.19-63.42-.13-13.29,0-20.85,7.12-21,20-.14,11.13.07,22.27.24,33.4.09,5.14.64,10.28.68,15.42.1,12.83,0,25.66,0,38.49h1.22V206.47a12.32,12.32,0,0,1,1,6.05c0,28.23-.14,56.47.14,84.71,0,4.09-3.1,10.13,4.36,11.82.73,5.87,6.17,6.56,10.07,8.38q21.71,10.15,43.83,19.4c4.84,2,6.32,4.87,6.26,9.82-.22,20.15-.12,40.29-.14,60.44,0,3.27.12,6.55-.09,9.81-.17,2.74-1.63,3.83-4.14,2l7.62,14.57a234.38,234.38,0,0,0,48.8,24.19,10.45,10.45,0,0,1-1.08-4.57,10.63,10.63,0,0,1,3-7.29c-.61-1-.4-2.35.29-4a53.13,53.13,0,0,0,1.78-5.52c2.15-.84,4.43-1.07,5.65-2.32,8-8.21,15.76-16.71,23.79-24.92,2.33-2.38,5.56-3.89,7.92-6.24,3.25-3.26,6-7,9.09-10.42,3.64-4,7.54-7.81,11.08-11.9,1.42-1.64,1.77-4.3,3.34-5.69,7.46-6.62,15.16-13,22.81-19.41,6.35-5.35,9.9-13.79,18.56-16.61.55-.18.91-1,1.34-1.5,3.66-4.47,7-9.28,11.09-13.31a11.56,11.56,0,0,0,3.94-9C283.88,298.82,284,282.64,283.89,266.45Z"/><line class="cls-5" x1="112.59" y1="435.03" x2="104.97" y2="420.38"/><ellipse class="cls-5" cx="280.31" cy="285.42" rx="0.33" ry="23.18"/><ellipse class="cls-5" cx="112.86" cy="382.13" rx="0.38" ry="55.65"/><ellipse class="cls-5" cx="95.64" cy="194.45" rx="55.62" ry="0.33"/></svg>