<svg id="Layer_1" data-name="Layer 1"
  xmlns="http://www.w3.org/2000/svg" viewBox="0 0 632.39 573.63">
  <defs>
    <style>.cls-1{fill:currentColor;}.cls-2{fill:none;}</style>
  </defs>
  <title>BIO ICONS</title>
  <path class="cls-1" d="M361.35,43.1C391.52,21.57,435.74,15.91,471,26.73c48.87,15,85.8,57.24,107.62,102,17.29,35.41,26.88,75.13,23.57,114.4-4.78,56.67-35.82,108.22-74.12,150.26C471.52,455.41,403.45,513.67,326.1,547.09q-4.77,2.05-9.58,4c-17.1,7-45.57-20-59.34-29.64a751.28,751.28,0,0,1-59.87-46.33A752.41,752.41,0,0,1,93,365.66c-28.26-36.4-56.78-81.37-62.3-128.1C25.1,190.25,41.16,134.27,68.61,95.93,94.1,60.31,138.2,34.25,181.76,29.37c23.1-2.58,47.32,1.45,67.07,13.74,12.11,7.54-22.48,42.43-28,51.21-12.95,20.52-23.22,42.83-29,66.45-16.1,65.71,8.5,147.72,78.57,170a110.91,110.91,0,0,0,85.77-8.29c54.42-29.79,72.32-97.21,60.85-154.82-5.18-26-15.4-50.72-27.73-74.13-2-3.79-27.37-50.84-28.6-49.95Z"/>
  <path class="cls-1" d="M304.26,83.57c6,2.32,17.54,15.14,21.22,20.29a185.48,185.48,0,0,1,33.63,89.38c1.45,15,1,30.46-4.45,44.49a52,52,0,0,1-38.73,32.65c-25.23,5.1-47.22-7.55-58.86-29.57A91.06,91.06,0,0,1,246.71,194c1.24-24.36,12.19-47.1,24.16-68.34a179.91,179.91,0,0,1,16.51-25C291,96.17,301.75,81,308.49,83.07,308.59,83.1,304.16,83.53,304.26,83.57Z"/>
  <path class="cls-2" d="M364.19,299.43l-96-52"/>
</svg>