<svg id="Layer_1" data-name="Layer 1" xmlns="http://www.w3.org/2000/svg" viewBox="0 0 596.38 596.38"><defs><style>.cls-1{fill:#5c5c5c;stroke:#5c5c5c;stroke-miterlimit:10;stroke-width:2px;}</style></defs><title>BIO ICONS</title><path class="cls-1" d="M7.55,299.17C6.38,139.2,135.6,8.49,296.11,7.61s292.6,126.62,292.72,291.51c.12,158.15-127,288.34-288.41,289.64C138.49,590.07,8.75,461.62,7.55,299.17Zm534.08.27C541,162.36,431.68,55.35,298.6,55.13,164.35,54.9,58.46,162.88,55,290.26,51,432.62,166.47,541.7,298.37,541.42,429.59,541.15,540.44,435.13,541.63,299.44Z"/><path class="cls-1" d="M293.19,373.08c-7.1,0-14.22.15-21.31-.14-1.38-.05-3.86-1.81-3.87-2.8-.08-16.26.53-32.66,11-46.16,6.19-8,14.09-14.59,20.93-22.09,9.85-10.82,20.27-21.27,28.92-33,10.49-14.22,12.88-31,8.7-48.07-3.91-16-14.91-25.34-31.07-28.12a53.17,53.17,0,0,0-29.07,2.7c-12.8,5.09-20.57,14.32-21.65,28.26-.37,4.81-2.35,5.79-6.68,5.7q-18.4-.36-36.81,0c-4.65.09-6.29-1.45-6.19-6.12.62-29.65,15-50.45,41.14-63.26,22.83-11.19,47.18-12.17,71.93-8.94,19.1,2.5,35.23,11,48.94,24.3,19.64,19.12,23.89,43.26,21.62,69.09-2.31,26.35-17,46.54-34.63,64.81-6,6.24-12.71,11.89-19.3,17.57-11.86,10.23-17.9,22.9-17.46,38.72.21,7.54-.13,7.56-7.71,7.57H293.19Z"/><path class="cls-1" d="M293.64,410.29c6.93,0,13.86.12,20.79-.05,3.24-.08,4.55.81,4.49,4.36q-.3,19.57,0,39.17c.07,4.07-1.34,5.22-5.3,5.16q-20.79-.3-41.59,0c-3.47.05-4.38-1.09-4.35-4.39q.21-20.07,0-40.14c0-3.21,1.12-4.23,4.2-4.17C279.13,410.39,286.38,410.29,293.64,410.29Z"/></svg>