<svg id="Layer_1" data-name="Layer 1" xmlns="http://www.w3.org/2000/svg" viewBox="0 0 541.38 431.47">
<defs>
<style>.cls-1{fill:currentColor;stroke:currentColor;stroke-miterlimit:10;stroke-width:7px;}</style>
</defs>
<title>BIO ICONS</title>
<path fill="currentColor" class="cls-1" d="M9.14,320c0-28.15.09-56.29-.05-84.43-.05-11.73,4.58-21,13.45-28.37q42.06-34.89,84.13-69.77,42.77-35.53,85.49-71.12,30.08-25,60.22-49.94c6.79-5.61,14.27-10.09,23.45-7.18A38.76,38.76,0,0,1,288.48,16q52.11,42.9,103.89,86.19Q446,146.85,499.7,191.47c6.49,5.39,13.09,10.65,19.53,16.09,8.59,7.24,13,16.4,13,27.8q-.12,85.39.06,170.78a9.79,9.79,0,0,1-4.34,8.75c-9,6.55-18.6,10.84-30,6.73-9.74-3.52-13.16-9.1-13-19.35q.88-67.33,1.42-134.66c.08-11.87-5.74-21.43-14.34-29s-17.86-14.48-26.77-21.76Q359.56,146.83,274,76.73c-2.66-2.18-4.28-1.89-6.76.15q-62.28,51-124.7,101.93c-22.49,18.32-45.18,36.4-67.69,54.71-7.9,6.43-15,13.68-18,23.79A40.82,40.82,0,0,0,55,268.58c-.14,32.23-.21,64.47,0,96.71.08,12.65.89,25.3,1.46,37.95.44,9.65-5.24,16.81-15.42,19.17-11.95,2.76-21.51-2.14-30-9.83-1.32-1.21-1.82-3.89-1.83-5.89-.11-28.91-.08-57.82-.08-86.73Z"/></svg>