<svg id="Layer_1" data-name="Layer 1" xmlns="http://www.w3.org/2000/svg" viewBox="0 0 822 814"><defs><style>.cls-1{fill:none;stroke:#565151;stroke-miterlimit:10;stroke-width:42px;}</style></defs><title>new navigation icon</title><path class="cls-1" d="M708.23,597.57c15.44-3.6,30.52-8.23,43.9-17.1,8.83-5.85,16.39-13.07,18.57-23.84,4.35-21.4,1.88-41.49-13.55-58.37a112.14,112.14,0,0,0-11.83-11.34c-22-17.86-47.45-29.22-73.37-39.84-10.93-4.48-21.88-9-32.37-14.44-12.39-6.39-18.89-20.22-17.11-33.85,1.83-14.12,10.26-23.17,18.53-34,9.31-12.24,17.46-25.13,23.45-39.32,13.88-32.87,19.27-66.78,11.17-102-7.47-32.44-25.34-56.88-56.76-70a104.13,104.13,0,0,0-33.13-7.69"/><path class="cls-1" d="M400.18,738.81c27.2-.63,54.59-3.33,81.63-4.31,36.92-1.34,74-4.08,110-12.49,22.09-5.15,43.68-11.77,62.83-24.47,12.63-8.37,23.44-18.71,26.57-34.12,6.22-30.62,2.69-59.39-19.4-83.54a159.22,159.22,0,0,0-16.93-16.23c-31.41-25.55-67.91-41.81-105-57-15.65-6.41-31.32-12.94-46.33-20.68-17.73-9.13-27-28.92-24.49-48.43,2.63-20.22,14.68-33.17,26.53-48.73,13.33-17.5,25-36,33.55-56.27,19.87-47,27.58-95.56,16-145.93C534.48,140.17,508.91,105.2,464,86.48c-28-11.67-57.4-13.64-87.15-9.31-58.45,8.51-98.06,40.58-116,97-14.32,45.18-11.06,90.74,3.4,135.37,6.57,20.29,16,39.48,27.08,57.68,9.87,16.22,23.25,30.13,32,47.07,13,25.19,11.3,54.34-15.22,69.33a86,86,0,0,1-12.91,6.2c-31.59,11.48-61.05,27.3-90.1,43.94-24.39,14-48.37,28.49-67.46,49.67-16.83,18.67-22.67,40.95-20,65.3,2.79,25.46,19,41.82,40.42,53.39,33.36,18,71.19,25.6,108.66,28.72q35.19,2.93,70.45,5c12.29.72,24.52,2.27,36.83,2.78C382.67,739,391.41,739,400.18,738.81Z"/><path class="cls-1" d="M93.16,597.57c-15.43-3.6-30.51-8.23-43.89-17.1-8.83-5.85-16.39-13.07-18.57-23.84-4.35-21.4-1.88-41.49,13.55-58.37a112.14,112.14,0,0,1,11.83-11.34c22-17.86,47.45-29.22,73.37-39.84,10.93-4.48,21.88-9,32.37-14.44,12.39-6.39,18.89-20.22,17.11-33.85-1.83-14.12-10.26-23.17-18.53-34-9.32-12.24-17.46-25.13-23.45-39.32-13.88-32.87-19.27-66.78-11.17-102,7.47-32.44,25.34-56.88,56.75-70a104.25,104.25,0,0,1,33.14-7.69"/></svg>