<svg id="Layer_1" data-name="Layer 1" xmlns="http://www.w3.org/2000/svg" viewBox="0 0 580.95 567.53"><defs><style>.cls-1{fill:#5c5c5c;stroke:#5c5c5c;stroke-miterlimit:10;stroke-width:2px;}</style></defs><title>BIO ICONS</title><path class="cls-1" d="M12.12,282.16c0-63.85.1-127.69,0-191.54C12,57.05,26.9,32.2,55.43,15.3A69.61,69.61,0,0,1,90.69,5.55q57.45-.39,114.91-.1c13.32.06,23.33,7.76,26.75,19.54,3.51,12.1-.6,24.37-11.76,30.88A34.83,34.83,0,0,1,204,60.1c-35.27.41-70.55.18-105.83.32-20.15.09-30.73,10.82-30.74,31.17q-.06,190.56,0,381.12c0,20,11,31.08,30.77,31.16,35.27.14,70.55,0,105.83.18,14.63.06,24.92,7.49,28.4,20,4.83,17.36-7.58,34.67-25.6,34.79-38.52.25-77.05.6-115.56-.11-42-.77-77.32-35.23-78.72-77.25-1.13-33.94-.41-67.94-.46-101.92Q12.07,330.86,12.12,282.16Z"/><path class="cls-1" d="M471.45,309.63H457.26q-124.62,0-249.23,0c-17.19,0-29.19-11.05-29.48-26.83-.26-14.6,9.91-26.27,24.4-27.82a92.57,92.57,0,0,1,9.72-.26q124.29,0,248.58,0h9.57a57.66,57.66,0,0,0-3.58-4.52q-42-42-84-83.89c-7.63-7.58-12.53-16.13-10.46-27.18,1.93-10.28,7.71-18,17.77-21.39,10.59-3.56,20.57-1.84,28.77,6.31q28.07,27.88,56,55.91,40.84,40.8,81.7,81.57c12.1,12.06,12.19,29.23.38,41q-66.84,66.66-133.55,133.44c-6,6.05-12.25,11.7-21.36,12.36-11.94.87-22-4.94-27.38-15.85-5.2-10.45-3.66-22,5.13-31.11,15.66-16.15,31.7-31.92,47.6-47.82q19-19,38.12-38C467.42,314,468.79,312.46,471.45,309.63Z"/></svg>