<svg id="Layer_1" data-name="Layer 1" xmlns="http://www.w3.org/2000/svg" viewBox="0 0 879.99 204.15"><defs><style>.cls-1{fill:#4c4b4c;}</style></defs><title>MEMOFAC LOGO</title><path class="cls-1" d="M274.69,153.94c-29.79.86-47.77-23.84-44.78-50,1.35-11.76,4.78-22.57,12.88-31.45C251.49,63,262.28,59.21,275,62.07,286,64.56,292.17,72.54,295.3,82.75c3.25,10.61-1.76,19.86-10.66,25.69a52.23,52.23,0,0,1-14.59,6.4c-6.62,1.85-12.86-.27-19.52-.82a4.32,4.32,0,0,0-2.67.4c-1.7,1.09-.6,6.15-.21,7.75a17.69,17.69,0,0,0,3.75,7.13,26.25,26.25,0,0,0,12.08,8c8.11,2.71,18.55,2.56,25.82-2.41,2.28-1.55,3.84-4.29,5.44-6.68a66.38,66.38,0,0,0,4-7.22c2-4,5.73-4.69,9-3.21s4.39,5,3.65,8.72a33.74,33.74,0,0,1-30.21,26.94C279,153.67,276.85,153.79,274.69,153.94ZM263.92,82.23c-5.8.09-10.55,4.34-10.49,9.38s5.11,9.09,10.87,9,10.63-4.35,10.5-9.34S269.65,82.14,263.92,82.23Z"/><path class="cls-1" d="M487.8,113.63c-.54,18.09-5.87,34.72-18.54,48.51-5,5.46-10.26,6.71-14,3.81s-3.64-8.43-.34-14.69c4-7.65,8.46-15.15,11.75-23.11,6.66-16.07,1.14-37.7-9.38-47.93-6.8-6.62-14.57-9-23.68-4.81-4.23,2-8.54,3.72-12.83,5.55-3.48,1.48-3.91,3.29-1.42,6.39a46.47,46.47,0,0,1,10.15,29.15c.1,7.77-2.37,14.79-10,18.16s-14.72,1.2-20.83-4.14c-12.47-10.89-14.67-26.47-5.24-41,2.71-4.19,1.73-6.15-1.9-8.21-9.29-5.28-18.91-6-28.74-1.81-6.77,2.92-8.86,9.15-10.2,15.65-4.36,21,3.79,37.74,18.32,52.16.94.93,2.35,1.55,2.94,2.65.71,1.31,1.44,3.27.93,4.38s-2.66,1.84-4,1.69c-8.16-.91-15.65-3.93-21.58-9.56-16-15.19-23-33.79-18.27-55.63,3.71-17.15,16.76-25.31,32.42-29.92,8.38-2.47,17.54-3.59,25.93-.56,4.51,1.63,8.07,4.35,11.6,7.49,4.25,3.79,9.85.46,13.89-1.84a142.75,142.75,0,0,1,17.62-8.93c6.86-2.71,14.46-4.2,21.65-2.54,12,2.77,20.42,13.45,25.39,24.12C484.4,89.18,488.15,102,487.8,113.63Zm-69.74-4.24c0-6.56-4.71-14.92-8.45-15.1-3.38-.16-8.93,7.67-8.88,12.54,0,5.48,5.53,11.76,10.24,11.74C415,118.56,418.08,114.56,418.06,109.39Z"/><path class="cls-1" d="M630.29,119.52c-4,1.74-6.38,2.76-8.74,3.82-4.28,1.92-12.52,1.69-14.56-2s3.16-8.89,7-11.31a46.81,46.81,0,0,1,8.51-4.14c3-1.11,3.49-2.7,2.79-5.73-3.25-14.12-5.78-28.3-4.71-42.95C621.48,45,625.47,34,633.54,24.94S651.05,8.48,662.77,4.72c7.89-2.54,14.1,2.74,13,10.54-.62,4.42-3.84,6.06-7.56,7.67-14,6.09-25.71,14.94-28,31.11-1.31,9.06-.24,18.47-.24,28.35,6.48-4.48,11.87-8.22,17.28-12,3.33-2.3,9.77-4,13.11-1.51s4.18,7.31,3.16,11.5-6.15,5.25-10.21,5.74c-8.6,1.06-18.08,14.61-16.55,23.16,3,17,4.46,34.15-.08,51a65.5,65.5,0,0,1-28.57,38.95,32.58,32.58,0,0,1-20.5,5c-5.65-.42-9.58-4.65-9.63-9.7a9.36,9.36,0,0,1,9.73-9.38c11.82.43,18.1-7.23,23.89-15.46a48.69,48.69,0,0,0,8.76-30.63C630.11,133.09,630.29,127.11,630.29,119.52Z"/><path class="cls-1" d="M501.46,112.47c-.58-26.21,20.16-48.32,46-48.7,24-.36,47,17.51,48,46.89,1,29.14-21.35,49-45.55,49.61C523.21,160.93,502.08,140.12,501.46,112.47Zm74.22,1c-.16-17.72-9.88-29.47-23.54-31.09-12.87-1.52-25.1,7.5-27.92,21.23-2.39,11.61.37,22,9.87,29.67,7.94,6.42,17.08,7.64,26.27,3.09C570.72,131.22,575.45,122.25,575.68,113.45Z"/><path class="cls-1" d="M704.87,78.88c-1.14.21-2.3.46-3.49.71a14.4,14.4,0,0,1-4.76.3c-1.89-.26-4-.53-4.92-2.46a6.93,6.93,0,0,1-.41-3.44,15.2,15.2,0,0,1,9.38-12.78,18.29,18.29,0,0,1,10.57-.27c18.62,4.52,34.94,18,45.54,33.58,8,11.8,12,25.65,9.27,40.38-2.29,12.31-9.49,19.39-22,21.37a74.6,74.6,0,0,1-45.65-6.87c-9-4.44-14.05-11.5-13.33-22,.27-4,.29-8,.75-12,1.88-16.28,10.53-24.4,26.77-27.75,2.3-.47,10.17-.73,9.8-4.51a3.54,3.54,0,0,0-1.88-2.6C715.19,77.54,710.28,77.86,704.87,78.88Zm19,21.8c-12.06.08-21.55,9-21.61,20.33-.06,11.57,9.5,20.87,21.57,21s21.84-9.25,21.9-20.69S736,100.6,723.88,100.68Z"/><path class="cls-1" d="M825.62,158.4c-18.47-.14-30.66-8.74-37.31-23.17-9.1-19.73-7.91-39.66,5.49-57.62,7-9.32,16-16,28.21-16.88,6.19-.43,11.81,2.52,12.49,6.15.82,4.42-3.89,9.41-10.39,11-15.18,3.73-24.63,16.39-24.14,32.33.47,15.57,10.51,27.57,25.51,30.05,5.87,1,11.53.15,16.63-3.5,4.52-3.24,8.75-2.49,11.81,1.63,2.77,3.75,2,7.89-2.88,11C842.82,154.58,834.05,158.58,825.62,158.4Z"/><path class="cls-1" d="M13.91,96.78C13.75,86.6,15.86,77,21.43,68.34a46.08,46.08,0,0,1,24.1-18.68c8.31-2.91,16.88-5.1,25.43-7.22A237.26,237.26,0,0,0,114.74,26.6c12.93-6,26.46-10.06,40.87-10,16.28,0,30.52,5.24,41.75,17.45,5.74,6.24,9.65,13.6,13,21.33a41.12,41.12,0,0,1,3.47,14.52c.27,6.53.81,13.07.58,19.59A85.27,85.27,0,0,1,211.65,108a94.19,94.19,0,0,1-9.14,23.62,13.94,13.94,0,0,1-3.14,3.7c-2.59,2.13-6.57.5-7.49-2.88s-.27-6.53.48-9.73c1.21-5.1,2.78-10.13,3.78-15.28a99.38,99.38,0,0,0,1.72-14.07c.19-3.78-.42-7.58-.56-11.38-.21-6.2-2-12-4.29-17.7-2.91-7.21-6.48-14.17-12.39-19.41-4.78-4.24-10.08-7.85-16.39-9.61-3.74-1.05-7.41-2.44-11.22-3.17-7.24-1.38-14,.31-20.38,3.93-3.92,2.24-4.07,6.08-.29,8.74,2.31,1.62,4.74,3.09,7,4.8a93.59,93.59,0,0,1,9.3,7.6c3.63,3.6,6.09,8.1,8.49,12.59a33.17,33.17,0,0,1,4.22,12.54,78,78,0,0,1-.05,11.13,36.73,36.73,0,0,1-1.19,6.79,27.53,27.53,0,0,1-1.6,3.51,34.88,34.88,0,0,1-8.66,12.18c-5.11,4.9-11.21,8.17-18.38,8.3-15.39.28-28.36-5-37.52-17.84-4.73-6.62-7.1-14.22-8.15-22.24a77.32,77.32,0,0,1-.09-18.62,16.83,16.83,0,0,0-.31-5.2c-.67-3.11-2.48-4.47-5.65-4.58a26,26,0,0,0-12.28,2.92C51.3,66.33,40.87,79,36.84,96.35c-2.89,12.48-.53,24.52,5.44,35.81A78.46,78.46,0,0,0,60.7,155a62.52,62.52,0,0,0,25,13.16c3.43.91,6.78,2.2,10.26,2.85,7.19,1.34,14.33,3.15,21.76,2.85a14.44,14.44,0,0,1,5.25,1.21,3.22,3.22,0,0,1,2,4.3c-.86,2.66-2.46,4.64-6,4.75-7.27.22-14.62.88-21.8.09a88,88,0,0,1-21.39-4.55A125.9,125.9,0,0,1,55.19,170c-7-4.22-12.8-9.93-18.43-15.79-9.42-9.79-15.22-21.64-19.38-34.4A80.22,80.22,0,0,1,13.91,96.78ZM102.07,78.2c0,9.06,2.39,16.82,8.48,23.16,3.43,3.58,7.5,6.41,12.39,7.24A20.53,20.53,0,0,0,140.19,104c2.94-2.47,5.28-5.24,5.92-9.13a62.46,62.46,0,0,0,.89-7.19,18.47,18.47,0,0,0-2.68-11.34,48.43,48.43,0,0,0-25.45-19.77c-5.28-1.79-9.08-.54-12.63,4.7S102.25,72.52,102.07,78.2Z"/></svg>