<svg id="Layer_1" data-name="Layer 1"
  xmlns="http://www.w3.org/2000/svg" viewBox="0 0 154.36 504.39">
  <defs>
    <style>.cls-1{fill:currentColor;}</style>
  </defs>
  <title>BIO ICONS</title>
  <path class="cls-1" d="M19.77,426a65.17,65.17,0,1,1,66.4,63.66A65,65,0,0,1,19.77,426Z"/>
  <path class="cls-1" d="M145.05,78.34c1.65,34.32-26.32,65.71-63.18,66.74-36,1-66-27.79-66.94-63.44C14,47.21,40.74,15.49,78.71,14.72,117.66,13.93,145.11,45.56,145.05,78.34Z"/>
  <path class="cls-1" d="M147.57,251.22c1.11,35.88-27.42,64.46-60.63,66.6-38.67,2.49-67.33-28.19-69.49-60.24-2.5-36.86,25.76-68.9,63.12-70A64.92,64.92,0,0,1,147.57,251.22Z"/>
</svg>