<svg id="Layer_1" data-name="Layer 1" xmlns="http://www.w3.org/2000/svg" viewBox="0 0 438.42 349.41">
<defs>
<style>.cls-1{fill:currentColor;stroke:currentColor;stroke-miterlimit:10;stroke-width:7px;}</style>
</defs>
<title>BIO ICONS</title>
<path fill="currentColor" class="cls-1" d="M219.66,287.66c62.18,0,124.37.18,186.55-.13,15.51-.07,28.63,10.4,26.39,26.67-1.73,12.51-11.69,20.07-26.09,20.07q-186.94,0-373.89.14c-14.59,0-29.13-9.34-26.8-26.75,1.67-12.48,11.61-20,26.11-20Z"/>
<path fill="currentColor" class="cls-1" d="M219.66,153.75c62.18,0,124.37.17,186.55-.11,15.51-.07,28.63,9.53,26.39,24.46-1.73,11.47-11.69,18.41-26.09,18.41q-186.94,0-373.89.13c-14.59,0-29.13-8.57-26.8-24.54,1.67-11.45,11.61-18.35,26.11-18.35Z"/>
<path fill="currentColor" class="cls-1" d="M219.66,15.12c62.18,0,124.37.17,186.55-.12,15.51-.07,28.63,9.84,26.39,25.23-1.73,11.84-11.69,19-26.09,19q-186.94,0-373.89.13c-14.59,0-29.13-8.83-26.8-25.3C7.49,22.24,17.43,15.12,31.93,15.12Z"/></svg>