<svg id="Layer_1" data-name="Layer 1" xmlns="http://www.w3.org/2000/svg" viewBox="0 0 456.48 481.76">
<defs>
<style>.cls-1{fill:currentColor;stroke:currentColor;stroke-miterlimit:10;stroke-width:18px;}</style>
</defs>
<title>BIO ICONS</title>
<path fill="currentColor" class="cls-1" d="M291.79,289.18c26.22,6.44,50,16,71.82,30.13a186.26,186.26,0,0,1,53,51.22c17.74,25.72,26.22,54.26,26.08,85.43a22.39,22.39,0,0,1-.36,2.58H414.54c-.7-7.38-1.42-14.93-2.14-22.48-1.31-13.78-6.81-26.16-13.28-38.1-18.41-34-47.4-55.84-82.42-70.51-32.3-13.52-66.17-17.76-100.79-15.46-39.31,2.61-75.64,14.67-108.47,36.79-20.22,13.63-37.19,30.38-49.64,51.46C46.93,418.66,40,438.39,39.68,460c-.07,4.24-1.13,5.86-5.53,5.7-7.64-.3-15.3-.09-24.34-.09,1.12-9.69,1.54-19.22,3.39-28.46,9.91-49.27,38.55-85.6,79.31-113.34a226.8,226.8,0,0,1,56.63-27.62c2-.65,3.89-1.4,6.7-2.42-4.07-2.21-7.47-4-10.81-5.88-40.45-22.76-66.49-56.53-74.23-102.44-8.48-50.34,7.06-93.63,44.05-128.65C148.5,24.93,189.45,12.53,235,16.93c66.58,6.42,119,53.15,131.72,116.06,9.6,47.33-2.77,89.64-35.62,125.52a141.87,141.87,0,0,1-36.42,28.58C293.93,287.49,293.31,288.07,291.79,289.18Zm-74-16.52c6.59-.37,11.69-.28,16.67-1,33.41-4.86,61.06-19.91,80.69-47.78,21-29.86,26-62.75,14.15-97.2-12.64-36.6-38.68-60.51-75.7-71.05-46-13.1-87.15-2.9-120.71,31.52-34.72,35.6-40,89.06-13.57,130.94C142.39,254.62,176.78,271.34,217.81,272.66Z"/></svg>