<svg id="Layer_1" data-name="Layer 1" xmlns="http://www.w3.org/2000/svg" viewBox="0 0 900 900"><defs><style>.cls-1{fill:#5c5c5c;}</style></defs><title>NEW ICONS SET</title><path class="cls-1" d="M19,69.28,69.14,19.14,230.37,180.51a251.8,251.8,0,0,1,43.47-56c32.82-31.68,71.33-53.16,115.66-64.1A249,249,0,0,1,471,54.16c53.12,4.58,100.14,24.13,141.05,58.24a252.94,252.94,0,0,1,89.84,208c-2.42,41.76-16,79.86-38.36,115-14.68,23.07-32.05,44.12-48.67,65.75C606.25,512.39,598,524,589.6,535.41c-.46.63-.82,1.33-1.39,2.27Q734.7,684.16,881,830.41l-50.44,50.45Z"/><path class="cls-1" d="M341.64,666.43c-.53-7.53-.93-14.61-1.55-21.67-1.83-20.91-7.21-40.94-15-60.38-10.95-27.26-26.77-51.76-43.07-76-14.53-21.6-29.37-43-43.22-65-17.24-27.44-30-56.89-36.56-88.84-.16-.77-.3-1.55-.41-2.33,0-.32,0-.66,0-.25Q345.67,495.73,490.2,640.23Z"/><path class="cls-1" d="M557.92,720.43c-.24,9.44-6.1,16.46-14.64,18.21-18.62,3.82-37.27,7.51-55.91,11.25q-45.15,9.06-90.31,18.1c-11.14,2.22-22.28,4.48-33.45,6.53s-19.92-3.82-22-14.6c-1.85-9.57,4.7-18.56,15.35-20.74,16.75-3.44,33.53-6.72,50.3-10.07Q470.62,716.42,534,703.72c7.85-1.58,14.78-.42,20.09,6.17A18.63,18.63,0,0,1,557.92,720.43Z"/><path class="cls-1" d="M537.46,685.75l-22.86,4.56q-45.35,9.09-90.67,18.18c-20.19,4-40.38,8-60.6,11.92-10.84,2.09-19.62-3.94-21.71-14.59-1.86-9.45,4.59-18.57,15-20.71,17-3.51,34-6.78,51-10.19q48.32-9.69,96.63-19.36a4.64,4.64,0,0,1,3.62.76C517.55,665.84,527.17,675.49,537.46,685.75Z"/><path class="cls-1" d="M395.81,793.13l107.93-18c-.12,12.33-1.24,24.25-5.12,35.79a58.33,58.33,0,0,1-11.2,20.24c-10.13,11.55-23.25,16.46-38.24,16.06-22.24-.6-38.43-11.2-48.51-31C397.15,809.27,395.1,799.17,395.81,793.13Z"/></svg>