<svg id="Layer_1" data-name="Layer 1" xmlns="http://www.w3.org/2000/svg" viewBox="0 0 543.68 456.08"><defs><style>.cls-1{fill:#5c5c5c;stroke:#5c5c5c;stroke-miterlimit:10;stroke-width:8px;}</style></defs><title>BIO ICONS</title><path class="cls-1" d="M331,81.31c-.61,9.77,4.64,13.62,13.72,15.54C399,108.35,445.45,135,486,172.15c11.18,10.24,22.82,15.44,33.92,3,10.24-11.42.88-20.94-7.81-28.82-45.33-41.1-97.58-69-156.6-85.69C333,54.33,332.79,66.93,331,81.31Z"/><path class="cls-1" d="M446.81,254.93c8.62.46,14.44-1.41,17.51-7.49,3.87-7.69,3-15.25-3-21.73C427.44,189.61,385,168.39,338,155.48c-9.89-2.71-14.46,4-16.34,12.49s-4.34,19.46,6.76,22.27c42.47,10.72,78.36,32.67,110.83,61.21C441.73,253.6,445.44,254.32,446.81,254.93Z"/><path class="cls-1" d="M329.72,250.13c-11.44-2.36-15.23,2.83-17.58,10.12-2.77,8.62-5.29,18.18,5.53,22.24,21.5,8.07,39.12,21.78,56.78,35.7,7.71,6.08,15.24,3.24,20.93-2.63,5.51-5.69,9.43-13.27,2.88-20.86C379.12,272.52,355.71,256.86,329.72,250.13Z"/><path class="cls-1" d="M303.31,79.46c-5.69,76.66-11.28,151.37-16.72,226.08-.76,10.48-3.74,20.51-15.57,20.26s-14.35-10.45-15-20.86C250.55,225,244.5,145,239.66,65c-1.93-31.8,9.54-46.71,32.06-46.53,22.21.18,32.09,15,31.6,47.21C303.24,70.92,303.31,76.15,303.31,79.46Z"/><path class="cls-1" d="M212.66,81.31c.61,9.77-4.64,13.62-13.72,15.54C144.66,108.35,98.23,135,57.67,172.15c-11.18,10.24-22.82,15.44-33.92,3-10.24-11.42-.88-20.94,7.81-28.82,45.33-41.1,97.58-69,156.6-85.69C210.68,54.33,210.89,66.93,212.66,81.31Z"/><path class="cls-1" d="M96.86,254.93c-8.61.46-14.43-1.41-17.5-7.49-3.87-7.69-3-15.25,3-21.73,33.84-36.1,76.24-57.32,123.25-70.23,9.89-2.71,14.46,4,16.34,12.49s4.34,19.46-6.76,22.27C172.75,201,136.87,222.91,104.4,251.45,102,253.6,98.24,254.32,96.86,254.93Z"/><path class="cls-1" d="M214,250.13c11.43-2.36,15.23,2.83,17.57,10.12,2.78,8.62,5.3,18.18-5.52,22.24-21.5,8.07-39.12,21.78-56.78,35.7-7.71,6.08-15.24,3.24-20.93-2.63-5.51-5.69-9.43-13.27-2.88-20.86C164.56,272.52,188,256.86,214,250.13Z"/><path class="cls-1" d="M271.47,417.61c-15.86-2.62-27.7-9-27.11-28.08.54-17.53,9.43-29.11,26.61-28.64,17.94.48,27.8,12.35,27.2,31.05C297.62,408.82,288.06,416.69,271.47,417.61Z"/></svg>