<svg id="Layer_1" data-name="Layer 1" xmlns="http://www.w3.org/2000/svg" viewBox="0 0 547.72 555.22"><defs><style>.cls-1{fill:#5c5c5c;stroke:#5c5c5c;stroke-miterlimit:10;stroke-width:3px;}</style></defs><title>BIO ICONS</title><path class="cls-1" d="M251.92,547.12h-177c-37.33,0-69.71-32.31-69.71-69.6q0-177.21,0-354.42C5.25,85.15,37.41,53,75.36,53q99.27,0,198.54,0c12.89,0,22.82,9.17,23.3,21.3a22.34,22.34,0,0,1-22.36,23.58c-15.27.13-30.54,0-45.82,0H75.85c-1.8,0-3.6,0-5.39,0-13,.49-19.71,7.23-20.25,20.27-.07,1.8-.05,3.6-.05,5.39q0,176.76,0,353.52c0,19,6,25.07,25,25.06l354,0h3.14c15.25-.17,22.2-7.08,22.21-22.43q.06-100.39,0-200.79c0-11.11,5.86-19.67,15.5-22.78A22.41,22.41,0,0,1,499.29,277c.23,10.17.06,20.36.06,30.54q0,84.67,0,169.35c0,38.17-32.16,70.25-70.44,70.26h-177Z"/><path class="cls-1" d="M434.75,8.1a112.29,112.29,0,0,1,37.83,11.58c37.29,19.46,61.33,49.23,70.48,90.68,2.58,11.73-.08,20.9-8.81,29.59Q407.86,265.76,282.11,392.19C269.41,405,255.46,412.88,237.7,416c-31.07,5.41-61.92,12.12-92.86,18.26-16.53,3.29-30-10.36-26.71-27Q128.56,355.16,139,303a46.6,46.6,0,0,1,12.91-24.2Q283.51,147.14,415.18,15.5C420.09,10.58,425.84,7.93,434.75,8.1ZM168.62,383.72c22.47-4.5,44.13-9,65.85-13.1a21.47,21.47,0,0,0,11.81-6.4q86.11-86.36,172.4-172.51,37.95-38,76-75.83c2.5-2.49,3-4.59,2-7.84-8-26.76-25.34-44.11-52-52.29-3.67-1.13-5.89-.3-8.56,2.36Q311.83,182.57,187.39,306.8a17.57,17.57,0,0,0-5.5,10.33c-.93,6.35-2.48,12.61-3.74,18.92C175,351.7,171.89,367.35,168.62,383.72Z"/></svg>