<svg id="Layer_1" data-name="Layer 1" xmlns="http://www.w3.org/2000/svg" viewBox="0 0 822 814"><defs><style>.cls-1{fill:none;stroke:#565151;stroke-miterlimit:10;stroke-width:42px;}</style></defs><title>new navigation icon</title><path class="cls-1" d="M410.52,781.43c-47.95.78-96.69-3.16-144.55-7.28-40.66-3.56-80.71-11.51-117.93-29.56C125.47,733.65,105.51,719.1,96,695c-14.44-36.44-8.82-70.95,15-101.85,18.77-24.32,44.42-40.59,70.54-55.83,35-20.43,70.41-40.05,108.63-54.08A85.7,85.7,0,0,0,310,472.72c38.78-27.49-17.6-75.69-32.9-99.59-26.41-41.27-39.92-90.64-41.82-139.39a272.71,272.71,0,0,1,6.06-70.2C257.65,90.79,312,43.11,386.09,34.32c39.46-4.68,77.79-1.06,113.43,17.74,46.47,24.51,73.06,64.26,84,114.7C593.81,214.65,589.2,264.93,573,311a301.48,301.48,0,0,1-32.58,65.5c-13,19.72-29.6,37.56-36.95,60.46-4.13,12.89-5.05,28.46,7.89,36.61a274.22,274.22,0,0,0,31.95,17.8c31.44,14.38,63.6,27.24,94.68,42.35a222,222,0,0,1,67.23,49.79c28.38,31,33.5,67.54,25,106.88-3.9,18.07-15.91,31.26-30.64,41.88-24,17.31-51.62,25.94-80,32.21C555.4,778.6,489.76,779.6,424.41,781.12l-9.36.22Zm.35-14.38c29.47-.68,59.16-3.61,88.45-4.67,40-1.45,80.16-4.42,119.24-13.53,23.94-5.58,47.33-12.76,68.08-26.52,13.69-9.07,25.41-20.27,28.8-37,6.74-33.18,2.91-64.35-21-90.52a173.21,173.21,0,0,0-18.35-17.59c-34-27.69-73.58-45.31-113.78-61.78-16.95-7-33.93-14-50.2-22.4-19.22-9.91-29.29-31.35-26.54-52.49,2.85-21.91,15.91-35.94,28.75-52.8,14.44-19,27.06-39,36.36-61,21.53-51,29.88-103.56,17.32-158.14-11.58-50.31-39.29-88.2-88-108.48-30.38-12.65-62.2-14.79-94.43-10.1-63.34,9.23-106.26,44-125.66,105.16-15.52,48.95-12,98.32,3.68,146.68,7.12,22,17.36,42.79,29.35,62.51,10.7,17.58,25.19,32.65,34.67,51,14.09,27.3,12.24,58.88-16.5,75.13a94,94,0,0,1-14,6.72c-34.24,12.43-66.16,29.58-97.64,47.61C173,560,147.05,575.77,126.36,598.73,108.12,619,101.8,643.1,104.68,669.48c3,27.59,20.56,45.32,43.8,57.86,36.14,19.5,77.14,27.74,117.74,31.11q38.13,3.18,76.33,5.41c13.32.78,26.58,2.47,39.92,3C391.9,767.26,401.37,767.27,410.87,767.05Z"/></svg>