<svg width="1409" height="715" viewBox="0 0 1409 715" fill="none" xmlns="http://www.w3.org/2000/svg">
<path d="M1409 358.5C1409 516.176 1281.16 644 1123.5 644C965.838 644 838 516.176 838 358.5C838 200.824 965.824 73 1123.5 73C1281.18 73 1409 200.824 1409 358.5Z" fill="#FFD120"/>
<path d="M962.152 314.522C994.021 313.325 1026.38 312.003 1058.18 314.94C1064.69 315.538 1076.09 316.819 1080.94 312.95C1083.73 310.751 1082.25 307.508 1079.76 305.184C1068.11 294.329 1042.67 290.502 1022.86 290.767C1006.84 290.902 990.962 293.821 975.943 299.395C970.126 301.636 963.419 304.252 959.995 308.037C957.894 310.25 955.403 314.773 962.152 314.522Z" fill="#664501"/>
<path d="M1150.29 554.278C1139.05 564.604 1126.52 568.835 1112.72 565.843C1100.75 563.24 1090.92 555.517 1082.84 544.258C1075.27 533.469 1070.05 521.207 1067.53 508.27C1063.88 490.998 1063.99 473.144 1067.83 455.915C1070.21 444.514 1074.64 433.639 1080.92 423.824C1087.97 413.038 1096.61 405.134 1107.44 401.056C1114.47 398.309 1122.17 397.766 1129.51 399.497C1141.19 402.281 1150.88 409.657 1158.74 420.665C1165.43 430.199 1170.28 440.898 1173.04 452.214C1176.94 467.033 1177.97 482.46 1176.08 497.665C1173.43 518.805 1166.34 537.063 1153.35 551.397C1152.39 552.418 1151.37 553.379 1150.29 554.278Z" fill="#403616"/>
<path d="M1119.7 471.504C1107.05 471.504 1094.41 471.504 1081.76 471.504C1079.73 471.504 1079.16 470.975 1079.22 468.72C1079.41 457.318 1082.47 446.147 1088.11 436.239C1092.84 427.958 1099.24 421.237 1107.91 417.716C1119.51 413.026 1130.38 415.113 1140.17 423.004C1147.66 429.03 1152.56 437.018 1155.88 446.092C1158.58 453.391 1160.01 461.094 1160.13 468.873C1160.13 470.989 1159.46 471.434 1157.62 471.434C1144.99 471.476 1132.34 471.504 1119.7 471.504Z" fill="#F2F8F9"/>
<path d="M1009.86 214.643C998.083 210.955 982.594 217.426 972.394 222.993C956.779 231.426 944.56 245.718 934.012 260.568C925.662 272.383 918.703 290.655 918.411 305.337C918.314 309.985 921.904 322.803 925.787 311.92C932.606 292.757 941.596 274.888 956.612 260.623C964.213 253.13 972.374 246.226 981.021 239.971C989.817 233.861 999.336 228.559 1006.84 220.766C1008.45 219.026 1010.07 216.967 1009.86 214.643Z" fill="#664501"/>
<path d="M1283.97 314.522C1252.1 313.325 1219.73 312.003 1187.95 314.94C1181.43 315.538 1170.04 316.819 1165.17 312.95C1162.38 310.751 1163.87 307.508 1166.36 305.184C1178.01 294.329 1203.45 290.502 1223.27 290.767C1239.29 290.902 1255.16 293.821 1270.18 299.395C1276 301.636 1282.71 304.252 1286.13 308.037C1288.16 310.25 1290.71 314.773 1283.97 314.522Z" fill="#664501"/>
<path d="M1269.95 607.467L1230.42 626.436L1219.05 310.32H1267.18L1269.95 607.467Z" fill="#5DACEB"/>
<path d="M982.47 607.467L1021.98 626.436L1033.36 310.32H985.225L982.47 607.467Z" fill="#5DACEB"/>
<path d="M1227.37 211.859C1239.15 208.172 1254.64 214.643 1264.84 220.209C1280.45 228.643 1292.67 242.935 1303.22 257.784C1311.57 269.6 1318.53 287.872 1318.82 302.554C1318.92 307.202 1315.33 320.02 1311.44 309.137C1304.62 289.974 1295.63 272.105 1280.62 257.84C1273.02 250.345 1264.86 243.44 1256.21 237.188C1247.41 231.078 1237.89 225.776 1230.39 217.983C1228.78 216.243 1227.17 214.184 1227.37 211.859Z" fill="#664501"/>
<circle cx="713.5" cy="357.5" r="357.5" fill="white"/>
<path d="M919.48 559.79C1031.84 447.434 1031.84 265.27 919.48 152.915C807.123 40.5599 624.961 40.5599 512.605 152.915C400.25 265.27 400.25 447.434 512.605 559.79C624.961 672.145 807.123 672.145 919.48 559.79Z" fill="#FFD120"/>
<path d="M558.485 257.331L627.553 296.514L559.032 335.347" stroke="#403616" stroke-width="18" stroke-linecap="round" stroke-linejoin="round"/>
<path d="M865.361 335.347L797.877 296.164L864.828 257.331" stroke="#403616" stroke-width="18" stroke-linecap="round" stroke-linejoin="round"/>
<path d="M1015.99 341.432C1025.45 349.063 1031.51 360.124 1032.85 372.204C1034.18 384.284 1030.69 396.402 1023.12 405.913C1015.56 415.426 1004.53 421.559 992.464 422.975C980.394 424.392 968.252 420.977 958.69 413.474C938.79 397.641 899.522 307.606 899.522 307.606C899.522 307.606 996.092 325.599 1015.99 341.432Z" fill="#2EA6BE"/>
<path d="M411.135 341.432C401.674 349.063 395.615 360.124 394.279 372.204C392.943 384.284 396.44 396.402 404.006 405.913C411.571 415.426 422.592 421.559 434.663 422.975C446.734 424.392 458.875 420.977 468.437 413.474C488.337 397.641 527.605 307.606 527.605 307.606C527.605 307.606 431.035 325.599 411.135 341.432Z" fill="#2EA6BE"/>
<path d="M568.499 400.741C567.058 400.741 565.64 401.096 564.366 401.773C563.094 402.449 562.007 403.428 561.202 404.623C560.396 405.818 559.897 407.192 559.745 408.625C559.595 410.059 559.797 411.507 560.337 412.844C572.608 442.827 613.629 518.319 715.401 518.319C817.174 518.319 859.064 442.308 871.741 412.059C872.293 410.715 872.504 409.257 872.357 407.811C872.21 406.366 871.708 404.981 870.897 403.776C870.085 402.571 868.989 401.587 867.705 400.908C866.421 400.229 864.989 399.877 863.537 399.886L568.499 400.741Z" fill="#403616"/>
<path d="M713.789 568.804C774.962 568.804 824.551 541.906 824.551 508.727C824.551 475.546 774.962 448.647 713.789 448.647C652.618 448.647 603.027 475.546 603.027 508.727C603.027 541.906 652.618 568.804 713.789 568.804Z" fill="#F15C5A"/>
<path fill-rule="evenodd" clip-rule="evenodd" d="M224.313 68.9749L491 54.5L494.01 58.1309C507.147 58.6547 520.046 60.752 532.08 64.4396C590.989 82.4954 635.505 133.34 661.807 187.219C682.649 229.843 694.209 277.654 690.218 324.925C684.457 393.139 647.041 455.191 600.873 505.796C532.707 580.45 450.655 650.579 357.416 690.807C353.583 692.452 349.734 694.057 345.868 695.622C329.165 702.45 303.462 682.403 285.481 668.379C281.272 665.097 277.487 662.145 274.339 659.944C249.36 642.577 225.273 623.964 202.171 604.176C155.935 564.583 113.81 520.441 76.4342 472.416C42.3692 428.601 7.99083 374.47 1.33702 318.22C-5.41347 261.272 13.9459 193.888 47.0343 147.737C77.7604 104.86 130.919 73.4916 183.427 67.6174C196.995 66.1041 210.883 66.48 224.313 68.9749Z" fill="white"/>
<path d="M390.759 133.72C420.929 112.19 465.149 106.53 500.409 117.35C549.279 132.35 586.209 174.59 608.029 219.35C625.319 254.76 634.909 294.48 631.599 333.75C626.819 390.42 595.779 441.97 557.479 484.01C500.929 546.03 432.859 604.29 355.509 637.71C352.329 639.076 349.136 640.41 345.929 641.71C328.829 648.71 300.359 621.71 286.589 612.07C265.867 597.642 245.885 582.179 226.719 565.74C188.362 532.848 153.416 496.176 122.409 456.28C94.1491 419.88 65.6291 374.91 60.1091 328.18C54.5091 280.87 70.5691 224.89 98.0191 186.55C123.509 150.93 167.609 124.87 211.169 119.99C234.269 117.41 258.489 121.44 278.239 133.73C290.349 141.27 255.759 176.16 250.239 184.94C237.289 205.46 227.019 227.77 221.239 251.39C205.139 317.1 229.739 399.11 299.809 421.39C313.936 425.8 328.802 427.339 343.532 425.915C358.262 424.491 372.559 420.134 385.579 413.1C439.999 383.31 457.899 315.89 446.429 258.28C441.249 232.28 431.029 207.56 418.699 184.15C416.699 180.36 391.329 133.31 390.099 134.2L390.759 133.72Z" fill="#FF004D"/>
<path d="M333.669 174.19C339.669 176.51 351.209 189.33 354.889 194.48C373.708 220.827 385.303 251.642 388.519 283.86C389.969 298.86 389.519 314.32 384.069 328.35C380.932 336.642 375.727 343.995 368.949 349.71C362.17 355.424 354.043 359.311 345.339 361C320.109 366.1 298.119 353.45 286.479 331.43C278.907 317.032 275.329 300.868 276.119 284.62C277.359 260.26 288.309 237.52 300.279 216.28C305.078 207.502 310.6 199.14 316.789 191.28C320.409 186.79 331.159 171.62 337.899 173.69C337.999 173.72 333.569 174.15 333.669 174.19Z" fill="#FF004E"/>
</svg>
