<svg id="Layer_1" data-name="Layer 1" xmlns="http://www.w3.org/2000/svg" viewBox="0 0 612.39 560.35"><defs><style>.cls-1{fill:#5c5c5c;stroke:#5c5c5c;stroke-miterlimit:10;stroke-width:6px;}</style></defs><title>BIO ICONS</title><path class="cls-1" d="M12.18,201.91A223.12,223.12,0,0,1,23,140.12c6.83-21.41,19.45-40.33,34.09-57.18C70.9,67,86.56,48.16,105,37.51c25.47-14.72,54.31-23.32,83.56-25.95,38.35-3.44,71.32,5.25,104.14,25.19,11.81,7.18,19.09,6.1,29.26-2.9a79.49,79.49,0,0,1,22.67-14.41c59.11-26,129.59-13.26,177.54,29,9.77,8.61,20.91,16.18,28.77,26.29,25,32.18,42.38,70.35,49.09,110.62,5.24,31.42,7,66.85-2.83,97.6-13.33,41.8-38.62,78-68.28,109.85C473.15,452.71,411.61,516.38,333,545c-10,3.64-20.7,6.48-31.22,4.86-21.48-3.32-44.95-22.22-63.69-33-39.9-23.07-75.35-53.29-107.62-86C99.13,399.07,66,364.47,43.65,325.66c-16.75-29.06-25.37-63.32-30-96.38A169.33,169.33,0,0,1,12.18,201.91Zm196.5,253.85c17.38,15.33,35.61,29.73,54.75,41.37,13.66,8.31,29.14,17.64,45.59,16,18.53-1.83,33.87-12.49,49.83-21.12,39.76-21.52,75-50.56,106.81-82.54,16.26-16.37,30.68-33.91,46.6-50.42,17.76-18.42,31.25-44.43,41.24-67.79,9.85-23,15.67-45.46,14-70.73-2.33-35.65-13-67.63-31.29-98-27.48-45.7-72.31-78.59-126.83-81.36-17.17-.87-34.09,3.31-49.73,10.17-6.52,2.85-19.42,5.91-23,12.79-5.13,9.88,9.49,18.31,14.94,25.51,17.71,23.43,31.9,50,38.22,78.81,8.12,37.07,2.62,80.8-23.64,109.78-24.09,26.58-63.34,43.19-98.31,29.08-29.89-12.06-56-49-61.5-80-7.19-40.58,7.87-87.1,30.87-120.27,4.44-6.4,9.56-14.1,15.38-20.06,5.06-5.17,16.1-9.55,18.61-16.49C275,60,241.57,49.13,234.42,48.64c-15.74-1.09-29.9-3.13-45.71.13a182.13,182.13,0,0,0-75,35,174,174,0,0,0-36.26,39.41C7,226.6,93.46,344.94,167.94,417.51,181,430.21,194.55,443.29,208.68,455.76ZM359.41,190.58a136.82,136.82,0,0,0-4.64-22.6,171.31,171.31,0,0,0-19.89-43.72C327.79,113.11,317.6,97.18,306,90.63c-1.09-.61-2.94-1.31-3.71-.82-5.11,3.28-9.22,6.2-13.18,10.76-21.27,24.52-41.89,48.23-47.61,81.37-4,23.41,0,48.53,13.25,68.27,12.89,19.25,30.87,32.66,54.66,25.78a70.35,70.35,0,0,0,33.21-20.6C358.37,237.42,362.11,213.62,359.41,190.58Z"/></svg>