<svg id="Layer_1" data-name="Layer 1" xmlns="http://www.w3.org/2000/svg" viewBox="0 0 458 457.67">
<defs>
<style>.cls-1{fill:none;}.cls-1,.cls-2{stroke:currentColor;stroke-miterlimit:10;stroke-width:18px;}.cls-2{fill:currentColor;}</style>
</defs><title>BIO ICONS</title>
<path  class="cls-1" d="M214.5,43.28A170.08,170.08,0,0,0,44.08,213.78c.11,94.43,76.45,170.56,170.68,170.22,94.45-.33,170.24-76.32,170.05-170.48A170,170,0,0,0,214.5,43.28Z"/>
<path  fill="currentColor" class="cls-2" d="M370.47,347.78a30.11,30.11,0,0,0-3.4-2.61C441.94,258.31,428,129.38,343.37,59A201.1,201.1,0,0,0,71,72.47C-2.11,146.44-6.4,264.59,60.66,343.7c71,83.72,198.5,96.93,285.22,22.64a37.91,37.91,0,0,0,2.67,3.34l7.52,7.52,22.27-21.56ZM214.76,384c-94.23.34-170.57-75.79-170.68-170.22a170.37,170.37,0,1,1,340.73-.26C385,307.68,309.21,383.67,214.76,384Z"/>
<path fill="currentColor"  class="cls-2" d="M441.31,418.55q-31.51-31.43-63-62.91L356.07,377.2q31.24,31.28,62.51,62.53c.85.85,1.68,1.73,2.59,2.51a15.42,15.42,0,0,0,25.21-8C447.94,428,445.72,423,441.31,418.55Z"/></svg>