<svg id="Layer_1" data-name="Layer 1" xmlns="http://www.w3.org/2000/svg" viewBox="0 0 633.38 633.38"><defs><style>.cls-1{fill:#5c5c5c;stroke:#5c5c5c;stroke-miterlimit:10;stroke-width:2px;}</style></defs><title>BIO ICONS</title><path class="cls-1" d="M474.73,552.08c-9.21.14-17.53-3-25.07-8.3-8.72-6.19-17.44-12.39-26-18.74a4.89,4.89,0,0,0-5.56-.65c-8.5,3.66-17,7.26-25.66,10.61a6.13,6.13,0,0,0-4.35,5.17c-1.78,10.77-3.74,21.51-5.34,32.3-2.5,16.89-17.43,32.87-34.37,34-19.64,1.28-39.4.8-59.1,1a28.07,28.07,0,0,1-7.22-1.22c-18.77-4.94-29-17.5-32.14-36.3-1.74-10.25-3.5-20.5-5.46-30.71a5.56,5.56,0,0,0-2.76-3.5c-8.61-3.76-17.28-7.36-26-10.73a6.1,6.1,0,0,0-4.77.87c-8.62,5.89-17.13,11.93-25.6,18-18.91,13.59-39.45,12.41-56.12-3.68q-17.25-16.63-33.9-33.89c-16.41-17-17.79-37.14-4.17-56.42q8.81-12.48,17.87-24.76a4.82,4.82,0,0,0,.67-5.57c-3.8-8.58-7.51-17.2-10.9-25.94-1.06-2.72-2.55-3.67-5.23-4.1-11.16-1.79-22.34-3.59-33.43-5.75-20.77-4-33.78-20.09-33.8-41.36q0-24.56,0-49.13c.05-22.17,15.81-39.45,37.87-42.11,10.07-1.22,20.06-3.15,30.05-4.94a4.65,4.65,0,0,0,2.88-2.52c3.9-9.25,7.72-18.53,11.29-27.9a6.05,6.05,0,0,0-.83-4.75c-5.61-8.18-11.37-16.26-17.2-24.29-15-20.64-13.29-41.79,4.86-59.83,10.51-10.45,21-21,31.49-31.4,16.41-16.22,37.67-17.94,56.48-4.59q12.77,9.06,25.36,18.34a4.56,4.56,0,0,0,5.24.52c8.84-3.88,17.84-7.38,26.66-11.29a6.48,6.48,0,0,0,3.19-4.1c2.46-12.71,4-25.63,7.08-38.2C254.82,39,272.15,26.07,289.78,26q25.34-.09,50.67,0a41.55,41.55,0,0,1,40.67,33.18c2.35,11.43,4,23,6.19,34.47a5.91,5.91,0,0,0,3,3.72c9.31,4.07,18.75,7.82,28.11,11.78a4.79,4.79,0,0,0,5.28-.66c8-5.85,16.14-11.54,24.19-17.34,20.46-14.74,41-13.19,58.81,4.6C517.85,106.9,529,118,539.88,129.34c15,15.65,16.71,34.35,4.79,52.43-6.23,9.46-12.94,18.61-19.58,27.8a5,5,0,0,0-.69,5.58c3.79,8.87,7.44,17.79,11,26.74a4.67,4.67,0,0,0,4.16,3.23c13.17,2.25,26.58,3.77,39.35,7.46,17.23,5,28.22,21.4,28.21,39.26q0,24.75-.12,49.51a41.86,41.86,0,0,1-35.66,41.75c-10.92,1.78-21.84,3.55-32.72,5.51a5,5,0,0,0-3.23,2.56c-3.82,8.85-7.34,17.83-11.17,26.68-1.06,2.47-.7,4.19.84,6.3,6.09,8.31,12,16.74,18,25.17,13.33,18.92,12.22,38.41-3.66,55-12.28,12.86-24.93,25.39-37.67,37.8C494.36,549.33,485.08,552.17,474.73,552.08Zm-317-423.82c-9.67,9.71-19,19.17-28.42,28.46-2.16,2.12-2.37,3.58-.52,6.11,8.44,11.55,16.63,23.27,24.94,34.91,6.07,8.5,6.66,17.1,1.39,26.34A190.17,190.17,0,0,0,136.45,270c-2.6,9.87-8.67,16.18-18.94,18-7.59,1.33-15.2,2.58-22.8,3.87l-23,3.95v44.31c14,2.38,27.78,5.05,41.65,7,12.55,1.73,20.79,7.47,24.11,20.27a171.92,171.92,0,0,0,18.43,43.56c5.81,9.94,5.06,19.29-1.58,28.46-5.75,7.93-11.41,15.92-17.09,23.9-3,4.15-5.9,8.32-8.38,11.81l31.29,31.46c7.74-5.53,15.64-11.53,23.91-17,7.92-5.22,16.19-9.91,24.4-14.66a5.94,5.94,0,0,1,4.37-.46A93.41,93.41,0,0,1,226,479.75c13.5,7.05,27.36,13,42.15,16.9,10,2.62,16.56,9.26,18.59,19.63,1.46,7.42,2.48,14.92,3.73,22.38,1.31,7.81,2.65,15.62,4,23.43h44.1c2.59-15.12,5.26-30,7.66-45,1.81-11.27,8.45-17.76,19.2-20.57a159.92,159.92,0,0,0,42-17.26c11.52-6.91,21.89-6.13,32.49,1.9,11.27,8.53,23,16.48,34.7,24.83,9.56-9.6,18.83-19.09,28.35-28.33,2.43-2.37,2.26-3.9.42-6.43-8.26-11.35-16.37-22.82-24.46-34.3-5.38-7.63-6.93-15.9-2.35-24.32a245.86,245.86,0,0,0,21.05-50.86,19.53,19.53,0,0,1,15.95-14.6c14.91-2.81,29.89-5.22,44.85-7.68,2.49-.41,4-1,3.94-4-.13-12.63-.1-25.26,0-37.89,0-2.29-.92-3.15-3.09-3.51-13.84-2.24-27.64-4.68-41.48-6.86-10.74-1.69-18.05-7.34-20.89-17.93a196.6,196.6,0,0,0-19.06-46.24c-5.33-9.38-4.74-18.37,1.54-27.11,8.12-11.3,16.1-22.69,24.31-33.93,1.8-2.46,1.77-3.94-.47-6.12-8.61-8.35-17-16.91-25.49-25.38-1-1-2-1.92-3-2.89-1.43,1-2.61,1.76-3.76,2.58-11.52,8.25-23,16.57-34.58,24.72-7.87,5.53-16,6.14-24.64,1.3a209.29,209.29,0,0,0-48.76-20c-10.33-2.72-15.88-9.42-17.64-19.63-2.09-12.15-4.1-24.3-6.14-36.45-1.49-8.85-1.48-8.85-10.29-8.84H294a34,34,0,0,0-1,3.54c-2.43,14.29-4.74,28.6-7.26,42.87-1.79,10.11-7.84,16.65-17.72,19.31-14.87,4-29.19,9.45-42.33,17.43-12.13,7.37-23.08,6.62-34.26-1.94C180.59,144.2,169.29,136.52,157.76,128.26Z"/><path class="cls-1" d="M445.53,316.57c.55,69.86-56.84,130.18-130.22,129.22-70.64-.94-128-57.48-127.84-129.39.2-73.38,60.8-128.89,128-129C389.67,187.32,446.64,248.49,445.53,316.57ZM316.69,232.93c-43.18-.72-84,34.54-83.93,83.94.08,48.38,39.8,83.57,83.14,83.73,44.32.16,84.59-34.53,84.58-84.29C400.47,266.94,359.06,232.25,316.69,232.93Z"/></svg>