<svg id="Layer_1" data-name="Layer 1" xmlns="http://www.w3.org/2000/svg" viewBox="0 0 616.39 616.39"><defs><style>.cls-1{fill:#5c5c5c;stroke-width:11px;}.cls-1,.cls-2{stroke:#5c5c5c;stroke-miterlimit:10;}.cls-2{fill:none;stroke-width:42px;}</style></defs><title>BIO ICONS</title><path class="cls-1" d="M317.82,495c-1.22,0-2.44,0-3.65,0-6.55.31-12.91-.76-19.29-2.14a127.1,127.1,0,0,1-19.66-6,147.73,147.73,0,0,1-24.79-12.2c-5.76-3.63-11.51-7.3-17-11.27-4-2.87-7.59-6.28-11.38-9.44a102.48,102.48,0,0,0-8.35-6.84c-5.57-3.73-10.51-2.87-15.88,1.07-1.59,1.17-3.09,2.48-4.71,3.6a6.59,6.59,0,0,1-9-.82,40.22,40.22,0,0,1-4.16-5.62c-2.05-3.23-3.9-6.6-5.93-9.84a7.89,7.89,0,0,1,2.33-11.15,53.92,53.92,0,0,1,4.75-2.91c7.94-4.11,8.12-10,4.25-17a26.83,26.83,0,0,1-2.92-7c-.91-4.1,1.44-6.91,4.72-8.9,4.49-2.73,9-5.41,13.66-7.9,4.39-2.37,8.34-1,10.51,3.48,1.28,2.64,2.51,5.31,3.52,8.06,1.72,4.69,5.46,5.73,9.86,3.85a95.26,95.26,0,0,0,9.5-5.08c4.94-2.81,9.84-5.69,14.75-8.54,5.33-3.1,10.65-6.22,16-9.31,5.59-3.23,11.2-6.41,16.79-9.64,4.72-2.73,9.4-5.53,14.12-8.25,7.1-4.09,14.24-8.12,21.33-12.23s14.12-8.31,21.22-12.4,14.06-8,21-12c9.17-5.32,18.28-10.75,27.45-16.06,7-4.06,14-8,21.05-12,7.75-4.43,15.59-8.71,23.2-13.36,4.41-2.69,4.84-6,2.59-9.93-1.49-2.6-3.24-5-4.7-7.64-3.5-6.21-1.66-9.71,4.32-13.41,3.66-2.26,7.61-4.08,11.5-6a12.75,12.75,0,0,1,3.61-.9c5-.77,7.9,1.94,10.08,6,.77,1.42,1.64,2.79,2.47,4.18,3.3,5.56,8.83,5.33,13.46,2.92,2.65-1.37,5.08-3.16,7.7-4.61,5.07-2.8,7.82-1.77,11.62,1.59a30.34,30.34,0,0,1,8.55,13c1.33,3.88,1.55,8.13-1.77,11.26a25.37,25.37,0,0,1-7.11,4.45c-5.65,2.48-9.58,6.34-10.84,12.47-.76,3.73-.16,7.52.37,11.25.75,5.27,1.92,10.48,2.39,15.77a216.31,216.31,0,0,1,1.06,22c-.14,10.07-.84,20.14-3.47,30-1.66,6.21-2.86,12.6-5.07,18.61a174.37,174.37,0,0,1-9.35,20.95A197.75,197.75,0,0,1,456.91,428a111.87,111.87,0,0,1-9.26,11.28c-3.34,3.72-6.75,7.4-10.44,10.77a137.43,137.43,0,0,1-13.36,11,231.84,231.84,0,0,1-19.66,12.54,161.34,161.34,0,0,1-17.5,8.23,137.85,137.85,0,0,1-16,5.64c-6.72,1.85-13.57,3.24-20.4,4.63a125.64,125.64,0,0,1-13.62,2.15c-6.25.58-12.54.74-18.81,1.09Zm144.1-205.84a29.18,29.18,0,0,0-3.52,1.38c-8,4.4-16,8.87-24,13.29C427,307.92,419.56,312,412.16,316q-12.5,6.89-25,13.8c-7.34,4-14.72,8-22,12.1-6.37,3.55-12.65,7.26-19,10.83-6.69,3.75-13.43,7.41-20.16,11.09-2.93,1.61-5.91,3.14-8.83,4.78-4.44,2.48-8.83,5.07-13.28,7.54-3.43,1.91-6.95,3.67-10.39,5.56q-11.1,6.09-22.16,12.25c-4.3,2.38-8.58,4.77-12.89,7.13-3.41,1.87-6.87,3.64-10.26,5.54Q239,411.78,229.86,417c-3,1.73-6.17,3.3-8.43,6.09-3.28,4.06-4.36,7.38.19,11.76A117.45,117.45,0,0,0,232.53,444a150.78,150.78,0,0,0,22.06,14.13c1.87,1,3.76,1.87,5.69,2.69,4.5,1.9,9,3.86,13.58,5.53a79.46,79.46,0,0,0,9,2.45c5,1.2,10.06,2.64,15.18,3.34,5.65.78,11.4.91,17.11,1.18a131.24,131.24,0,0,0,24.33-1.45c3.49-.48,7.09-.65,10.43-1.65,8.27-2.48,16.84-4,24.7-7.8,5.58-2.7,11.34-5.06,16.76-8.05a144.7,144.7,0,0,0,14.14-9.17,108.43,108.43,0,0,0,16.21-13.5c2.82-3,5.72-5.91,8.31-9.08,5.12-6.27,10.55-12.38,14.93-19.15a195.51,195.51,0,0,0,12.64-23.42c2.53-5.42,4.1-11.31,5.8-17.08a67.43,67.43,0,0,0,3-15.26c.26-4.6,1.24-9.17,1.31-13.77.1-5.72-.39-11.45-.66-17.18a39.4,39.4,0,0,0-.46-6C465.12,303.68,463.53,296.59,461.92,289.18Z"/><circle class="cls-2" cx="315.45" cy="302.07" r="270.04"/></svg>