<svg width="435" height="464" viewBox="0 0 435 464" fill="none" xmlns="http://www.w3.org/2000/svg">
<path d="M434.007 256.128C434.007 370.408 341.357 463.047 227.087 463.047C112.817 463.047 20.167 370.408 20.167 256.128C20.167 141.848 112.807 49.2075 227.087 49.2075C341.367 49.2075 434.007 141.848 434.007 256.128Z" fill="#FFD120"/>
<path d="M37.9067 120.048C32.0867 114.268 25.5867 109.128 20.5967 102.498C22.2767 100.728 22.3767 100.738 24.5167 102.138C27.0967 103.838 28.8667 106.388 30.8767 108.588C35.2667 113.378 40.7567 116.588 45.8767 120.308C46.2339 120.547 46.5686 120.818 46.8767 121.118C49.5009 124.05 52.7233 126.386 56.3267 127.968C56.7302 128.079 57.1169 128.244 57.4767 128.458C61.6967 129.928 63.7167 135.148 68.8267 135.108C72.7181 137.73 76.4145 140.631 79.8867 143.788C82.7867 146.308 86.3867 147.528 89.2167 150.128C91.4267 152.128 94.6867 150.468 94.1667 147.728C92.8567 140.848 94.7267 134.158 96.5467 128.008C99.9267 116.578 95.8067 108.318 88.4867 100.528C87.591 99.7039 86.8076 98.7658 86.1567 97.7376C85.8366 97.1204 85.772 96.4021 85.9767 95.7376C87.4167 94.4276 88.4867 95.6677 89.6567 96.2477C93.7467 99.8377 97.3867 103.898 101.497 107.468C106.317 110.758 105.147 115.468 104.497 120.068C104.207 121.638 104.427 123.238 104.287 124.818C103.93 127.088 103.723 129.38 103.667 131.678C102.727 140.678 102.097 149.798 101.317 158.858C101.137 160.958 101.127 163.148 99.4767 164.798C97.9367 165.538 96.8767 164.468 95.7467 163.798C76.0867 151.868 57.9167 137.888 40.1267 123.388C38.9831 122.603 38.1876 121.406 37.9067 120.048Z" fill="#E81E25"/>
<path d="M46.2369 121.208C40.806 118.678 35.861 115.216 31.6269 110.978C28.9869 108.388 26.5469 105.578 23.8869 102.978C23.0669 102.188 21.9969 100.558 20.5969 102.468C12.0569 93.4177 5.13687 83.3676 1.59687 71.2776C-0.465517 64.7185 -0.531638 57.6944 1.40689 51.0977C4.14689 51.6577 3.86688 53.8577 3.63688 55.7077C2.32688 66.5177 6.08688 75.5377 13.3369 83.2677C15.4369 85.5077 16.8169 88.1876 18.6569 90.5576C20.4269 95.2276 24.3969 97.8877 28.0469 100.848C28.7769 101.608 29.3269 102.528 30.0469 103.278C34.8369 107.958 39.2769 113.078 45.6669 115.758C46.2745 116.501 46.6655 117.397 46.7969 118.348C46.9179 118.836 46.9304 119.346 46.8337 119.84C46.737 120.334 46.5332 120.801 46.2369 121.208Z" fill="#E81E25"/>
<path d="M153.857 14.7271L154.717 16.5371C154.867 19.7571 157.397 21.7471 158.787 24.3171C163.107 32.2671 163.557 40.6171 161.717 49.2571C161.527 50.1271 161.047 50.9571 159.887 50.8571C158.097 49.3471 158.247 47.1171 157.747 45.1371C157.167 42.0071 156.467 38.8671 156.117 35.7071C154.517 21.0571 144.957 12.0671 132.907 6.37709C124.717 2.50709 115.127 2.16709 106.647 7.78709C104.907 8.94709 103.247 10.5071 100.837 9.64709C100.727 9.59163 100.63 9.51421 100.551 9.41963C100.472 9.32506 100.414 9.21534 100.379 9.09724C100.345 8.97915 100.334 8.85519 100.35 8.73305C100.365 8.6109 100.405 8.49315 100.467 8.38709C109.047 1.29709 118.857 -0.672904 129.597 1.5071C139.017 3.4171 146.857 8.3371 153.857 14.7271Z" fill="#E81E25"/>
<path d="M18.5165 90.8674C18.1333 91.0429 17.735 91.1835 17.3265 91.2874C13.8365 84.9174 7.62652 80.2274 4.90652 73.7174C2.65652 68.3274 0.70652 62.0774 2.63652 55.7174C2.92303 54.9222 2.96172 54.0588 2.74748 53.2411C2.53325 52.4235 2.07616 51.69 1.43652 51.1374C3.43652 41.8774 7.74652 34.0474 15.2965 28.1374C16.7265 27.6074 18.0565 26.6674 19.7065 26.8974C22.2665 28.8974 20.9465 30.7974 19.1565 31.9974C15.6765 34.3174 14.0665 38.3974 10.5465 40.6274C9.9425 41.1063 9.53366 41.7889 9.39651 42.5474C6.39651 54.2274 4.78652 65.7774 12.5065 76.5474C14.0865 78.7574 15.1465 81.3174 16.9465 83.3974C18.0465 85.5774 19.6565 87.6174 18.9465 90.3174L18.5165 90.8674Z" fill="#E81E25"/>
<path d="M96.0865 44.6474C92.0865 40.3374 88.1865 35.9274 84.0865 31.7374C82.3865 30.0174 82.3265 28.7374 83.5765 26.7374C86.2351 22.1843 89.5281 18.0327 93.3565 14.4074C94.7165 14.1074 94.7765 15.0074 94.7965 15.9574C94.413 16.7649 93.9292 17.5209 93.3565 18.2074C92.8165 18.9474 92.4865 19.8074 92.0265 20.5874C88.3265 26.8374 88.1665 26.9774 93.0265 32.2574C96.9165 36.4774 100.236 41.1674 104.616 45.0074C110.216 49.9074 111.776 56.2274 108.286 63.0674C107.726 64.1574 104.926 74.2174 102.716 68.3274C102.084 66.6322 101.918 64.7984 102.236 63.0174C102.606 60.9474 103.636 59.0174 103.566 56.8574C103.386 53.6774 98.1865 46.9774 96.0865 44.6474Z" fill="#E81E25"/>
<path d="M86.3268 95.2975L86.5768 97.2975C84.9368 98.6875 83.6468 97.6475 82.6868 96.4775C78.9268 91.9175 74.7668 87.4775 76.7568 80.7075C76.5868 79.0475 76.3068 77.2175 77.3968 75.8775C81.3968 70.8775 80.1168 64.7275 81.2268 59.1075C81.5568 57.4475 80.6968 56.2075 80.0068 54.8775C79.4086 52.2133 77.7799 49.8943 75.4768 48.4275C73.1868 46.9175 71.7668 44.5175 70.1968 42.3375C69.5768 41.4775 68.7468 40.1375 70.8068 39.7075L85.6468 53.9175C88.6968 54.9175 90.7368 56.8475 91.0168 60.2375C90.2119 63.3971 89.21 66.5032 88.0168 69.5375C86.0968 74.5975 84.4868 79.7675 82.6268 84.8475C81.6968 87.3675 82.1268 89.2175 84.2168 90.7875C85.3168 92.1275 86.9768 93.1275 86.3268 95.2975Z" fill="#E81E25"/>
<path d="M69.9971 40.1975C70.9579 41.6984 72.0203 43.1318 73.1771 44.4874C76.1171 47.8474 80.3771 50.9574 80.5471 55.7374C80.3027 55.9322 79.9996 56.0382 79.6871 56.0382C79.3747 56.0382 79.0715 55.9322 78.8271 55.7374C76.4571 51.6474 72.8271 48.5675 69.5171 45.4275C63.3871 39.5475 57.8871 33.1374 51.9971 27.0774C50.2471 25.2674 48.3871 23.6075 45.8471 23.5375C40.1671 23.3775 34.2671 20.2375 28.8471 24.5375C25.9371 25.2975 23.6171 27.8475 20.2871 27.2875L15.2871 28.0374C18.7571 27.5174 23.5271 22.6975 27.3571 21.5075C32.2603 20.0549 37.3913 19.5293 42.4871 19.9574C52.1671 20.6174 59.9071 26.6674 65.7771 33.9574C67.3671 36.0574 68.6471 38.1275 69.9971 40.1975Z" fill="#E81E25"/>
<path d="M94.3873 15.9872C94.368 15.6466 94.2538 15.3181 94.0577 15.0389C93.8615 14.7597 93.5913 14.5409 93.2773 14.4072C95.0136 11.7275 97.5201 9.63579 100.467 8.40723L100.697 9.46722C100.547 12.4672 97.8573 15.2572 94.3873 15.9872Z" fill="#E81E25"/>
<path d="M158.177 22.3571C159.037 23.6971 160.407 24.7671 160.397 26.5671C163.047 28.8771 162.007 32.6271 163.787 35.2771C164.773 37.984 165.3 40.8366 165.347 43.7171C165.187 49.7871 165.207 55.8771 163.917 61.8571C162.157 69.5771 160.557 77.3471 157.757 84.7871C156.237 87.5871 156.127 91.1371 153.327 93.2671C151.417 93.9371 150.697 95.4871 150.157 97.2671C149.736 99.1998 148.68 100.936 147.157 102.197C145.607 103.127 144.737 104.687 143.597 106.007C142.727 107.007 142.117 108.757 140.167 107.797C139.877 107.338 139.744 106.798 139.787 106.257C139.831 105.716 140.048 105.204 140.407 104.797C143.637 100.547 144.357 95.0471 147.687 90.7971C149.663 88.2614 150.808 85.1778 150.967 81.9671C151.097 79.1771 152.317 76.6971 153.557 74.2571C154.397 72.6171 155.167 70.9971 154.667 69.0771C154.551 68.1628 154.654 67.2339 154.967 66.3671C157.867 62.4971 157.157 57.4671 159.157 53.2871C159.527 52.5171 159.347 51.4971 160.017 50.7871C163.017 40.0371 161.367 29.9571 155.547 20.5371C154.717 19.1971 153.627 18.1471 154.687 16.5371C155.807 18.5071 157.577 20.1271 158.177 22.3571Z" fill="#E81E25"/>
<path d="M77.9573 80.2678C75.8973 86.4978 79.6373 90.7678 82.9573 95.1978C83.8873 96.4278 84.7573 97.6178 86.5573 97.3078C91.8773 101.028 94.7773 106.788 98.2873 111.898C101.067 115.898 98.4273 120.898 98.0373 125.458C97.3873 133.148 93.8073 140.538 95.6373 148.458C95.9073 149.658 96.1473 151.108 94.5173 151.458C92.5173 151.888 90.1573 153.298 88.4373 151.528C84.4373 147.388 79.0773 145.088 74.7173 141.388C72.5673 139.558 71.0773 136.918 68.3273 135.798C63.5873 134.798 61.5573 129.558 56.8173 128.578C52.8173 126.798 49.9173 123.388 46.2073 121.178C46.0473 120.278 45.8973 119.368 45.7373 118.468C47.7373 117.348 49.2473 118.538 50.7373 119.468C54.6473 121.798 58.3573 124.468 62.3273 126.698C66.4793 129.122 71.3895 129.899 76.0873 128.878C79.3573 128.228 82.6173 127.488 85.9073 126.878C90.1473 126.088 92.7973 123.528 93.3173 119.328C93.8373 115.128 94.9773 110.668 90.0573 107.538C86.0573 105.018 83.1873 101.118 80.6173 97.1678C78.9644 94.623 77.1752 92.1694 75.2573 89.8178C74.4449 88.2853 74.1336 86.5365 74.3673 84.8178C75.4473 83.2178 74.3673 79.8578 77.9573 80.2678Z" fill="#E81E25"/>
<path d="M56.8369 128.607C57.4105 128.401 58.0254 128.336 58.6295 128.418C59.2335 128.499 59.809 128.726 60.3069 129.077C62.9969 131.317 65.6669 133.577 68.3069 135.827C62.6169 136.437 60.6569 131.047 56.8369 128.607Z" fill="#E81E25"/>
<path d="M46.2373 121.208C50.9973 121.908 53.5573 125.788 56.8473 128.608C51.7573 128.358 48.8073 125.058 46.2373 121.208Z" fill="#E81E25"/>
<path d="M75.9768 89.8975C78.3568 90.7375 79.2368 92.9775 80.4668 94.8975C83.8068 99.8975 87.0968 105.007 92.7768 107.817C93.168 108.029 93.509 108.322 93.7768 108.677C97.1468 113.097 94.2968 125.517 89.0768 127.247C84.2468 128.857 79.0768 129.577 74.0768 130.377C66.3168 131.617 60.4468 127.167 54.4868 123.287C51.6968 121.467 49.0868 119.377 45.7668 118.547L45.2568 115.877C47.1668 114.237 48.6568 115.767 50.1668 116.617C51.8194 117.689 53.6088 118.534 55.4868 119.127C57.3068 119.587 58.8468 119.357 59.5668 117.347C60.6868 114.177 63.2568 113.167 66.2668 112.657C70.3168 111.977 74.3668 111.317 78.3868 110.477C83.0068 109.477 83.6168 108.357 81.5068 104.267C79.8268 101.037 78.6468 97.5575 76.5068 94.5375C75.5468 93.1775 74.8168 91.5975 75.9768 89.8975Z" fill="#E81E25"/>
<path d="M75.9768 89.8972C78.4068 94.8972 80.7868 99.8972 83.2768 104.827C85.3468 108.957 84.6867 110.547 80.1367 111.437C75.0667 112.437 69.9868 113.307 64.8968 114.147C62.5568 114.537 60.6868 115.507 60.6868 118.067C60.6868 121.177 58.6868 121.117 56.6868 120.797C54.2771 120.423 51.9966 119.462 50.0468 117.997C48.6468 116.947 47.3468 115.437 45.2468 115.817C40.7268 116.487 38.2468 112.637 35.4568 110.487C33.0821 108.543 30.971 106.297 29.1768 103.807C29.4612 103.376 29.8408 103.015 30.2863 102.754C30.7318 102.492 31.2315 102.336 31.7468 102.297C35.4359 102.177 39.0578 103.304 42.0268 105.497C47.2368 109.497 52.9368 108.757 58.5268 108.287C63.5268 107.867 68.7968 107.457 72.8368 103.287C74.9568 101.127 75.6768 99.1672 74.5568 96.4272C73.4876 93.7351 72.8139 90.9024 72.5568 88.0172C72.3668 86.1872 72.2268 84.2972 74.4368 83.4072C75.0568 83.5372 75.2368 83.8972 74.9768 84.4672L75.9768 89.8972Z" fill="#E81E25"/>
<path d="M27.8166 101.298C23.4466 98.9577 19.2766 96.4377 18.5166 90.8677V90.8077C20.4166 89.2877 21.0366 91.2777 22.0666 92.1177C24.5832 93.9934 26.6133 96.4453 27.9866 99.2677C28.1249 99.5945 28.1816 99.95 28.152 100.304C28.1224 100.657 28.0073 100.998 27.8166 101.298Z" fill="#E81E25"/>
<path d="M27.8168 101.297L27.5068 99.4572C30.3868 99.1272 32.2368 99.9872 31.9168 103.307L29.1868 103.807C28.0268 103.357 28.0268 102.267 27.8168 101.297Z" fill="#E81E25"/>
<path d="M94.3868 15.9873L100.697 9.44731C104.317 9.00731 106.617 6.0373 109.837 4.6873C115.727 2.2073 121.487 2.8773 127.567 3.5373C136.737 4.5373 142.747 10.7973 148.737 16.2573C152.483 19.7298 155.076 24.2666 156.167 29.2573C157.167 34.3173 157.987 39.4173 158.887 44.5073C158.887 51.3973 156.887 57.9673 155.637 64.6573C151.787 68.7273 150.217 74.0173 147.937 78.9373C144.997 85.2473 142.877 86.4073 135.937 85.8473C132.257 85.5473 128.657 85.6373 126.047 89.0173C124.437 91.1073 122.347 90.9173 120.427 89.4173C118.419 87.785 116.093 86.5895 113.597 85.9073C107.997 84.4573 105.597 80.9073 105.887 75.2373C106.887 70.8673 108.837 66.7573 109.147 62.1873C109.277 60.2573 110.317 58.7773 112.727 59.4773C114.027 63.2973 116.377 63.7173 120.057 62.4773C126.687 60.1873 133.827 60.8573 140.687 59.6273C146.507 58.6273 150.357 55.9573 151.917 50.0173C153.097 45.5273 155.467 41.2173 152.917 36.4973C151.827 34.1573 151.987 31.4973 150.817 29.1673C149.855 27.2386 148.577 25.4844 147.037 23.9773C141.577 18.0673 135.307 13.6673 126.957 13.1273C126.505 13.1159 126.054 13.0792 125.607 13.0173C120.697 12.1273 116.047 13.2373 111.457 14.8073C104.087 17.2073 99.1868 22.8073 94.1368 28.2073C93.8139 28.4664 93.4384 28.652 93.0365 28.7513C92.6345 28.8505 92.2158 28.861 91.8094 28.782C91.403 28.703 91.0187 28.5364 90.6832 28.2938C90.3477 28.0513 90.0691 27.7385 89.8668 27.3773C89.3805 26.7006 89.1516 25.8726 89.2212 25.0422C89.2909 24.2118 89.6545 23.4335 90.2468 22.8473C91.8468 21.2773 92.2468 19.3273 92.7768 17.3473C92.8919 16.9932 93.1037 16.6783 93.3881 16.438C93.6726 16.1978 94.0184 16.0417 94.3868 15.9873Z" fill="#E81E25"/>
<path d="M155.087 64.6875C154.157 59.7975 156.807 55.4875 157.527 50.8575C157.847 48.8575 155.727 45.8575 158.927 44.4575C159.313 46.5775 159.7 48.6975 160.087 50.8175C160.502 51.9447 160.638 53.1558 160.483 54.3471C160.328 55.5384 159.887 56.6743 159.197 57.6575C158.718 58.2286 158.389 58.9091 158.237 59.6383C158.085 60.3676 158.116 61.123 158.327 61.8375C159.107 64.4575 157.747 65.7675 155.477 66.5175C155.325 66.4282 155.194 66.3083 155.091 66.1656C154.988 66.0228 154.916 65.8603 154.879 65.6882C154.843 65.5162 154.842 65.3384 154.878 65.1661C154.914 64.9939 154.985 64.8309 155.087 64.6875V64.6875Z" fill="#E81E25"/>
<path d="M20.2971 27.3875C23.0171 25.8675 25.6271 24.0375 28.9271 23.9575C34.0471 20.2375 39.4771 22.9575 44.6871 23.4875C47.0171 23.7075 45.4371 26.1275 44.9871 27.5775C43.5071 29.3975 41.2771 29.3675 39.2671 29.8575C30.0271 32.1275 22.2671 36.5575 17.0271 44.7975C15.505 46.6472 14.458 48.8408 13.9771 51.1875C13.4188 53.0908 13.2355 55.0843 13.4371 57.0575C13.2671 60.3575 14.6271 63.2975 15.7871 66.2275C16.2199 67.4589 16.9819 68.5481 17.9904 69.3768C18.9989 70.2054 20.2152 70.7418 21.5071 70.9275C25.8371 71.5175 30.1471 72.6275 34.5871 71.9275C35.6222 71.6608 36.7005 71.6064 37.7571 71.7675C47.2371 74.0575 57.0871 72.8475 66.5871 74.7675C69.5871 75.3675 72.1071 72.8975 75.0271 74.0375C75.3035 74.2858 75.5152 74.5977 75.6441 74.9461C75.7731 75.2945 75.8153 75.6691 75.7671 76.0375C72.9171 87.0375 63.9371 88.4575 54.7671 89.1775C49.9371 89.5575 45.4771 90.3975 41.6771 93.6075C41.1177 94.1417 40.4294 94.522 39.6794 94.7112C38.9294 94.9005 38.1431 94.8923 37.3971 94.6875C29.8671 92.0975 21.7771 90.5275 16.3971 83.8275C7.78713 74.1275 3.30713 63.2675 6.78713 50.0975C7.30713 48.0975 7.38713 45.9675 7.78713 43.9075C8.23713 41.2875 10.2771 39.7975 11.6971 37.8375C14.2971 34.1275 19.4171 32.4575 20.2971 27.3875Z" fill="#E81E25"/>
<path d="M16.3564 83.7972C22.5034 87.6859 29.085 90.8407 35.9664 93.1972C37.8964 93.8272 39.6864 94.1371 41.0264 92.7471C44.5364 89.1071 48.7864 88.2572 53.6364 88.0772C57.8879 87.8628 62.0982 87.1376 66.1764 85.9172C67.7982 85.4501 69.2825 84.5964 70.5017 83.4294C71.721 82.2624 72.6388 80.8169 73.1764 79.2171C73.6264 77.9771 73.6664 76.4271 75.3864 76.0771C78.2364 78.7971 75.1564 81.0772 74.8564 83.5772C71.9064 87.4172 74.2964 91.2572 75.3364 94.7672C77.2164 101.097 74.2465 106.487 67.5365 108.187C60.8265 109.887 53.7465 109.657 46.8165 109.917C46.3568 109.972 45.8908 109.909 45.4622 109.734C45.0336 109.559 44.6565 109.278 44.3664 108.917C41.2364 104.787 36.3664 104.547 31.9464 103.257C31.3064 101.027 29.4164 100.257 27.5364 99.4072C24.6564 96.4072 22.3664 92.8272 18.5964 90.7572C18.5264 88.2472 16.8464 86.2072 16.3564 83.7972Z" fill="#E81E25"/>
<path d="M112.317 59.2876C111.317 60.1076 109.987 60.6776 110.107 62.3576C110.417 66.9776 108.357 70.9976 106.777 75.1376C105.627 78.9776 106.307 82.2276 109.627 84.7876C116.097 89.7876 122.997 94.2076 129.367 99.3376C130.527 100.268 131.287 99.6376 132.237 99.2376C134.857 98.1576 136.667 96.1676 138.517 94.0976C140.217 92.1876 141.647 89.2576 145.167 90.5976C146.237 96.4976 138.047 109.848 132.497 111.428C129.067 112.428 127.007 110.528 126.077 107.858C123.627 100.858 118.077 96.6676 112.557 92.4676C109.817 90.3876 106.307 89.3576 104.357 86.2476C103.355 85.5766 102.606 84.5909 102.227 83.4462C101.849 82.3016 101.862 81.0634 102.267 79.9276C103.127 76.7076 101.757 73.0576 104.017 70.0576C105.837 65.9576 108.207 61.9976 108.837 57.5376C109.567 52.2776 106.777 48.1676 102.977 44.9476C97.1067 39.9476 92.8866 33.5776 87.8066 27.9476C86.6866 26.7076 86.9766 25.5276 87.8966 24.2676C89.5766 21.9776 91.1566 19.6176 92.7766 17.2676C93.0866 19.2676 93.9666 21.2676 91.3166 22.6376C89.9066 23.3676 89.9466 25.3676 90.4466 26.6976C91.0166 28.1976 92.4467 28.3076 93.7567 27.3276C95.2267 28.3276 96.0366 30.0076 97.2766 31.2476C97.5281 31.5634 97.7554 31.8977 97.9566 32.2476C98.2766 32.7476 98.5666 33.2476 98.8866 33.7576C100.387 35.9176 102.747 37.2776 104.217 39.4676C107.087 44.1176 111.617 47.3676 114.577 51.9376C115.237 54.7976 115.307 57.5176 112.317 59.2876Z" fill="#E81E25"/>
<path d="M104.017 70.0572C103.187 74.0572 104.517 78.1772 102.837 82.1072C102.067 83.9072 104.887 84.1072 104.937 85.6772C107.027 89.9272 110.847 92.5372 114.597 94.8672C122.947 100.037 126.707 106.867 125.257 116.867C124.567 120.966 124.645 125.157 125.487 129.227C128.487 127.537 128.487 124.657 130.287 123.067C131.497 121.897 132.367 120.447 133.487 119.227C134.607 118.007 135.907 116.827 137.797 117.957C135.229 124.707 131.732 131.065 127.407 136.847C126.942 137.565 126.238 138.095 125.419 138.342C124.601 138.589 123.721 138.538 122.937 138.197C121.868 137.735 120.977 136.94 120.395 135.932C119.814 134.923 119.572 133.754 119.707 132.597C120.037 126.657 119.307 120.737 119.797 114.807C119.927 113.337 120.447 111.757 119.127 110.497C117.207 102.817 109.917 99.8372 105.237 94.5772C103.647 92.9372 101.917 91.4172 100.897 89.3172L99.8967 88.5172C95.9967 85.8272 96.0568 82.5172 97.7568 78.4172C99.7568 73.6272 101.187 68.5872 102.857 63.6572C103.227 65.7872 103.617 67.9172 104.017 70.0572Z" fill="#E81E25"/>
<path d="M74.8271 83.5777C74.0171 81.0077 76.7071 78.6877 75.3571 76.0777C75.2571 75.4877 75.1471 74.8877 75.0471 74.2977C75.1671 70.2977 78.2871 67.2977 78.4471 63.2977C78.9471 61.6577 78.1371 60.1677 77.8971 58.6077C77.8039 58.0718 77.8811 57.5201 78.1179 57.0304C78.3547 56.5406 78.7392 56.1375 79.2171 55.8777L80.8271 54.6777C84.8271 57.6777 80.8871 61.5177 81.8271 64.6777C83.6471 70.8077 77.1971 74.5877 77.9671 80.2677C75.5671 80.6977 76.9671 83.7777 75.0371 84.5177C74.9571 84.2077 74.8971 83.8877 74.8271 83.5777Z" fill="#E81E25"/>
<path d="M79.2168 55.8873L78.7568 58.8873C75.9468 59.5473 74.7568 57.4173 73.3268 55.7073C68.2945 49.5021 62.7591 43.7225 56.7768 38.4273C54.5168 35.9773 52.7768 33.0573 50.0568 31.0073C48.6468 29.1473 46.2468 28.9273 44.4668 27.6873C44.2684 27.1506 44.213 26.5717 44.3059 26.0072C44.3988 25.4426 44.6369 24.912 44.9968 24.4673C39.5168 23.9573 34.2468 22.0673 28.9268 23.9873C29.8468 20.4573 33.4068 20.8373 35.1568 21.3273C38.8468 22.3273 42.5368 21.3273 46.2468 22.3273C48.6813 22.9803 50.9041 24.2553 52.6967 26.0273C58.8367 32.0773 64.4268 38.6573 70.5868 44.7173C73.6668 47.7673 79.1968 50.0673 79.2168 55.8873Z" fill="#E81E25"/>
<path d="M161.156 26.6574L161.616 28.1574C162.601 29.0475 163.263 30.2391 163.498 31.5455C163.734 32.852 163.529 34.1997 162.916 35.3774C160.456 32.9074 161.306 29.4874 160.396 26.5674C160.652 26.577 160.906 26.6071 161.156 26.6574V26.6574Z" fill="#E81E25"/>
<path d="M144.837 90.6573C142.117 90.9473 140.397 92.9373 139.257 94.9173C137.257 98.3873 133.777 99.4473 130.767 101.357C129.577 102.107 129.267 101.827 128.947 100.707C128.337 98.5572 126.407 97.5273 124.707 96.8273C118.417 94.2573 114.167 88.9172 108.597 85.3672C107.728 84.8814 106.978 84.2088 106.402 83.3979C105.825 82.587 105.435 81.6582 105.261 80.6784C105.087 79.6986 105.132 78.6924 105.395 77.7324C105.657 76.7724 106.129 75.8826 106.777 75.1273C106.777 80.5173 109.137 83.8573 114.657 85.0373C117.077 85.5573 119.567 86.3773 121.287 88.6573C122.287 89.9173 124.197 90.4773 125.107 88.6573C127.777 83.2673 132.697 83.9872 136.877 84.8372C142.147 85.9172 144.547 83.3573 146.397 79.4373C147.95 76.1653 149.286 72.7947 150.397 69.3473C151.197 66.8673 153.977 66.6873 155.077 64.6973L155.467 66.5273L155.887 69.1873C152.887 74.8073 151.817 81.1873 148.987 86.8573C148.137 88.4773 147.967 91.3273 144.837 90.6573Z" fill="#E81E25"/>
<path d="M144.837 90.6577C148.937 86.9577 149.837 81.6577 151.697 76.8577C152.697 74.1277 153.137 71.0177 155.857 69.1777C155.957 69.9277 156.427 70.9077 156.117 71.3977C152.017 77.7177 152.947 86.0077 148.517 91.9877C145.277 96.3677 144.687 101.988 140.957 105.988C140.527 106.438 140.647 107.408 140.517 108.138C140.447 108.338 140.387 108.548 140.337 108.748C138.097 114.238 134.037 118.598 131.207 123.748C129.527 125.038 129.317 127.148 128.447 128.878C127.867 130.038 127.367 131.148 125.857 130.948C124.157 130.728 123.637 129.348 123.667 127.948C123.757 124.178 123.477 120.338 123.807 116.648C124.807 105.418 122.917 101.868 113.387 95.5877C109.917 93.2977 105.437 90.9477 104.937 85.7077C110.247 90.1877 116.277 93.7077 121.607 98.2177C124.727 100.878 125.057 104.488 126.907 107.478C129.267 111.308 131.637 111.718 134.507 109.198C140.087 104.278 143.227 97.8577 144.837 90.6577Z" fill="#E81E25"/>
<path d="M119.567 110.027C121.727 110.027 121.567 111.327 121.247 112.797C119.907 119.077 121.787 125.437 120.737 131.797C120.387 133.907 120.787 136.797 123.497 137.457C126.207 138.117 127.017 135.457 128.367 133.657C132.007 128.747 133.297 122.477 137.607 117.987C137.441 117.717 137.36 117.402 137.374 117.085C137.388 116.768 137.497 116.462 137.687 116.207C139.927 110.827 143.247 106.107 146.757 101.497C148.407 100.037 148.947 97.9974 149.447 95.9874C149.907 94.1374 150.387 92.5374 152.827 93.1974C153.357 95.1374 152.307 96.7674 151.697 98.4374C146.306 112.979 139.436 126.929 131.197 140.067C129.257 143.167 128.297 147.067 124.357 148.557C121.947 147.997 119.007 148.397 117.977 145.167C117.977 145.167 117.197 146.377 116.307 145.857C116.647 141.191 116.98 136.524 117.307 131.857L117.967 121.777C118.047 119.517 116.877 117.327 117.657 115.037C118.147 113.247 117.537 111.127 119.567 110.027Z" fill="#E81E25"/>
<path d="M146.757 101.458C146.577 104.188 144.257 105.778 143.227 108.078C141.857 111.128 139.997 113.948 138.347 116.868C135.827 113.158 138.807 110.808 140.507 108.138C143.087 106.378 143.447 102.538 146.757 101.458Z" fill="#E81E25"/>
<path d="M118.717 158.397C117.997 159.327 117.267 160.247 116.557 161.187C114.557 163.797 115.027 161.017 114.557 160.267L116.297 145.817L117.897 144.367C119.077 147.427 123.027 145.887 124.537 148.367C124.352 150.361 123.735 152.291 122.73 154.023C121.725 155.755 120.356 157.247 118.717 158.397V158.397Z" fill="#E81E25"/>
<path d="M103.247 39.5478L97.7969 33.9478C100.221 32.5216 102.452 30.7909 104.437 28.7978C108.807 24.9078 113.657 21.1678 120.317 22.6978C121.367 22.8876 122.445 22.8672 123.487 22.6378C127.373 21.8761 131.382 22.0271 135.2 23.0787C139.018 24.1302 142.539 26.0538 145.487 28.6978C147.487 30.4378 149.797 32.0078 151.407 28.1178C153.637 30.3578 152.777 33.5178 153.787 36.1178C153.954 36.3243 154.045 36.582 154.045 36.8478C154.045 37.1135 153.954 37.3712 153.787 37.5778C153.36 38.1161 152.813 38.5474 152.189 38.8373C151.566 39.1272 150.884 39.2677 150.197 39.2478C139.827 39.3778 129.947 42.8878 119.647 43.5278C113.717 43.9078 107.677 45.1278 103.247 39.5478Z" fill="#E81E25"/>
<path d="M153.877 37.0374L153.787 36.1274C154.605 37.0343 155.177 38.1349 155.45 39.3249C155.723 40.5149 155.688 41.7549 155.347 42.9274C154.405 46.9079 153.137 50.8044 151.557 54.5774C150.097 58.0574 146.867 59.4174 143.317 60.3174C136.637 62.0274 129.697 61.4974 122.997 62.9574C121.807 63.2174 120.567 63.3074 119.417 63.6674C113.417 65.5174 113.417 65.5374 112.317 59.2874C113.187 56.8074 114.647 54.4374 113.687 51.6274C118.597 53.7874 123.457 52.2274 128.317 51.4274C132.967 50.6574 137.577 49.5674 142.317 49.1274C149.147 48.4874 152.027 45.8874 153.167 39.1774C153.274 38.4275 153.515 37.7027 153.877 37.0374V37.0374Z" fill="#E81E25"/>
<path d="M151.407 28.1276C151.267 29.5576 152.777 31.3376 151.237 32.3276C149.897 33.1876 148.357 31.9576 147.067 31.2176C143.207 28.9776 140.017 25.8376 135.537 24.2976C133.125 23.5561 130.587 23.3112 128.077 23.5776C120.617 23.9976 112.587 22.2376 106.377 28.4476C105.667 29.1576 104.787 29.4976 104.307 30.6376C104.102 31.287 103.77 31.8892 103.329 32.4088C102.889 32.9285 102.35 33.3553 101.743 33.6643C101.136 33.9733 100.474 34.1584 99.7945 34.2088C99.1153 34.2591 98.4329 34.1738 97.787 33.9576C97.587 33.4676 97.377 32.9576 97.167 32.4776C102.057 26.0176 107.387 19.3676 115.507 17.7676C124.225 15.8922 133.327 17.2611 141.107 21.6176C143.047 22.7176 145.037 24.8476 147.747 23.1576C149.397 24.4502 150.662 26.1686 151.407 28.1276V28.1276Z" fill="#E81E25"/>
<path d="M147.747 23.1277C148.377 26.0677 146.927 25.7077 145.047 24.9077C140.777 23.0777 136.927 20.3477 132.217 19.4977C119.367 17.1677 111.447 17.4277 102.677 27.8677C101.101 29.6831 99.2403 31.23 97.1674 32.4477L97.2174 32.2977C96.7274 28.8077 99.0574 26.7577 101.157 24.5777C108.257 17.1877 117.057 13.3177 127.157 12.0977C133.797 12.0977 139.157 15.0977 143.957 19.3577C145.257 20.5677 146.477 21.8877 147.747 23.1277Z" fill="#E81E25"/>
<path d="M127.087 12.1271C125.087 15.2371 121.397 14.3671 118.637 15.1871C109.007 18.0571 102.157 23.8871 97.1768 32.3271C95.5368 31.0071 93.7468 29.7771 93.7168 27.3271C98.3168 21.5371 103.247 16.1771 110.717 14.0371C115.702 12.2276 121.033 11.5745 126.307 12.1271C126.562 12.0592 126.831 12.0592 127.087 12.1271V12.1271Z" fill="#E81E25"/>
<path d="M126.307 12.1274C121.082 12.3833 115.882 13.0115 110.747 14.0074C115.717 11.6674 120.847 10.5674 126.307 12.1274Z" fill="#E81E25"/>
<path d="M79.4366 63.2377C78.9542 67.2352 77.4567 71.0427 75.0866 74.2977C69.5066 77.7477 63.5866 75.1777 57.9066 74.9777C46.3366 74.5677 34.7966 73.3177 23.2466 72.4177C17.7166 71.9877 15.4166 70.0277 13.8666 64.4177C13.1666 61.8577 11.1266 59.5377 12.5066 56.6277C19.1966 55.6277 25.9366 54.4177 32.6766 55.2377C42.5635 56.5673 52.5143 57.3685 62.4866 57.6377C68.6666 57.7077 74.2366 59.9577 79.4366 63.2377Z" fill="#E81E25"/>
<path d="M79.4373 63.2375C71.9173 61.3475 64.7173 57.2375 56.6773 58.6875C50.2273 59.8175 43.8173 58.2475 37.9673 57.1475C29.2673 55.4975 20.8673 58.6074 12.4673 56.6074C12.0273 54.6074 11.8473 52.6074 13.2373 50.8574C18.1573 50.5574 19.8673 45.8575 23.1273 43.3475C30.3073 37.8275 38.5573 36.6775 47.0373 36.1275C50.4773 35.9075 53.8873 37.0475 57.3073 37.5675C63.6773 42.5675 68.8773 48.6775 74.0873 54.7575C75.3633 56.4141 76.9495 57.8066 78.7573 58.8574C79.1873 60.2874 80.7173 61.5375 79.4373 63.2375Z" fill="#E81E25"/>
<path d="M57.3073 37.5674C53.9673 39.6374 50.6773 37.5674 47.4573 37.2274C40.2073 36.5374 33.6573 39.4073 27.3973 41.7173C24.4773 42.7973 19.7873 45.5173 18.5273 50.4673C17.9673 52.7073 15.1173 51.4673 13.2373 50.8573C13.2855 48.5571 14.2206 46.3644 15.8473 44.7374C21.3873 37.9774 30.0473 36.7374 37.1773 32.8174C39.7581 31.4641 42.7396 31.0843 45.5773 31.7473C46.4589 31.9566 47.3799 31.9311 48.2485 31.6731C49.1171 31.4152 49.9029 30.9339 50.5273 30.2773C53.6273 31.9273 55.1973 35.0074 57.3073 37.5674Z" fill="#E81E25"/>
<path d="M50.5264 30.2774C51.1564 33.6974 48.9364 33.9274 46.6864 33.2774C44.7506 32.6426 42.6864 32.5031 40.6827 32.8717C38.679 33.2403 36.7997 34.1052 35.2164 35.3874C33.3264 36.8674 30.7764 37.0474 28.5864 37.9974C24.1164 39.9374 19.6564 41.4274 16.8564 45.8074C16.5864 46.2174 16.0664 45.2174 15.8564 44.7074C20.9464 35.4674 29.3064 30.9774 39.1664 28.7074C40.9264 28.3074 42.7065 27.9974 44.4765 27.6474C47.0065 27.3174 49.1964 27.8074 50.5264 30.2774Z" fill="#E81E25"/>
<path d="M153.877 37.0371C155.197 44.6471 150.607 49.6471 142.827 50.3571C135.577 51.0171 128.397 52.6271 121.237 54.0371C118.137 54.6371 115.557 54.4871 113.697 51.6271C109.817 47.9371 105.907 44.2871 103.247 39.5471C108.477 43.1071 114.187 42.5971 120.177 42.2371C130.557 41.6171 140.377 37.1171 150.947 38.1171C151.887 38.2071 152.897 37.4171 153.877 37.0371Z" fill="#E81E25"/>
<path d="M140.507 108.127C140.167 111.127 136.827 113.397 138.347 116.857L137.607 117.937C133.937 118.167 133.607 122.117 131.207 123.717C133.857 118.257 136.207 112.617 140.507 108.127Z" fill="#E81E25"/>
<path d="M317.906 369.127C320.006 373.567 322.336 377.887 323.376 382.887C321.266 385.517 319.876 385.677 318.266 383.027C310.766 370.687 300.787 361.747 289.487 354.537C288.587 353.967 287.626 353.427 287.396 352.087C287.706 350.087 288.906 350.447 290.036 350.847C291.229 351.399 292.385 352.027 293.496 352.727C294.496 353.237 295.386 354.947 296.496 353.797C297.116 353.179 297.522 352.379 297.655 351.514C297.788 350.648 297.641 349.763 297.237 348.987C296.427 347.357 296.456 346.137 298.466 345.987C306.466 351.377 313.097 358.327 317.237 368.077L317.906 369.127Z" fill="#413617" stroke="#403616" stroke-width="3" stroke-linecap="round" stroke-linejoin="round"/>
<path d="M138.677 373.347C136.304 375.927 134.262 378.793 132.597 381.877C131.597 383.487 130.547 384.487 128.777 384.007C127.647 382.107 128.397 380.307 129.047 378.537C133.396 366.741 140.715 356.267 150.297 348.127C151.297 347.247 152.347 346.417 153.367 345.567C155.627 344.787 156.367 345.567 155.367 348.127C154.907 349.227 153.477 350.207 154.847 351.477C155.907 352.477 157.277 352.137 158.497 351.607C159.717 351.077 160.317 349.927 161.427 349.607C162.807 349.207 164.427 348.337 165.087 350.867C155.357 356.977 146.087 363.687 138.677 373.347Z" fill="#413617" stroke="#403616" stroke-width="3" stroke-linecap="round" stroke-linejoin="round"/>
<path d="M165.087 350.897C164.796 350.572 164.431 350.321 164.023 350.164C163.616 350.007 163.176 349.949 162.742 349.995C162.308 350.041 161.89 350.189 161.524 350.428C161.158 350.666 160.854 350.988 160.637 351.367C159.317 353.207 157.747 353.107 155.967 353.307C155.386 353.408 154.787 353.308 154.27 353.025C153.752 352.742 153.346 352.291 153.117 351.747C152.781 351.181 152.678 350.506 152.831 349.866C152.984 349.226 153.381 348.67 153.937 348.317C155.787 346.797 155.687 345.957 153.397 345.607L155.877 343.017H155.817C163.187 336.417 171.817 332.707 180.437 329.147C185.704 327.017 191.222 325.568 196.857 324.837C197.857 325.067 199.137 324.967 199.187 326.507C199.187 327.637 198.187 328.137 197.307 328.507C195.844 329.033 194.347 329.46 192.827 329.787C185.577 331.687 178.207 333.197 172.467 339.437C170.887 341.157 167.987 340.967 166.927 344.207C172.927 342.777 178.377 339.897 184.347 340.207C185.857 340.287 187.797 339.287 188.347 342.067C181.584 344.026 174.987 346.517 168.617 349.517C167.477 350.057 166.467 351.177 165.087 350.897Z" fill="#413617" stroke="#403616" stroke-width="3" stroke-linecap="round" stroke-linejoin="round"/>
<path d="M269.277 330.327C275.997 333.197 282.807 335.807 289.277 339.417C292.277 341.887 295.817 343.417 298.357 346.587C297.677 346.747 296.887 347.367 297.607 347.927C300.037 349.837 298.377 351.747 297.847 353.667C297.207 355.947 296.247 355.967 294.467 354.827C292.377 353.477 290.617 350.487 287.607 352.197C279.757 347.557 271.217 345.197 262.917 342.027C263.147 339.627 264.757 340.277 265.857 340.517C271.937 341.797 278.137 342.267 284.127 344.107C284.339 344.23 284.59 344.265 284.827 344.205C285.064 344.145 285.269 343.995 285.397 343.787C280.267 340.567 275.557 336.697 270.397 333.697C269.487 333.167 268.297 332.977 267.837 331.827C267.087 329.887 268.087 329.907 269.277 330.327Z" fill="#413617" stroke="#403616" stroke-width="3" stroke-linecap="round" stroke-linejoin="round"/>
<path d="M195.177 325.677C195.297 325.457 195.406 325.237 195.516 325.007C199.136 323.007 203.097 322.727 206.977 322.667C220.447 322.437 233.977 321.027 247.337 324.187C250.147 324.857 253.186 324.897 255.736 326.777C258.486 328.157 261.636 328.117 264.266 329.937C263.186 330.237 262.367 330.937 263.977 331.507C269.927 333.507 274.346 338.507 279.736 341.607C280.656 342.137 281.656 342.947 281.326 344.117C280.846 345.847 279.597 344.597 278.847 344.337C272.627 342.187 266.057 342.337 259.847 340.337C259.533 340.264 259.204 340.299 258.912 340.435C258.62 340.57 258.382 340.8 258.236 341.087C241.664 337.301 224.596 336.16 207.666 337.707C200.806 338.367 194.047 339.777 187.277 341.097C184.467 338.737 180.986 340.227 178.576 340.857C175.086 341.757 171.007 341.727 167.967 344.677C167.838 344.861 167.666 345.011 167.465 345.111C167.264 345.212 167.042 345.261 166.818 345.254C166.593 345.247 166.374 345.185 166.18 345.072C165.986 344.959 165.823 344.799 165.706 344.607C165.369 344.248 165.177 343.777 165.166 343.284C165.154 342.791 165.326 342.312 165.647 341.937C166.018 341.395 166.466 340.91 166.977 340.497C174.397 334.637 182.127 329.627 191.277 328.327C193.512 328.182 195.658 327.393 197.456 326.057L195.177 325.677Z" fill="#413617" stroke="#403616" stroke-width="3" stroke-linecap="round" stroke-linejoin="round"/>
<path d="M178.787 336.587C187.417 329.647 196.707 328.867 205.737 327.587C217.412 325.956 229.266 326.101 240.897 328.017C247.977 329.167 254.897 330.577 261.557 333.407C262.492 333.849 263.3 334.52 263.907 335.357C264.227 335.757 264.687 336.277 264.237 336.807C264.085 336.988 263.893 337.132 263.676 337.227C263.459 337.323 263.224 337.367 262.987 337.357C256.927 335.947 250.757 335.417 244.667 334.137C240.897 333.347 236.747 333.777 232.757 333.527C226.867 333.157 220.847 332.627 215.077 333.617C206.667 335.057 198.077 333.337 189.737 336.387C186.667 337.527 183.027 336.587 178.787 336.587Z" fill="#413617" stroke="#403616" stroke-width="3" stroke-linecap="round" stroke-linejoin="round"/>
<path d="M150.297 348.128C150.297 348.128 206.727 295.287 280.907 335.237C280.907 335.237 315.067 353.858 322.137 378.508C315.547 378.818 299.047 343.607 236.217 337.347C173.387 331.087 152.727 362.458 143.217 365.438C133.707 368.418 150.297 348.128 150.297 348.128Z" fill="#413617" stroke="#403616" stroke-width="3" stroke-linecap="round" stroke-linejoin="round"/>
<path d="M146.627 363.658C146.627 363.658 195.217 327.488 246.437 339.088C243.437 338.888 294.137 345.268 316.517 380.278C316.807 377.718 314.087 367.128 314.087 367.128L284.087 344.128C284.087 344.128 273.087 341.128 272.277 341.128C271.467 341.128 245.587 332.128 237.777 331.998C229.967 331.868 199.117 334.638 199.117 334.638L187.087 339.128L181.387 342.878L155.897 353.348L140.197 358.668L146.627 363.658Z" fill="#413617" stroke="#403616" stroke-width="3" stroke-linecap="round" stroke-linejoin="round"/>
<path d="M280.926 153.457C280.926 153.457 324.326 206.737 367.156 199.667C369.326 200.257 379.566 208.477 362.446 214.537C361.986 213.967 304.446 221.717 276.196 167.657C275.986 167.127 270.526 152.977 280.926 153.457Z" fill="#403616"/>
<path d="M179.826 151.457C179.826 151.457 136.426 204.737 93.5965 197.667C91.4265 198.257 81.1865 206.477 98.3065 212.537C98.7765 211.967 156.306 219.717 184.556 165.657C184.766 165.127 190.226 150.977 179.826 151.457Z" fill="#403616"/>
<path d="M265.517 231.688C275.517 235.268 285.517 238.911 295.517 242.618C306.247 246.618 317.037 250.448 327.627 254.798C332.047 256.608 336.317 258.488 340.877 259.888C344.657 261.048 348.967 264.028 352.967 262.168C355.447 261.018 356.867 258.228 357.067 255.488C357.12 252.735 356.571 250.005 355.457 247.488C352.807 240.568 349.677 238.218 343.867 234.278C339.054 230.998 334.044 228.016 328.867 225.348C314.807 218.118 299.287 213.058 283.377 212.638C282.987 213.988 263.087 214.718 265.517 231.688Z" fill="#403616"/>
<path d="M198.877 231.688C188.877 235.268 178.877 238.911 168.877 242.618C158.147 246.618 147.357 250.448 136.767 254.798C132.347 256.608 128.067 258.488 123.517 259.888C119.737 261.048 115.427 264.028 111.427 262.168C108.947 261.018 107.527 258.228 107.327 255.488C107.274 252.735 107.823 250.005 108.937 247.488C111.587 240.568 114.717 238.218 120.527 234.278C125.34 230.998 130.35 228.016 135.527 225.348C149.587 218.118 165.107 213.058 181.017 212.638C181.407 213.988 201.347 214.718 198.877 231.688Z" fill="#403616"/>
</svg>
