<svg width="415" height="419" viewBox="0 0 415 419" fill="none" xmlns="http://www.w3.org/2000/svg">
<path d="M414.008 211.128C414.008 325.408 321.358 418.047 207.088 418.047C92.818 418.047 0.167969 325.408 0.167969 211.128C0.167969 96.8475 92.808 4.20752 207.088 4.20752C321.368 4.20752 414.008 96.8475 414.008 211.128Z" fill="#FFD120"/>
<path d="M275.267 43.8675L275.967 43.7275C293.277 40.0075 301.267 22.8875 312.157 10.8575C324.907 -3.22253 337.357 0.577473 342.617 18.2075C343.227 20.2075 355.117 60.2075 355.117 60.2075C355.117 60.2075 399.567 69.3675 404.497 80.2675C408.047 88.1275 403.777 94.8075 398.037 100.477C388.857 109.537 375.757 113.977 367.317 123.817C355.167 137.967 364.197 155.817 362.317 172.357C361.777 177.147 360.177 182.047 356.667 185.357C345.437 195.877 327.667 178.097 318.667 171.897C310.877 166.477 301.957 161.817 292.387 160.817C282.257 159.757 274.257 165.667 264.657 167.977C257.657 169.677 249.917 169.767 243.507 166.437C222.507 155.507 243.957 126.647 245.707 110.177C246.617 101.547 245.137 92.3275 239.827 85.4675C236.177 80.7375 231.007 77.4675 226.827 73.1875C222.647 68.9075 219.307 62.9175 220.827 57.1875C226.637 35.7475 260.617 46.5675 275.267 43.8675Z" fill="#5DACEB"/>
<path d="M136.226 42.1874L135.526 42.0574C118.216 38.3274 110.226 21.2074 99.3363 9.18742C86.5863 -4.90258 74.1363 -1.09257 68.8663 16.5374C68.2663 18.5374 56.3763 58.5374 56.3763 58.5374C56.3763 58.5374 11.9263 67.6874 6.99629 78.5874C3.44629 86.4574 7.70628 93.1374 13.4563 98.8074C22.6363 107.867 35.7363 112.307 44.1763 122.137C56.3263 136.297 47.2863 154.137 49.1763 170.677C49.7263 175.477 51.3163 180.377 54.8363 183.677C66.0663 194.207 83.8363 176.427 92.7863 170.227C100.576 164.807 109.496 160.127 119.086 159.127C129.216 158.067 137.216 163.987 146.816 166.297C153.816 167.987 161.556 168.077 167.966 164.747C188.966 153.827 167.516 124.967 165.766 108.487C164.856 99.8674 166.336 90.6474 171.636 83.7774C175.296 79.0574 180.466 75.7774 184.636 71.5074C188.806 67.2374 192.156 61.2374 190.636 55.5074C184.856 34.0674 150.866 44.8974 136.226 42.1874Z" fill="#5DACEB"/>
<path d="M207.347 328.598C166.827 327.908 134.527 310.928 108.977 280.268C106.377 277.158 104.127 273.748 101.787 270.428C100.047 267.938 99.7873 265.288 102.037 263.018C104.287 260.748 106.977 260.758 109.757 262.628C124.86 272.779 141.261 280.852 158.517 286.628C196.407 299.398 233.517 296.768 270.027 281.278C281.808 276.391 293.057 270.309 303.597 263.128C306.437 261.128 309.257 260.128 312.017 262.948C314.777 265.768 313.747 268.588 311.787 271.368C290.497 301.588 262.327 321.128 225.397 327.128C223.247 327.468 221.097 327.808 218.937 327.968C215.017 328.238 211.087 328.398 207.347 328.598Z" fill="#664501"/>
</svg>
