<svg width="492" height="415" viewBox="0 0 492 415" fill="none" xmlns="http://www.w3.org/2000/svg">
<path d="M414 207.128C414 321.408 321.35 414.047 207.08 414.047C92.8102 414.047 0.160156 321.408 0.160156 207.128C0.160156 92.8475 92.8002 0.20752 207.08 0.20752C321.36 0.20752 414 92.8475 414 207.128Z" fill="#FFD120"/>
<path d="M341.951 53.5774C347.411 48.7174 352.887 43.8807 358.381 39.0674C361.381 36.4874 374.681 26.5974 363.241 26.5974C350.241 26.7874 337.161 27.0174 324.121 26.5174C317.171 23.9174 315.221 20.3274 317.561 14.5174C321.371 5.10738 341.641 9.43738 349.871 9.43738H391.021C397.351 9.43738 408.231 13.0874 404.091 21.5574C402.891 24.0174 400.751 25.8674 398.671 27.6574L356.971 63.4274C355.441 64.7374 353.771 66.4274 354.121 68.4274C354.336 69.2033 354.78 69.8962 355.396 70.4154C356.011 70.9346 356.769 71.256 357.571 71.3374C370.811 73.2674 383.901 70.0274 397.201 71.7674C398.8 71.8741 400.358 72.3207 401.771 73.0774C405.261 75.2274 405.571 80.6274 403.151 83.9474C400.731 87.2674 396.461 88.7274 392.361 89.0074C387.541 89.3274 378.121 90.0774 373.411 88.6374C368.201 87.0574 362.851 87.9174 357.571 87.8174C347.091 87.6074 336.571 87.6374 326.131 87.8174C321.771 87.8874 319.131 86.0674 317.491 82.1974C313.761 73.5574 331.381 63.0574 336.701 58.2874L341.951 53.5774Z" fill="#76BFF9"/>
<path d="M428.8 110.978C434.034 106.438 439.347 101.998 444.74 97.6576C447.51 95.4276 455.65 91.1676 456.22 87.2676C456.349 86.2708 456.161 85.2588 455.684 84.3743C455.207 83.4898 454.464 82.7774 453.56 82.3376C452.06 81.7938 450.445 81.6457 448.87 81.9076C441.87 82.4576 422.55 86.6676 421.76 74.9776C421.594 73.1756 422.076 71.3734 423.119 69.8945C424.162 68.4155 425.697 67.3565 427.45 66.9076C430.103 66.2734 432.814 65.9148 435.54 65.8376C449.54 65.7476 463.54 65.7076 477.54 65.8376C482.63 65.8376 490.71 66.5976 491.54 73.1876C491.97 76.5976 489.45 79.5976 487.05 82.0576C478.17 91.1376 466.97 97.3776 458.38 106.808C457.16 108.158 455.88 109.928 456.48 111.648C457.08 113.368 459.16 113.978 460.96 114.148C465.86 114.608 470.77 113.608 475.68 113.348C481.04 113.068 495.62 115.478 490.68 124.468C488.84 127.798 484.33 128.258 480.53 128.308C473.9 128.408 417.22 135.058 421.53 118.978C422.06 117.028 423.64 115.568 425.15 114.228L428.8 110.978Z" fill="#74BFF7"/>
<path d="M176.671 254.788C189.911 241.848 209.371 235.988 226.781 247.108C235.081 252.418 241.221 259.948 245.641 268.968C251.251 280.408 251.881 292.497 250.911 304.727C250.101 314.867 246.271 324.108 240.381 332.508C237.049 337.521 232.793 341.855 227.841 345.278C221.13 349.829 213.171 352.185 205.064 352.02C196.957 351.855 189.101 349.178 182.581 344.357C172.081 336.807 165.991 326.288 162.431 314.708C159.491 305.118 159.841 294.638 161.221 284.448C162.731 273.418 168.521 262.758 176.671 254.788Z" fill="#403616"/>
<path d="M264.01 186.277C256.01 181.957 239.79 163.037 248.81 153.337C256.68 144.877 259.81 155.337 261.68 161.237C263.96 168.607 269.58 174.957 277.56 176.077C286.89 177.377 296.72 170.267 298.04 160.937C298.75 155.937 302.22 148.287 308.92 151.537C313.02 153.537 313.58 159.187 312.63 163.657C311.551 168.746 309.303 173.513 306.064 177.583C302.825 181.653 298.684 184.913 293.968 187.108C289.252 189.302 284.09 190.369 278.891 190.225C273.692 190.081 268.597 188.729 264.01 186.277V186.277Z" fill="#403616"/>
<path d="M121.96 171.437C124.318 173.761 127.292 175.361 130.53 176.048C138.3 177.668 145.78 173.928 149.93 167.328C152.86 162.678 152.93 148.457 161.84 151.097C163.099 151.553 164.225 152.317 165.112 153.319C166 154.322 166.621 155.532 166.92 156.837C167.484 159.457 167.384 162.176 166.63 164.747C165.311 169.889 162.81 174.651 159.326 178.654C155.841 182.658 151.47 185.792 146.56 187.807C130.56 194.197 112.74 187.068 104.56 172.328C103.08 167.588 101.45 162.877 101.56 157.807C101.534 156.219 102.075 154.674 103.087 153.449C104.099 152.224 105.515 151.401 107.08 151.127C114.97 149.677 114.72 157.047 116.38 162.127C117.455 165.639 119.37 168.834 121.96 171.437V171.437Z" fill="#403616"/>
</svg>
