<svg width="415" height="415" viewBox="0 0 415 415" fill="none" xmlns="http://www.w3.org/2000/svg">
<path d="M414.16 207.127C414.16 321.497 321.44 414.207 207.08 414.207C92.72 414.207 0 321.497 0 207.127C0 92.7574 92.71 0.0473633 207.08 0.0473633C321.45 0.0473633 414.16 92.7574 414.16 207.127Z" fill="#FFD120"/>
<path d="M226.33 347.807C218.25 355.227 209.25 358.267 199.33 356.117C190.73 354.247 183.67 348.697 177.86 340.607C172.421 332.854 168.674 324.043 166.86 314.747C164.239 302.336 164.314 289.507 167.08 277.127C168.788 268.934 171.973 261.12 176.48 254.067C181.55 246.317 187.76 240.637 195.54 237.707C200.591 235.733 206.123 235.343 211.4 236.587C219.79 238.587 226.75 243.887 232.4 251.797C237.209 258.648 240.696 266.336 242.68 274.467C245.479 285.116 246.219 296.201 244.86 307.127C242.96 322.317 237.86 335.437 228.53 345.737C227.838 346.47 227.104 347.161 226.33 347.807V347.807Z" fill="#403616"/>
<path d="M204.35 288.328C195.26 288.328 186.18 288.328 177.09 288.328C175.63 288.328 175.22 287.948 175.26 286.328C175.397 278.135 177.595 270.108 181.65 262.988C185.05 257.038 189.65 252.208 195.88 249.678C204.21 246.308 212.02 247.808 219.06 253.478C224.44 257.808 227.96 263.548 230.35 270.068C232.284 275.313 233.315 280.848 233.4 286.438C233.4 287.958 232.92 288.278 231.6 288.278C222.52 288.308 213.43 288.328 204.35 288.328Z" fill="#F2F8F9"/>
<path d="M105.91 179.127C101.964 179.101 98.1883 177.522 95.3994 174.731C92.6104 171.94 91.0334 168.163 91.0098 164.217V128.467C91.0334 124.522 92.6104 120.745 95.3994 117.954C98.1883 115.163 101.964 113.584 105.91 113.557C109.857 113.581 113.636 115.159 116.427 117.951C119.218 120.742 120.796 124.52 120.82 128.467V164.247C120.788 168.189 119.206 171.96 116.416 174.745C113.626 177.53 109.852 179.104 105.91 179.127V179.127Z" fill="#403616"/>
<path d="M292.76 179.127C288.812 179.104 285.034 177.525 282.243 174.734C279.452 171.943 277.873 168.164 277.85 164.217V128.467C277.873 124.52 279.452 120.742 282.243 117.951C285.034 115.159 288.812 113.581 292.76 113.557V113.557C296.707 113.581 300.485 115.159 303.276 117.951C306.068 120.742 307.646 124.52 307.67 128.467V164.247C307.638 168.189 306.056 171.96 303.266 174.745C300.476 177.53 296.702 179.104 292.76 179.127V179.127Z" fill="#403616"/>
<path d="M136.71 90.0073C136.71 90.0073 90.1296 65.0073 68.3496 106.737Z" fill="#403616"/>
<path d="M269.82 85.5476C269.82 85.5476 318.71 65.4276 336.12 109.178Z" fill="#403616"/>
</svg>
