<svg width="414" height="424" viewBox="0 0 414 424" fill="none" xmlns="http://www.w3.org/2000/svg">
<path d="M414 207.128C414 321.408 321.35 414.047 207.08 414.047C92.8102 414.047 0.160156 321.408 0.160156 207.128C0.160156 92.8475 92.8002 0.20752 207.08 0.20752C321.36 0.20752 414 92.8475 414 207.128Z" fill="#FFD120"/>
<path d="M388.381 157.748C372.181 177.698 349.381 191.608 325.641 200.848C306.811 208.188 275.001 221.608 259.561 201.848C244.799 182.967 233.235 161.793 225.331 139.168C219.771 123.248 216.051 106.388 217.331 89.5775C218.611 72.7675 225.481 55.9375 238.261 44.9275C262.901 23.6875 305.641 34.4575 319.341 63.5975C322.091 69.4475 324.441 69.6975 330.181 67.3075C373.601 49.2375 418.441 88.7175 401.931 134.308C398.749 142.82 394.17 150.742 388.381 157.748Z" fill="#DA616E"/>
<path d="M24.7209 158.637C21.1521 154.161 18.0651 149.321 15.5109 144.197C7.26087 127.557 5.51088 107.127 13.7009 90.4475C19.4592 78.7717 29.4396 69.7207 41.6209 65.1275C52.8498 61.0829 65.1262 61.0123 76.4009 64.9275C84.7309 67.7375 89.3309 70.5875 94.4009 61.5575C107.171 38.6675 134.761 27.8375 159.781 37.2575C166.709 39.9172 173.006 43.9928 178.27 49.2238C183.533 54.4548 187.648 60.7263 190.351 67.6375C194.591 78.7075 194.981 90.8875 194.061 102.707C191.061 141.497 174.061 175.977 148.971 205.187C137.701 218.307 120.471 212.267 106.641 207.947C88.0052 202.239 70.1896 194.134 53.6409 183.837C42.7509 177.037 32.6509 168.657 24.7209 158.637Z" fill="#DA616E"/>
<path d="M121.221 282.707C117.591 282.707 115.091 287.707 116.461 292.317C123.611 316.127 147.461 376.087 206.701 376.087C265.941 376.087 290.311 315.717 297.701 291.687C299.111 287.087 296.591 282.017 292.931 282.027L121.221 282.707Z" fill="#403616"/>
<path d="M205.771 423.927C241.371 423.927 270.231 402.562 270.231 376.207C270.231 349.852 241.371 328.487 205.771 328.487C170.17 328.487 141.311 349.852 141.311 376.207C141.311 402.562 170.17 423.927 205.771 423.927Z" fill="#F15C5A"/>
</svg>
