<svg width="412" height="412" viewBox="0 0 412 412" fill="none" xmlns="http://www.w3.org/2000/svg">
<path d="M351.19 351.189C431.306 271.073 431.306 141.179 351.19 61.063C271.073 -19.0531 141.18 -19.0531 61.0636 61.063C-19.0525 141.179 -19.0525 271.073 61.0636 351.189C141.18 431.305 271.073 431.305 351.19 351.189Z" fill="#FFD120"/>
<path d="M207.906 362.207C170.186 360.967 140.356 342.127 116.996 308.577C114.616 305.167 112.566 301.447 110.436 297.807C108.846 295.087 108.626 292.207 110.776 289.807C112.926 287.407 115.406 287.417 117.966 289.477C131.609 300.496 146.789 309.461 163.026 316.087C198.126 330.387 232.706 327.987 266.916 311.607C278.1 306.365 288.668 299.899 298.426 292.327C301.096 290.237 303.736 289.197 306.266 292.237C308.796 295.277 307.796 298.377 305.936 301.377C285.696 333.927 259.186 354.797 224.716 360.837C222.716 361.187 220.716 361.527 218.716 361.677C215.046 361.907 211.356 362.027 207.906 362.207Z" fill="#664501"/>
<path d="M253.355 219.797C251.895 216.997 251.725 214.067 249.025 211.247C241.025 202.887 229.435 195.837 233.435 180.977C233.611 180.378 233.647 179.747 233.542 179.131C233.437 178.516 233.193 177.933 232.828 177.426C232.464 176.919 231.989 176.501 231.439 176.205C230.889 175.909 230.279 175.742 229.655 175.717C218.865 175.627 223.475 167.057 221.835 161.957C212.665 148.897 200.495 155.777 189.175 157.037C186.025 163.597 192.615 174.927 179.465 176.797C178.565 176.927 177.335 180.187 177.535 181.797C179.425 196.797 168.765 203.137 158.535 209.647C153.635 212.757 155.005 220.777 148.225 222.167C146.225 223.777 144.055 225.167 142.225 226.937C124.165 234.797 105.225 228.807 86.7255 230.587C78.8955 231.347 71.8655 230.007 67.9455 222.027C57.6655 219.027 52.9455 209.097 44.9455 203.397C36.1455 197.097 37.5555 183.877 33.2955 180.307C24.6155 173.057 23.0455 166.047 22.5255 156.617C22.3755 153.897 18.9855 153.457 16.5255 153.797C11.1755 154.537 3.35548 154.987 1.08548 148.797C-0.154521 145.407 0.385491 141.397 1.17549 137.977C1.40549 136.977 1.82549 133.737 2.79549 133.177C3.49549 132.777 7.33548 133.497 8.53548 133.277C32.6355 128.927 57.2355 131.587 81.5355 131.517C176.295 131.217 271.055 131.517 365.805 131.297C373.405 131.297 381.005 131.517 388.605 131.767C393.605 131.937 398.605 130.347 403.605 131.347C410.555 132.747 411.815 141.347 411.175 147.347C410.655 152.187 407.575 154.727 402.825 155.027C387.115 156.027 387.145 156.397 387.655 173.897C380.475 176.897 377.655 181.547 376.055 189.897C373.905 201.187 362.345 206.557 353.225 212.817C340.755 226.397 326.055 234.147 306.995 230.627C293.885 228.207 279.465 235.927 267.385 225.507C264.775 218.597 258.355 220.827 253.355 219.797Z" fill="#1A1B1A" stroke="black" stroke-width="0.25" stroke-miterlimit="10"/>
<path d="M112.648 198.337C112.138 192.857 108.648 186.127 119.338 186.397C124.908 186.527 120.557 179.077 124.687 177.397L125.988 178.517C127.53 180.939 128.336 183.757 128.308 186.627C122.098 189.157 124.137 203.237 112.377 198.017L112.648 198.337Z" fill="#F6F8F4" stroke="black" stroke-width="0.25" stroke-miterlimit="10"/>
<path d="M124.688 177.387C126.428 173.387 134.368 177.597 133.818 170.597C133.368 164.887 136.818 164.527 141.168 164.697C145.338 164.857 145.418 167.517 145.608 170.547C145.968 176.227 142.268 176.547 138.118 176.597C136.668 176.721 135.233 176.972 133.828 177.347C131.068 179.677 128.188 179.977 125.178 177.807L124.688 177.387Z" fill="#F8F8F8" stroke="black" stroke-width="0.25" stroke-miterlimit="10"/>
<path d="M112.355 198.008C111.995 202.008 114.825 207.108 109.165 209.228C107.215 209.958 103.885 209.648 102.455 208.388C101.025 207.128 100.455 203.848 100.965 201.848C102.805 194.848 108.235 197.948 112.625 198.338L112.355 198.008Z" fill="#E7E6DF" stroke="black" stroke-width="0.25" stroke-miterlimit="10"/>
<path d="M125.178 177.808L133.828 177.348C134.828 182.118 137.358 187.818 128.308 186.618C124.608 184.628 124.358 181.408 125.178 177.808Z" fill="#F9F9F9" stroke="black" stroke-width="0.25" stroke-miterlimit="10"/>
</svg>
