<svg width="408" height="408" viewBox="0 0 408 408" fill="none" xmlns="http://www.w3.org/2000/svg">
<path d="M348.007 348.007C427.537 268.477 427.537 139.533 348.007 60.0023C268.477 -19.5279 139.532 -19.528 60.0022 60.0023C-19.5281 139.533 -19.5281 268.477 60.0022 348.007C139.532 427.537 268.477 427.537 348.007 348.007Z" fill="#F15F22"/>
<path d="M129.431 156.611C120.101 146.311 108.011 141.341 94.7512 138.611C91.2912 135.911 87.0612 136.281 83.0812 135.671C80.0312 135.211 76.4612 134.671 76.0212 131.221C75.5012 127.301 79.1812 125.681 82.2412 124.691C88.0388 122.979 94.1846 122.824 100.061 124.241C121.261 128.831 138.001 140.241 149.741 158.601C152.141 162.351 154.281 166.871 147.101 168.461C144.101 167.791 142.281 165.461 140.361 163.371C138.141 158.821 134.911 155.901 129.431 156.611Z" fill="#403616"/>
<path d="M82.291 135.551C83.971 136.284 85.6377 137.024 87.291 137.771C91.451 139.631 95.601 141.517 99.741 143.431C105.114 145.911 110.448 148.447 115.741 151.041C121.021 153.621 126.271 156.261 131.431 159.041C135.411 161.123 139.253 163.462 142.931 166.041C143.751 166.631 144.641 167.821 145.541 168.211C146.441 168.601 146.811 167.661 146.941 167.001C147.031 166.032 146.814 165.059 146.321 164.221C145.587 162.744 144.673 161.364 143.601 160.111L135.471 150.241L114.241 138.741L98.971 134.241L82.291 135.551Z" fill="#403616"/>
<path d="M276.552 156.611C285.882 146.311 297.972 141.341 311.232 138.611C314.692 135.911 318.922 136.281 322.902 135.671C325.952 135.211 329.512 134.671 329.962 131.221C330.482 127.301 326.802 125.681 323.742 124.691C317.944 122.979 311.798 122.824 305.922 124.241C284.722 128.831 267.982 140.241 256.242 158.601C253.842 162.351 251.702 166.871 258.882 168.461C261.882 167.791 263.702 165.461 265.622 163.371C267.842 158.821 271.072 155.901 276.552 156.611Z" fill="#403616"/>
<path d="M323.691 135.551C322.011 136.284 320.345 137.024 318.691 137.771C314.531 139.631 310.381 141.517 306.241 143.431C300.868 145.911 295.535 148.447 290.241 151.041C284.961 153.621 279.711 156.261 274.551 159.041C270.571 161.123 266.73 163.462 263.051 166.041C262.231 166.631 261.341 167.821 260.441 168.211C259.541 168.601 259.171 167.661 259.041 167.001C258.951 166.032 259.168 165.059 259.661 164.221C260.396 162.744 261.309 161.364 262.381 160.111L270.511 150.231L291.741 138.731L307.011 134.241L323.691 135.551Z" fill="#403616"/>
<path d="M136.151 313.521C146.151 293.811 161.501 279.731 182.061 272.141C202.141 264.741 220.231 270.821 236.241 283.681C241.661 288.041 247.181 292.611 250.801 298.841C254.201 303.741 257.881 308.461 260.721 313.731C261.721 315.551 263.121 317.481 261.651 319.591C260.181 321.701 257.651 321.091 255.851 320.461C249.251 318.161 242.231 316.271 238.521 309.461C227.911 290.021 205.631 280.631 184.981 288.051C173.571 292.151 161.321 295.991 158.161 310.691C156.871 316.691 149.671 319.241 144.421 320.481C139.171 321.721 132.751 320.261 136.151 313.521Z" fill="#403616"/>
<path d="M147.701 317.741C147.776 317.009 148.097 316.325 148.611 315.801C152.171 311.511 155.761 307.681 158.181 302.561C163.541 291.211 176.721 287.281 188.671 284.091C206.731 279.281 221.371 287.251 235.161 297.571C236.811 298.811 239.161 300.571 239.271 302.141C239.941 315.561 251.801 314.921 260.621 320.631C260.321 310.731 251.741 306.501 250.801 298.841C256.801 302.291 259.461 308.411 262.491 314.061C265.191 319.061 263.891 322.721 257.361 322.811C246.361 321.481 237.301 314.811 226.821 311.811C203.391 305.141 180.821 307.331 158.541 316.271C155.76 317.429 152.843 318.232 149.861 318.661C148.361 318.881 147.721 318.451 147.701 317.741Z" fill="#403616"/>
<path d="M226.802 277.081C226.802 277.081 266.282 300.581 263.212 320.601C263.092 320.771 261.942 328.091 232.292 313.731C233.372 314.171 197.882 298.101 155.762 317.611" fill="#403616"/>
<path d="M135.001 222.181C132.478 222.175 130.06 221.171 128.276 219.386C126.491 217.602 125.487 215.184 125.481 212.661V179.661C125.487 177.137 126.491 174.719 128.276 172.935C130.06 171.151 132.478 170.146 135.001 170.141V170.141C137.525 170.146 139.943 171.151 141.727 172.935C143.511 174.719 144.516 177.137 144.521 179.661V212.661C144.516 215.184 143.511 217.602 141.727 219.386C139.943 221.171 137.525 222.175 135.001 222.181Z" fill="#403616"/>
<path d="M270.482 222.181C267.959 222.175 265.54 221.171 263.756 219.386C261.972 217.602 260.967 215.184 260.962 212.661V179.661C260.967 177.137 261.972 174.719 263.756 172.935C265.54 171.151 267.959 170.146 270.482 170.141V170.141C273.005 170.146 275.424 171.151 277.208 172.935C278.992 174.719 279.997 177.137 280.002 179.661V212.661C279.997 215.184 278.992 217.602 277.208 219.386C275.424 221.171 273.005 222.175 270.482 222.181V222.181Z" fill="#403616"/>
</svg>
