<svg width="424" height="441" viewBox="0 0 424 441" fill="none" xmlns="http://www.w3.org/2000/svg">
<path d="M423.008 233.128C423.008 347.408 330.358 440.047 216.088 440.047C101.818 440.047 9.16797 347.408 9.16797 233.128C9.16797 118.848 101.808 26.2075 216.088 26.2075C330.368 26.2075 423.008 118.848 423.008 233.128Z" fill="#FFD120"/>
<path d="M180.737 26.0274L207.157 31.1274C212.877 32.2374 214.157 33.9874 212.157 39.5774C208.957 48.7274 203.057 56.3374 197.037 63.7574C171.957 94.6974 143.037 121.757 112.877 147.677C106.727 152.967 100.337 157.967 94.0566 163.097C90.9766 164.097 89.8166 161.797 88.7766 159.807C80.8766 144.807 73.3666 129.557 65.5866 114.477C57.2866 98.3674 49.2566 82.1274 40.9366 66.0174C32.7466 50.1774 24.2666 34.4974 15.1066 19.1974C12.2056 14.34 8.90765 9.73092 5.24656 5.41739C4.38656 4.41739 3.53655 3.4174 3.78655 1.9474C3.94145 1.53569 4.17591 1.15851 4.47656 0.837402H21.9066C30.0766 1.8374 38.3166 1.8374 46.5066 2.4874C57.9366 3.3174 69.1866 5.37739 80.5066 7.10739C105.827 10.9874 131.067 15.3974 156.277 19.9274C162.687 21.0774 169.077 22.2874 175.507 23.3074C177.517 23.6174 179.467 24.2074 180.737 26.0274Z" fill="#DC2E43"/>
<path d="M2.60547 5.90765C2.79547 4.30765 2.68546 2.58766 4.36546 1.59766C19.2355 18.4577 28.6455 38.7276 39.0955 58.2477C54.0955 86.2477 68.0955 114.828 82.4555 143.168C85.0755 148.318 87.4555 153.588 90.1255 158.718C91.0255 160.448 91.8055 162.498 94.0655 163.088C84.4555 171.878 73.8455 179.388 63.3155 186.968C55.9355 192.278 48.2155 197.108 40.6355 202.148C39.4415 202.951 38.0673 203.445 36.6355 203.588C33.2855 202.738 32.9455 199.848 32.3155 197.188C27.7255 177.718 24.3155 158.038 20.9855 138.318C16.5855 112.048 12.3755 85.7377 8.84546 59.3177C7.00546 45.5377 4.33547 31.8777 3.24547 18.0077C2.88547 13.9877 2.85547 9.94765 2.60547 5.90765Z" fill="#EA596F"/>
<path d="M321.817 320.177C310.277 324.967 309.087 349.128 318.267 354.528C310.147 354.638 302.207 352.887 294.177 352.047C283.007 350.887 271.917 348.877 260.727 347.877C252.987 347.187 245.367 344.947 237.487 345.807C233.357 345.947 229.237 346.347 225.107 345.807C222.467 344.807 219.927 343.347 216.917 343.807C201.427 340.807 195.917 325.147 201.827 314.327C204.285 311.378 207.029 308.678 210.017 306.267C212.257 305.347 214.407 304.057 217.017 304.587C224.187 304.997 231.427 303.747 238.547 305.457C240.523 305.883 242.438 306.555 244.247 307.457C249.487 307.547 254.417 309.877 259.707 309.457C263.377 310.827 267.507 309.227 271.077 311.247H271.087C273.287 312.417 275.637 311.457 277.897 311.727C278.314 311.841 278.717 312.002 279.097 312.207C281.687 313.897 284.487 313.317 287.267 312.987C288.908 312.602 290.633 312.841 292.107 313.658C293.737 316.248 296.357 315.307 298.667 315.487C306.077 316.997 313.577 317.957 321.017 319.277C321.497 319.307 321.637 319.787 321.817 320.177Z" fill="#3C88C2"/>
<path d="M2.60817 5.90723C4.77817 12.9772 5.10817 20.3572 6.21817 27.6072C10.8382 57.9172 14.8282 88.3172 19.7982 118.607C24.0882 144.857 28.5082 171.127 34.1782 197.127C34.6298 199.407 35.447 201.598 36.5982 203.617C30.7172 207.882 24.1048 211.035 17.0882 212.917C10.5682 214.657 8.44816 213.117 8.14816 206.457C7.76816 198.217 7.45817 189.987 6.43817 181.797C5.32817 158.477 4.04817 135.157 3.15817 111.797C1.83817 77.4472 -0.151836 43.0972 1.83816 8.69724C1.88816 7.72724 1.59817 6.62723 2.60817 5.90723Z" fill="#DC2E43"/>
<path d="M163.087 205.577C169.918 205.656 176.719 206.512 183.357 208.127C191.067 209.977 195.177 216.037 193.657 223.127C192.167 230.037 185.557 234.127 177.847 232.267C167.104 229.579 155.84 229.793 145.207 232.887C130.947 237.127 119.687 245.727 110.837 257.517C105.787 264.237 98.8369 266.067 92.8369 261.837C86.8369 257.607 85.5069 250.197 90.4769 243.477C108.487 219.127 132.707 206.367 163.087 205.577Z" fill="#664501"/>
<path d="M347.867 195.837C347.737 207.407 338.777 213.237 330.287 209.217C322.657 205.607 315.017 202.297 306.617 200.957C289.767 198.257 274.387 201.757 260.447 211.607C258.677 212.867 256.967 214.217 255.147 215.407C249.337 219.227 242.717 218.217 238.467 212.917C236.544 210.517 235.616 207.47 235.875 204.405C236.133 201.34 237.559 198.491 239.857 196.447C252.243 185.294 267.749 178.202 284.287 176.127C303.406 173.471 322.872 177.059 339.787 186.357C344.557 188.977 347.847 192.507 347.867 195.837Z" fill="#664501"/>
<path d="M177.137 354.967C176.767 363.227 176.137 371.597 173.487 379.667C172.157 383.767 169.277 386.337 164.957 386.667C161.427 386.977 158.797 384.907 157.097 382.077C155.187 378.897 155.877 375.317 156.627 371.917C158.957 361.307 159.897 350.647 156.927 340.057C153.247 326.927 146.427 316.247 132.927 311.127C131.005 310.502 129.006 310.142 126.987 310.057C120.987 309.517 116.627 305.057 116.927 300.057C117.257 294.377 121.557 290.877 127.927 290.957C131.767 291.007 135.287 292.237 138.807 293.577C145.723 296.086 152.061 299.97 157.436 304.993C162.812 310.017 167.115 316.076 170.087 322.807C174.648 332.92 177.049 343.874 177.137 354.967V354.967Z" fill="#E1A52C"/>
<path d="M44.2973 363.518C32.8273 363.688 21.4674 365.348 10.0774 366.408C4.40736 366.938 4.47736 367.108 6.13736 361.908C10.2774 348.908 15.6974 336.368 19.2274 323.178C22.4674 314.358 25.704 305.541 28.9374 296.728C29.2874 295.788 29.3874 294.418 30.4274 294.278C31.9374 294.078 31.9874 295.688 32.4274 296.678C40.8674 316.978 49.344 337.248 57.8573 357.488C58.9773 360.168 58.5074 361.548 55.4574 361.908C51.7274 362.348 48.0173 362.968 44.2973 363.518Z" fill="#EA596E"/>
<path d="M291.886 314.698L286.886 314.537C284.246 312.537 280.776 314.818 278.126 312.878V312.688C277.266 311.548 275.286 312.527 274.706 310.867C273.455 300.795 274.546 290.569 277.896 280.987C281.826 269.407 288.566 259.918 299.046 253.328C302.836 250.948 308.786 252.478 311.326 256.328C314.326 260.898 313.396 265.937 308.616 269.177C299.886 275.077 295.616 283.468 293.686 293.598C292.356 300.598 293.346 307.418 293.846 314.318C293.749 314.479 293.62 314.619 293.465 314.727C293.311 314.835 293.136 314.91 292.951 314.945C292.766 314.981 292.575 314.978 292.392 314.935C292.208 314.892 292.036 314.811 291.886 314.698V314.698Z" fill="#E1A52C"/>
<path d="M281.297 35.8477C282.017 33.0577 282.807 30.2877 283.437 27.4777C284.017 24.9077 284.807 24.3177 286.897 26.4777C293.137 32.8577 299.487 39.1277 305.827 45.4077C307.357 46.9277 308.997 48.3177 310.587 49.7677C313.247 51.9677 316.237 53.7677 318.707 56.1977C320.307 57.7677 321.817 59.3977 319.947 61.7577C309.16 64.3577 298.367 66.9544 287.567 69.5477C284.057 70.3977 280.567 71.3977 277.067 72.1877C272.497 73.1877 272.067 72.8177 273.147 68.1377C274.227 63.4577 275.707 58.9877 276.657 54.2977C277.917 48.1277 279.727 41.9877 281.297 35.8477Z" fill="#EA596E"/>
<path d="M216.238 305.798L210.238 307.718C206.788 308.878 204.678 311.388 203.238 314.598C198.768 325.348 201.748 337.468 217.168 342.378C219.558 344.118 222.568 342.978 225.098 344.088C229.198 344.878 233.668 342.988 237.488 345.808C225.488 356.308 211.018 353.808 202.358 339.628C195.168 327.898 196.358 309.718 205.058 299.138C216.538 285.138 236.928 288.628 243.378 305.728C241.648 307.478 239.958 306.138 238.158 305.808C230.916 304.433 223.481 304.43 216.238 305.798Z" fill="#664503"/>
<path d="M321.816 320.178L298.256 316.248C297.556 315.248 295.396 316.778 295.426 314.578C302.118 315.025 308.76 316.048 315.276 317.638C319.596 318.738 324.156 317.268 328.486 319.368C330.236 320.218 330.196 317.738 330.426 316.368C330.726 314.528 329.426 312.158 332.076 311.058C332.136 312.938 332.256 314.808 332.256 316.688C332.256 321.588 330.616 322.768 325.916 320.998C324.546 320.468 323.316 319.798 321.816 320.178Z" fill="#E7CD73"/>
<path d="M216.238 305.798C217.088 303.548 219.088 304.128 220.688 304.128C228.288 304.128 235.928 303.608 243.368 305.728C243.655 305.885 243.888 306.124 244.04 306.414C244.191 306.704 244.253 307.032 244.218 307.358C234.956 306.008 225.593 305.486 216.238 305.798Z" fill="#575131"/>
<path d="M271.087 311.198C267.177 311.358 263.317 311.198 259.727 309.408C262.547 309.408 265.377 309.408 268.207 309.408C269.497 309.378 270.767 309.508 271.087 311.198Z" fill="#D5C071"/>
<path d="M274.678 310.867C275.918 311.277 277.678 310.747 278.098 312.687C275.678 312.607 273.098 313.327 271.098 311.197L274.678 310.867Z" fill="#D5C071"/>
<path d="M295.427 314.578L298.257 316.248C296.057 316.048 293.497 317.328 291.887 314.698L293.817 314.348L295.427 314.578Z" fill="#ABB277"/>
<path d="M30.5067 432.847C26.8144 432.895 23.1917 431.841 20.101 429.821C17.0102 427.8 14.5916 424.905 13.1538 421.504C11.7161 418.102 11.3243 414.35 12.0286 410.725C12.7329 407.1 14.5013 403.768 17.108 401.152C19.7148 398.537 23.0417 396.758 26.6642 396.042C30.2866 395.326 34.0403 395.705 37.4461 397.132C40.8519 398.558 43.7554 400.968 45.786 404.052C47.8166 407.136 48.8821 410.755 48.8467 414.447C48.7525 419.288 46.7918 423.904 43.3743 427.333C39.9567 430.762 35.3465 432.737 30.5067 432.847V432.847Z" fill="#56ABEE"/>
<path d="M203.227 314.598C203.687 310.398 205.917 307.998 210.227 307.718L203.227 314.598Z" fill="#4F6860"/>
<path d="M278.086 312.878C281.086 313.138 284.376 311.598 286.846 314.538C283.886 314.258 280.546 315.898 278.086 312.878Z" fill="#769690"/>
<path d="M225.086 344.128C222.376 343.858 219.226 345.658 217.156 342.418C219.913 342.158 222.682 342.755 225.086 344.128Z" fill="#4F5640"/>
</svg>
