<svg width="439" height="439" viewBox="0 0 439 439" fill="none" xmlns="http://www.w3.org/2000/svg">
<path d="M244.52 436.587C235.41 436.857 226.37 438.337 217.22 438.007C204.401 437.584 191.627 436.268 178.99 434.067C169.594 432.454 160.322 430.189 151.24 427.287C135.366 422.159 120.148 415.185 105.9 406.507C89.162 396.451 73.8686 384.165 60.4403 369.987C41.5342 350.056 26.5378 326.752 16.2303 301.287C12.3764 291.694 9.12996 281.868 6.51031 271.867C4.85809 265.256 3.60582 258.55 2.76031 251.787C1.22031 240.527 -0.129676 229.267 0.150324 217.927C0.421983 204.368 1.7965 190.854 4.26031 177.517C8.25383 156.208 15.4877 135.636 25.7103 116.517C38.2948 92.7726 55.1695 71.5647 75.4803 53.9675C100.898 31.6246 131.268 15.6513 164.08 7.36748C201.879 -2.50108 241.631 -2.05689 279.2 8.65383C316.768 19.3645 350.779 39.9502 377.69 68.2675C396.6 88.4175 411.69 111.137 421.87 137.007C426.405 148.76 430.206 160.783 433.25 173.007C433.489 174.359 433.626 175.726 433.66 177.097C435.3 179.407 433.34 182.387 435.09 184.667C435.09 185.147 435.16 185.667 435.19 186.087C436.61 188.477 435.04 191.357 436.48 193.747C437.708 203.772 438.213 213.871 437.99 223.967C437.538 236.145 436.201 248.274 433.99 260.257C430.881 277.052 425.729 293.403 418.65 308.947C409.246 329.621 396.745 348.74 381.58 365.647C370.534 377.945 358.139 388.961 344.63 398.487C331.229 407.985 316.731 415.831 301.45 421.857C289.6 426.468 277.452 430.277 265.09 433.257C260.9 434.317 256.52 434.637 252.23 435.257C249.76 436.607 246.91 435.267 244.52 436.587Z" fill="#FED121"/>
<path d="M214.08 293.127C237.64 294.257 258.64 303.217 276.24 320.297C282.57 326.447 288.17 333.027 291.67 341.207C292.146 342.224 292.483 343.301 292.67 344.407C293.03 347.127 293.54 350.017 290.73 351.877C288.11 353.627 285.43 352.877 282.95 351.477C275.24 347.157 267.95 342.107 259.78 338.557C242.9 331.217 225.39 327.127 207.08 328.207C185.21 329.547 165.35 337.207 147.08 349.207C144.47 350.927 141.84 352.607 138.53 352.657C135.22 352.707 133.71 351.167 133.37 348.017C133.02 344.764 133.758 341.486 135.47 338.697C148.92 315.937 168.62 301.697 194.3 295.527C200.797 294.073 207.423 293.269 214.08 293.127V293.127Z" fill="#403515"/>
<path d="M104.991 236.417C99.2411 236.747 92.8711 235.577 86.5511 234.117C80.7211 232.777 78.6611 224.117 83.0511 219.227C84.3197 217.671 85.9469 216.446 87.7932 215.657C89.6394 214.868 91.6496 214.539 93.6511 214.697C111.051 216.227 126.501 210.787 140.881 201.597C147.271 197.507 155.111 200.457 156.881 207.807C157.682 210.645 157.522 213.667 156.425 216.404C155.329 219.14 153.359 221.437 150.821 222.937C137.081 231.567 122.231 236.697 104.991 236.417Z" fill="#403515"/>
<path d="M332.73 236.437C315.73 236.617 300.93 231.297 287.16 222.727C281.75 219.367 279.57 211.337 282.16 205.447C284.27 200.567 292.33 198.047 296.76 201.047C308.484 209.116 322.131 213.945 336.32 215.047C339.184 215.128 342.051 215.018 344.9 214.717C352.9 214.267 358.66 220.567 357.51 228.127C357.378 229.623 356.744 231.03 355.711 232.119C354.678 233.209 353.306 233.917 351.82 234.127C349.27 234.687 346.72 235.217 344.15 235.647C340.375 236.254 336.553 236.519 332.73 236.437V236.437Z" fill="#403615"/>
</svg>
