<svg width="415" height="415" viewBox="0 0 415 415" fill="none" xmlns="http://www.w3.org/2000/svg">
<path d="M45.0278 306.867C44.0397 306.496 43.1913 305.828 42.6001 304.953C42.0089 304.079 41.7041 303.042 41.7279 301.987C44.2279 302.667 45.2478 304.347 45.0278 306.867Z" fill="#F4DC93"/>
<path d="M54.9661 319.728C52.7561 318.928 51.4561 317.478 51.5261 315.018C52.5736 315.251 53.5003 315.858 54.1333 316.725C54.7663 317.591 55.0623 318.659 54.9661 319.728V319.728Z" fill="#F4E09D"/>
<path d="M9.38734 150.447C9.62734 148.167 8.10733 145.507 10.8173 143.757C10.5373 146.027 11.8873 148.647 9.38734 150.447Z" fill="#F6E7B0"/>
<path d="M48.3868 311.668C47.368 311.379 46.4777 310.753 45.8617 309.891C45.2458 309.03 44.9408 307.985 44.9968 306.928C47.2668 307.688 47.7168 309.748 48.3868 311.668Z" fill="#F4E6A6"/>
<path d="M10.9765 142.277C11.0765 140.487 10.1065 138.377 12.4265 137.277C12.3165 139.017 13.2365 141.127 10.9765 142.277Z" fill="#F6E7B0"/>
<path d="M82.5364 345.967C80.6164 345.297 78.6264 344.727 77.8164 342.537C80.3964 342.287 81.5164 344.067 82.5364 345.967Z" fill="#F3E3A7"/>
<path d="M17.3766 254.668C15.0566 253.668 15.9366 251.518 15.7266 249.768C17.3266 251.048 17.5466 252.788 17.3766 254.668Z" fill="#F5E59C"/>
<path d="M22.2771 267.697C20.0171 266.697 20.7871 264.597 20.5371 262.867C22.2271 264.127 22.4771 265.807 22.2771 267.697Z" fill="#F7E0A0"/>
<path d="M51.4961 86.9176C54.8861 86.2776 57.4961 87.5976 59.7861 90.0076C56.4761 90.4576 53.8061 89.1276 51.4961 86.9176Z" fill="#AAAC95"/>
<path d="M90.6465 98.3072C92.8965 98.5772 95.5865 96.9673 97.2465 99.8273C94.9765 99.5973 92.2965 101.177 90.6465 98.3072Z" fill="#B1AC8F"/>
<path d="M64.668 91.6573C66.448 91.7673 68.578 90.7373 69.668 93.2073C67.848 93.1273 65.668 94.2473 64.668 91.6573Z" fill="#B5AE82"/>
<path d="M59.7969 90.0073C61.5569 90.1673 63.7169 89.0773 64.6969 91.6173C62.9169 91.5273 60.7669 92.5473 59.7969 90.0073Z" fill="#AAAC95"/>
<path d="M69.6055 93.2273C71.3955 93.3173 73.5055 92.4172 74.5255 94.8372C72.7255 94.8172 70.5755 95.8173 69.6055 93.2273Z" fill="#BBB379"/>
<path d="M77.6055 95.0274C79.4455 94.9574 81.5055 94.1774 82.6055 96.5874C80.7955 96.4174 78.6155 97.5974 77.6055 95.0274Z" fill="#A9AC99"/>
<path d="M71.1562 49.3174C73.7762 49.5074 76.1562 50.1474 77.4862 52.7474C74.7462 52.7474 72.2663 52.2974 71.1562 49.3174Z" fill="#B9BF94"/>
<path d="M90.707 57.4576C92.987 57.6076 95.647 56.1976 97.257 59.0676C94.997 58.8376 92.407 59.9876 90.707 57.4576Z" fill="#C6C28B"/>
<path d="M414.007 207.128C414.007 321.408 321.357 414.047 207.087 414.047C92.817 414.047 0.166992 321.408 0.166992 207.128C0.166992 92.8475 92.807 0.20752 207.087 0.20752C321.367 0.20752 414.007 92.8475 414.007 207.128Z" fill="#FFD120"/>
<path d="M300.777 66.5872C298.416 63.8535 295.916 61.2433 293.287 58.7672C290.347 56.2672 290.287 54.3372 292.957 51.5172C305.357 38.2472 320.227 29.5872 338.427 27.6772C357.217 25.6772 373.747 38.6772 377.987 58.1172C381.057 72.1172 377.367 85.3872 373.217 98.5572C371.217 104.897 369.217 111.227 368.387 117.857C366.972 128.267 368.872 138.858 373.817 148.127C375.017 150.427 374.877 151.397 372.237 152.277C368.28 153.66 364.409 155.279 360.647 157.127C358.397 158.197 357.647 157.417 356.517 155.457C347.267 139.017 347.737 121.997 353.137 104.617C355.977 95.5072 359.067 86.4572 359.137 76.7672C359.289 73.7245 359.064 70.6746 358.467 67.6872C354.017 49.3772 339.997 42.3972 322.287 49.7472C313.696 53.2606 306.249 59.0905 300.777 66.5872V66.5872Z" fill="#413617"/>
<path d="M365.896 189.778C365.796 181.778 372.746 174.978 381.016 174.978C388.826 174.978 396.016 182.978 396.156 191.658C396.246 199.658 389.396 206.298 380.986 206.328C372.886 206.348 366.006 198.798 365.896 189.778Z" fill="#413617"/>
<path d="M138.086 224.637C132.251 224.637 126.655 222.319 122.53 218.194C118.404 214.068 116.086 208.472 116.086 202.637V149.907C116.086 144.072 118.404 138.477 122.53 134.351C126.655 130.225 132.251 127.907 138.086 127.907V127.907C143.921 127.907 149.516 130.225 153.642 134.351C157.768 138.477 160.086 144.072 160.086 149.907V202.657C160.081 208.489 157.76 214.079 153.635 218.201C149.51 222.322 143.917 224.637 138.086 224.637V224.637Z" fill="#413617"/>
<path d="M283.176 224.638C278.382 224.619 273.79 222.706 270.401 219.315C267.012 215.925 265.102 211.331 265.086 206.538V163.128C265.099 158.329 267.011 153.73 270.405 150.336C273.798 146.943 278.397 145.031 283.196 145.018V145.018C287.99 145.039 292.581 146.954 295.968 150.347C299.355 153.74 301.263 158.334 301.276 163.128V206.578C301.252 211.367 299.336 215.953 295.946 219.336C292.556 222.719 287.965 224.624 283.176 224.638V224.638Z" fill="#413617"/>
<path d="M134.976 289.327C136.806 280.397 145.426 274.527 153.976 276.517C185.976 283.944 218.003 291.4 250.056 298.887C261.126 301.457 272.176 304.067 283.276 306.497C286.996 307.317 289.896 308.807 291.006 312.707C291.116 313.091 291.136 313.494 291.066 313.887C291.006 324.057 291.066 334.227 291.066 344.387C291.106 344.785 291.086 345.186 291.006 345.577C289.816 349.427 287.596 352.237 283.406 353.037C280.826 354.037 278.056 352.857 275.406 353.707C264.496 354.457 253.586 355.177 242.676 355.987C228.676 357.027 214.676 358.104 200.676 359.217C199.816 359.287 198.956 359.497 198.096 359.637C195.396 360.707 192.506 359.497 189.786 360.347C181.046 360.507 172.386 361.567 163.696 362.347C161.136 363.347 158.366 362.157 155.786 363.037C153.036 363.127 150.286 363.217 147.536 363.327C141.026 363.587 136.596 360.227 134.906 353.717C135.168 352.526 135.235 351.3 135.106 350.087C135.106 331.047 135.106 312.004 135.106 292.957C135.3 291.75 135.256 290.517 134.976 289.327V289.327Z" fill="#413617"/>
<path d="M202.707 329.937C194.227 330.437 185.707 330.037 177.257 331.057C173.787 331.847 170.257 331.507 166.807 331.257C163.807 331.257 160.807 331.007 157.907 331.697C154.558 332.437 151.087 332.437 147.737 331.697C144.867 330.697 141.657 330.387 139.617 327.697C139.077 327.157 139.217 326.467 139.217 325.817C139.217 313.917 139.217 302.014 139.217 290.107C139.217 289.387 138.887 288.537 139.737 288.007C142.897 281.737 147.407 279.647 154.387 281.247C196.621 290.914 238.851 300.581 281.077 310.247C283.367 310.767 286.327 310.427 287.197 313.347C288.237 316.746 288.237 320.378 287.197 323.777C286.387 326.367 283.647 326.867 281.197 327.057C278.007 327.317 274.787 326.997 271.617 327.677C267.717 328.497 263.787 328.117 259.857 327.907C257.746 327.722 255.619 327.853 253.547 328.297C250.127 329.197 246.677 328.797 243.217 328.517C240.277 328.517 237.327 328.247 234.427 329.027C230.737 329.837 227.017 329.427 223.307 329.227C220.369 329.017 217.415 329.178 214.517 329.707C210.597 330.497 206.647 330.187 202.707 329.937Z" fill="#FEFEFE"/>
<path d="M214.557 345.018C218.887 343.128 223.157 341.088 227.897 340.428C229.177 339.718 230.757 340.108 232.007 339.278C238.289 338.728 244.606 338.728 250.887 339.278C256.085 339.838 261.154 341.257 265.887 343.478C266.541 343.785 267.069 344.307 267.386 344.956C267.702 345.606 267.787 346.343 267.627 347.048C267.367 348.898 266.017 348.528 264.867 348.608C246.597 349.988 228.267 350.188 210.017 351.508C197.917 352.388 185.717 351.338 173.707 353.508C172.456 353.618 171.198 353.618 169.947 353.508C173.597 350.278 184.197 346.038 189.337 345.688C190.627 345.048 192.217 345.418 193.437 344.518H209.287C211.017 345.008 212.727 345.628 214.557 345.018Z" fill="#FC0308"/>
<path d="M182.693 93.7861L177.406 81.3428L59.7924 131.315L65.0794 143.759L182.693 93.7861Z" fill="#413617"/>
</svg>
