<svg width="457" height="412" viewBox="0 0 457 412" fill="none" xmlns="http://www.w3.org/2000/svg">
<path d="M375.189 351.189C455.305 271.073 455.305 141.179 375.189 61.063C295.072 -19.0531 165.179 -19.0531 85.0626 61.063C4.94657 141.179 4.94657 271.073 85.0626 351.189C165.179 431.305 295.072 431.305 375.189 351.189Z" fill="#FFD120"/>
<path d="M117.778 135.518L167.028 163.458L118.168 191.148" stroke="#403616" stroke-width="18" stroke-linecap="round" stroke-linejoin="round"/>
<path d="M336.599 191.148L288.479 163.208L336.219 135.518" stroke="#403616" stroke-width="18" stroke-linecap="round" stroke-linejoin="round"/>
<path d="M444.008 195.487C450.754 200.928 455.075 208.815 456.027 217.429C456.98 226.043 454.486 234.684 449.092 241.466C443.697 248.249 435.838 252.622 427.231 253.632C418.624 254.642 409.966 252.207 403.148 246.857C388.958 235.567 360.958 171.367 360.958 171.367C360.958 171.367 429.818 184.197 444.008 195.487Z" fill="#2EA6BE"/>
<path d="M12.7084 195.487C5.96222 200.928 1.64152 208.815 0.689129 217.429C-0.26326 226.043 2.22997 234.684 7.62477 241.466C13.0196 248.249 20.878 252.622 29.4853 253.632C38.0926 254.642 46.75 252.207 53.5684 246.857C67.7584 235.567 95.7584 171.367 95.7584 171.367C95.7584 171.367 26.8984 184.197 12.7084 195.487Z" fill="#2EA6BE"/>
<path d="M124.919 237.778C123.891 237.778 122.88 238.031 121.972 238.514C121.065 238.996 120.29 239.694 119.716 240.546C119.141 241.398 118.785 242.378 118.677 243.4C118.57 244.422 118.714 245.455 119.099 246.408C127.849 267.788 157.099 321.618 229.669 321.618C302.239 321.618 332.109 267.418 341.149 245.848C341.542 244.89 341.693 243.85 341.588 242.819C341.483 241.789 341.125 240.801 340.547 239.942C339.968 239.083 339.186 238.381 338.271 237.897C337.355 237.413 336.334 237.162 335.299 237.168L124.919 237.778Z" fill="#403616"/>
<path d="M228.519 357.617C272.139 357.617 307.499 338.437 307.499 314.778C307.499 291.118 272.139 271.938 228.519 271.938C184.9 271.938 149.539 291.118 149.539 314.778C149.539 338.437 184.9 357.617 228.519 357.617Z" fill="#F15C5A"/>
</svg>
