<svg width="412" height="412" viewBox="0 0 412 412" fill="none" xmlns="http://www.w3.org/2000/svg">
<path d="M411.238 206.128C411.238 319.428 319.377 411.278 206.087 411.278C92.7975 411.278 0.9375 319.428 0.9375 206.128C0.9375 92.8275 92.7875 0.977539 206.087 0.977539C319.387 0.977539 411.238 92.8275 411.238 206.128Z" fill="#FFD120"/>
<path d="M132.087 236.687C128.827 236.687 126.577 241.197 127.817 245.317C134.237 266.697 155.667 320.517 208.817 320.517C261.967 320.517 283.877 266.317 290.487 244.757C291.757 240.617 289.487 236.067 286.207 236.077L132.087 236.687Z" fill="#403616"/>
<path d="M208.026 363.477C239.987 363.477 265.896 344.297 265.896 320.637C265.896 296.978 239.987 277.797 208.026 277.797C176.066 277.797 150.156 296.978 150.156 320.637C150.156 344.297 176.066 363.477 208.026 363.477Z" fill="#F15C5A"/>
<path d="M269.918 190.487C269.918 190.487 269.548 158.697 297.858 158.697C326.168 158.697 325.558 190.237 325.558 190.237" stroke="#403616" stroke-width="18" stroke-miterlimit="10" stroke-linecap="round"/>
<path d="M86.6174 190.487C86.6174 190.487 86.2474 158.697 114.617 158.697C142.987 158.697 142.307 190.237 142.307 190.237" stroke="#403616" stroke-width="18" stroke-miterlimit="10" stroke-linecap="round"/>
<path opacity="0.6" d="M62.4476 266.798C78.9333 266.798 92.2976 253.433 92.2976 236.948C92.2976 220.462 78.9333 207.098 62.4476 207.098C45.9619 207.098 32.5977 220.462 32.5977 236.948C32.5977 253.433 45.9619 266.798 62.4476 266.798Z" fill="#F17489"/>
<path opacity="0.6" d="M349.717 266.798C366.203 266.798 379.567 253.433 379.567 236.948C379.567 220.462 366.203 207.098 349.717 207.098C333.231 207.098 319.867 220.462 319.867 236.948C319.867 253.433 333.231 266.798 349.717 266.798Z" fill="#F17489"/>
</svg>
