<svg width="412" height="412" viewBox="0 0 412 412" fill="none" xmlns="http://www.w3.org/2000/svg">
<path d="M351.189 351.189C431.305 271.073 431.305 141.179 351.189 61.063C271.072 -19.0531 141.179 -19.0531 61.0626 61.063C-19.0534 141.179 -19.0534 271.073 61.0626 351.189C141.179 431.305 271.072 431.305 351.189 351.189Z" fill="#FFD120"/>
<path d="M264.568 183.978C268.468 190.168 274.568 189.788 280.778 189.678C290.168 189.508 299.568 189.848 308.948 189.558C317.678 189.278 327.518 192.948 332.758 180.748C334.128 177.588 341.828 177.148 346.618 175.458C348.808 185.228 333.328 183.458 335.148 192.978C313.598 194.908 292.018 193.408 270.448 193.798C263.098 193.928 261.258 190.408 264.568 183.978Z" fill="#1B1202" stroke="black" stroke-width="0.25" stroke-miterlimit="10"/>
<path d="M145.857 184.127C147.597 192.777 142.167 192.677 136.037 192.637C115.547 192.497 95.0373 192.637 74.5773 192.717C74.3973 189.897 74.2073 187.077 74.0273 184.257C97.9873 192.737 121.927 193.127 145.857 184.127Z" fill="#201306" stroke="black" stroke-width="0.25" stroke-miterlimit="10"/>
<path d="M2.54688 132.518C5.35687 129.818 8.88686 130.608 12.1569 130.608C138.637 130.608 265.114 130.638 391.587 130.698C393.027 130.773 394.462 130.923 395.887 131.148C390.787 135.348 384.777 133.418 379.207 133.418C259.614 133.538 140.024 133.538 20.4369 133.418C11.9369 133.418 3.69687 132.518 3.58687 145.258C3.2402 141.018 2.89354 136.771 2.54688 132.518Z" fill="#0F0609" stroke="black" stroke-width="0.25" stroke-miterlimit="10"/>
<path d="M167.238 343.637C182.467 350.114 198.823 353.526 215.371 353.676C231.919 353.827 248.334 350.714 263.678 344.516C279.023 338.317 292.994 329.155 304.794 317.552C316.594 305.949 325.992 292.135 332.448 276.897" stroke="black" stroke-width="8" stroke-miterlimit="10"/>
<path d="M253.355 219.797C251.895 216.997 251.725 214.067 249.025 211.247C241.025 202.887 229.435 195.837 233.435 180.977C233.611 180.378 233.647 179.747 233.542 179.131C233.437 178.516 233.193 177.933 232.828 177.426C232.464 176.919 231.989 176.501 231.439 176.205C230.889 175.909 230.279 175.742 229.655 175.717C218.865 175.627 223.475 167.057 221.835 161.957C212.665 148.897 200.495 155.777 189.175 157.037C186.025 163.597 192.615 174.927 179.465 176.797C178.565 176.927 177.335 180.187 177.535 181.797C179.425 196.797 168.765 203.137 158.535 209.647C153.635 212.757 155.005 220.777 148.225 222.167C146.225 223.777 144.055 225.167 142.225 226.937C124.165 234.797 105.225 228.807 86.7255 230.587C78.8955 231.347 71.8655 230.007 67.9455 222.027C57.6655 219.027 52.9455 209.097 44.9455 203.397C36.1455 197.097 37.5555 183.877 33.2955 180.307C24.6155 173.057 23.0455 166.047 22.5255 156.617C22.3755 153.897 18.9855 153.457 16.5255 153.797C11.1755 154.537 3.35548 154.987 1.08548 148.797C-0.154521 145.407 0.385491 141.397 1.17549 137.977C1.40549 136.977 1.82549 133.737 2.79549 133.177C3.49549 132.777 7.33548 133.497 8.53548 133.277C32.6355 128.927 57.2355 131.587 81.5355 131.517C176.295 131.217 271.055 131.517 365.805 131.297C373.405 131.297 381.005 131.517 388.605 131.767C393.605 131.937 398.605 130.347 403.605 131.347C410.555 132.747 411.815 141.347 411.175 147.347C410.655 152.187 407.575 154.727 402.825 155.027C387.115 156.027 387.145 156.397 387.655 173.897C380.475 176.897 377.655 181.547 376.055 189.897C373.905 201.187 362.345 206.557 353.225 212.817C340.755 226.397 326.055 234.147 306.995 230.627C293.885 228.207 279.465 235.927 267.385 225.507C264.775 218.597 258.355 220.827 253.355 219.797Z" fill="#1A1B1A" stroke="black" stroke-width="0.25" stroke-miterlimit="10"/>
<path d="M112.648 198.337C112.138 192.857 108.648 186.127 119.338 186.397C124.908 186.527 120.557 179.077 124.687 177.397L125.988 178.517C127.53 180.939 128.336 183.757 128.308 186.627C122.098 189.157 124.137 203.237 112.377 198.017L112.648 198.337Z" fill="#F6F8F4" stroke="black" stroke-width="0.25" stroke-miterlimit="10"/>
<path d="M124.688 177.387C126.428 173.387 134.368 177.597 133.818 170.597C133.368 164.887 136.818 164.527 141.168 164.697C145.338 164.857 145.418 167.517 145.608 170.547C145.968 176.227 142.268 176.547 138.118 176.597C136.668 176.721 135.233 176.972 133.828 177.347C131.068 179.677 128.188 179.977 125.178 177.807L124.688 177.387Z" fill="#F8F8F8" stroke="black" stroke-width="0.25" stroke-miterlimit="10"/>
<path d="M112.355 198.008C111.995 202.008 114.825 207.108 109.165 209.228C107.215 209.958 103.885 209.648 102.455 208.388C101.025 207.128 100.455 203.848 100.965 201.848C102.805 194.848 108.235 197.948 112.625 198.338L112.355 198.008Z" fill="#E7E6DF" stroke="black" stroke-width="0.25" stroke-miterlimit="10"/>
<path d="M125.178 177.808L133.828 177.348C134.828 182.118 137.358 187.818 128.308 186.618C124.608 184.628 124.358 181.408 125.178 177.808Z" fill="#F9F9F9" stroke="black" stroke-width="0.25" stroke-miterlimit="10"/>
<path d="M326.135 198.337C325.635 192.857 322.185 186.127 332.835 186.397C338.405 186.527 334.055 179.077 338.185 177.397L339.475 178.517C341.025 180.936 341.835 183.755 341.805 186.627C335.595 189.157 337.625 203.237 325.875 198.017L326.135 198.337Z" fill="#F6F8F4" stroke="black" stroke-width="0.25" stroke-miterlimit="10"/>
<path d="M338.188 177.387C339.928 173.387 347.868 177.597 347.318 170.597C346.868 164.887 350.317 164.527 354.657 164.697C358.837 164.857 358.917 167.517 359.107 170.547C359.457 176.227 355.767 176.547 351.607 176.597C350.162 176.721 348.729 176.972 347.327 177.347C344.557 179.677 341.687 179.977 338.677 177.807L338.188 177.387Z" fill="#F8F8F8" stroke="black" stroke-width="0.25" stroke-miterlimit="10"/>
<path d="M325.878 198.008C325.518 202.008 328.348 207.108 322.688 209.228C320.688 209.958 317.397 209.648 315.977 208.388C314.557 207.128 313.977 203.848 314.477 201.848C316.327 194.848 321.757 197.948 326.147 198.338L325.878 198.008Z" fill="#E7E6DF" stroke="black" stroke-width="0.25" stroke-miterlimit="10"/>
<path d="M338.678 177.808L347.328 177.348C348.328 182.118 350.848 187.818 341.808 186.618C338.108 184.628 337.868 181.408 338.678 177.808Z" fill="#F9F9F9" stroke="black" stroke-width="0.25" stroke-miterlimit="10"/>
</svg>
