<svg width="412" height="412" viewBox="0 0 412 412" fill="none" xmlns="http://www.w3.org/2000/svg">
<path d="M411.23 206.128C411.23 319.428 319.37 411.278 206.08 411.278C92.7897 411.278 0.929688 319.428 0.929688 206.128C0.929688 92.8275 92.7797 0.977539 206.08 0.977539C319.38 0.977539 411.23 92.8275 411.23 206.128Z" fill="#FFD120"/>
<path d="M90.1413 174.527C113.041 173.667 136.291 172.717 159.141 174.827C163.821 175.257 172.011 176.177 175.501 173.397C177.501 171.817 176.441 169.487 174.651 167.817C166.281 160.017 148.001 157.267 133.761 157.457C122.25 157.554 110.843 159.652 100.051 163.657C95.8713 165.267 91.0513 167.147 88.5913 169.867C87.0813 171.457 85.2913 174.707 90.1413 174.527Z" fill="#664501"/>
<path d="M225.331 346.807C217.251 354.227 208.251 357.267 198.331 355.117C189.731 353.247 182.671 347.697 176.861 339.607C171.422 331.854 167.675 323.043 165.861 313.747C163.24 301.336 163.315 288.507 166.081 276.127C167.789 267.934 170.974 260.12 175.481 253.067C180.551 245.317 186.761 239.637 194.541 236.707C199.592 234.733 205.124 234.343 210.401 235.587C218.791 237.587 225.751 242.887 231.401 250.797C236.21 257.648 239.697 265.336 241.681 273.467C244.48 284.116 245.22 295.201 243.861 306.127C241.961 321.317 236.861 334.437 227.531 344.737C226.839 345.47 226.105 346.161 225.331 346.807V346.807Z" fill="#403616"/>
<path d="M203.35 287.328C194.26 287.328 185.18 287.328 176.09 287.328C174.63 287.328 174.22 286.948 174.26 285.328C174.397 277.135 176.595 269.108 180.65 261.988C184.05 256.038 188.65 251.208 194.88 248.678C203.21 245.308 211.02 246.808 218.06 252.478C223.44 256.808 226.96 262.548 229.35 269.068C231.284 274.313 232.315 279.848 232.4 285.438C232.4 286.958 231.92 287.278 230.6 287.278C221.52 287.308 212.43 287.328 203.35 287.328Z" fill="#F2F8F9"/>
<path d="M124.42 102.757C115.96 100.107 104.83 104.757 97.5004 108.757C86.2804 114.817 77.5004 125.087 69.9204 135.757C63.9204 144.247 58.9204 157.377 58.7104 167.927C58.6404 171.267 61.2204 180.477 64.0104 172.657C68.9104 158.887 75.3704 146.047 86.1604 135.797C91.6223 130.413 97.4859 125.452 103.7 120.957C110.02 116.567 116.86 112.757 122.25 107.157C123.41 105.907 124.57 104.427 124.42 102.757Z" fill="#664501"/>
<path d="M321.39 174.527C298.49 173.667 275.23 172.717 252.39 174.827C247.71 175.257 239.52 176.177 236.02 173.397C234.02 171.817 235.09 169.487 236.88 167.817C245.25 160.017 263.53 157.267 277.77 157.457C289.282 157.554 300.688 159.652 311.48 163.657C315.66 165.267 320.48 167.147 322.94 169.867C324.4 171.457 326.23 174.707 321.39 174.527Z" fill="#664501"/>
<path d="M311.31 385.027L282.91 398.657L274.74 171.507H309.32L311.31 385.027Z" fill="#5DACEB"/>
<path d="M104.74 385.027L133.13 398.657L141.31 171.507H106.72L104.74 385.027Z" fill="#5DACEB"/>
<path d="M280.72 100.757C289.18 98.1074 300.31 102.757 307.64 106.757C318.86 112.817 327.64 123.087 335.22 133.757C341.22 142.247 346.22 155.377 346.43 165.927C346.5 169.267 343.92 178.477 341.13 170.657C336.23 156.887 329.77 144.047 318.98 133.797C313.52 128.411 307.657 123.45 301.44 118.957C295.12 114.567 288.28 110.757 282.89 105.157C281.73 103.907 280.57 102.427 280.72 100.757Z" fill="#664501"/>
</svg>
