<svg width="414" height="415" viewBox="0 0 414 415" fill="none" xmlns="http://www.w3.org/2000/svg">
<path d="M414 207.128C414 321.408 321.35 414.047 207.08 414.047C92.8102 414.047 0.160156 321.408 0.160156 207.128C0.160156 92.8475 92.8002 0.20752 207.08 0.20752C321.36 0.20752 414 92.8475 414 207.128Z" fill="#FFD120"/>
<path d="M112.891 219.877C108.918 219.859 105.113 218.273 102.304 215.464C99.4953 212.655 97.909 208.85 97.8906 204.877V168.777C97.9116 164.806 99.4987 161.002 102.307 158.194C105.116 155.385 108.919 153.798 112.891 153.777V153.777C116.862 153.798 120.665 155.385 123.474 158.194C126.283 161.002 127.87 164.806 127.891 168.777V204.847C127.877 208.824 126.294 212.635 123.485 215.45C120.675 218.265 116.868 219.856 112.891 219.877V219.877Z" fill="#413617"/>
<path d="M301.271 219.877C297.3 219.856 293.497 218.269 290.688 215.461C287.88 212.652 286.292 208.849 286.271 204.877V168.777C286.292 164.806 287.88 161.002 290.688 158.194C293.497 155.385 297.3 153.798 301.271 153.777C305.243 153.798 309.046 155.385 311.855 158.194C314.663 161.002 316.25 164.806 316.271 168.777V204.847C316.261 208.825 314.678 212.637 311.868 215.453C309.058 218.269 305.249 219.859 301.271 219.877Z" fill="#413617"/>
<path d="M88.5898 310.237H325.57" stroke="#403616" stroke-width="7" stroke-linecap="round" stroke-linejoin="round"/>
</svg>
