<svg width="405" height="405" viewBox="0 0 405 405" fill="none" xmlns="http://www.w3.org/2000/svg">
<path d="M345.782 345.782C424.719 266.846 424.719 138.864 345.782 59.9275C266.845 -19.0092 138.864 -19.0092 59.9271 59.9275C-19.0096 138.864 -19.0096 266.846 59.9271 345.782C138.864 424.719 266.845 424.719 345.782 345.782Z" fill="#FFD120"/>
<path d="M110.858 205.795C106.965 205.785 103.235 204.233 100.482 201.481C97.7296 198.728 96.1785 194.998 96.168 191.105V155.855C96.1838 151.966 97.7372 148.241 100.489 145.492C103.241 142.744 106.969 141.196 110.858 141.185V141.185C114.744 141.201 118.466 142.752 121.214 145.499C123.962 148.247 125.512 151.969 125.528 155.855V191.095C125.52 194.986 123.973 198.716 121.224 201.47C118.476 204.224 114.749 205.779 110.858 205.795V205.795Z" fill="#403616"/>
<path d="M294.858 205.795C290.967 205.782 287.239 204.23 284.488 201.477C281.738 198.725 280.188 194.996 280.178 191.105V155.855C280.194 151.967 281.746 148.244 284.495 145.496C287.245 142.748 290.97 141.198 294.858 141.185V141.185C298.749 141.193 302.479 142.74 305.233 145.489C307.987 148.237 309.542 151.964 309.558 155.855V191.095C309.55 194.991 307.999 198.726 305.243 201.481C302.488 204.236 298.754 205.787 294.858 205.795V205.795Z" fill="#403616"/>
<path d="M99.1981 253.515C98.1854 253.517 97.1886 253.767 96.295 254.244C95.4013 254.72 94.638 255.408 94.0717 256.248C93.5054 257.088 93.1533 258.053 93.0464 259.06C92.9394 260.067 93.0808 261.085 93.4581 262.025C102.088 283.085 130.908 336.125 202.458 336.125C274.008 336.125 303.388 282.715 312.288 261.465C312.678 260.522 312.828 259.498 312.725 258.483C312.623 257.468 312.27 256.495 311.7 255.649C311.13 254.804 310.359 254.112 309.457 253.637C308.554 253.162 307.548 252.917 306.528 252.925L99.1981 253.515Z" fill="#403616"/>
<path d="M201.279 371.595C244.258 371.595 279.099 352.697 279.099 329.385C279.099 306.073 244.258 287.175 201.279 287.175C158.3 287.175 123.459 306.073 123.459 329.385C123.459 352.697 158.3 371.595 201.279 371.595Z" fill="#F15C5A"/>
</svg>
