<svg width="414" height="439" viewBox="0 0 414 439" fill="none" xmlns="http://www.w3.org/2000/svg">
<path d="M414 207.128C414 321.408 321.35 414.047 207.08 414.047C92.8102 414.047 0.160156 321.408 0.160156 207.128C0.160156 92.8475 92.8002 0.20752 207.08 0.20752C321.36 0.20752 414 92.8475 414 207.128Z" fill="#FFD120"/>
<path d="M245.211 405.237C243.121 409.66 240.592 413.861 237.661 417.777C233.091 423.877 220.891 438.047 212.351 438.047H199.941C192.651 438.047 183.071 427.567 178.941 422.457C168.441 409.457 163.241 393.357 161.891 376.577C160.961 365.017 156.271 340.467 174.441 342.057C179.731 342.527 184.851 344.057 190.091 344.987C204.651 347.437 218.871 345.987 233.041 342.497C236.758 341.454 240.671 341.32 244.451 342.107C249.141 343.217 251.321 346.357 251.241 351.107C251.021 362.997 253.241 375.027 251.121 386.837C249.964 393.203 247.977 399.389 245.211 405.237V405.237Z" fill="#DD4B4B"/>
<path d="M322.261 15.1274C324.721 24.5374 331.631 31.7074 335.101 40.6574C338.641 49.7774 342.641 58.6574 335.101 67.7074C334.871 70.2374 332.591 70.6574 330.951 71.7074C308.871 77.7074 299.451 67.5074 304.821 43.4874C307.056 32.6668 312.519 22.7782 320.491 15.1274H322.261Z" fill="#64AEEA"/>
<path d="M251.241 351.127C248.031 343.697 242.051 342.757 235.241 344.717C216.01 350.312 195.582 350.312 176.351 344.717C169.131 342.717 164.581 345.497 160.901 351.177C149.361 332.177 148.751 313.107 160.961 294.087C164.551 292.167 168.311 292.667 172.141 293.167C195.231 296.167 218.331 296.567 241.411 293.067C244.661 292.577 247.831 292.397 250.871 293.967C263.081 309.487 263.261 333.677 251.241 351.127Z" fill="#3F4347"/>
<path d="M387.52 118.057C379.67 127.287 369.76 131.138 357.73 129.448C338.21 120.268 333.38 108.288 341.59 88.2575C347.49 73.8675 353.4 57.3075 364.7 46.1975C376.42 61.4775 387.43 82.9875 391.16 101.957C392.29 107.677 389.08 112.757 387.52 118.057Z" fill="#64AEE9"/>
<path d="M130.83 179.667C153.61 179.487 175.54 193.857 184.11 214.297C186.81 220.737 187.56 226.947 180.35 230.167C173.52 233.227 168.95 229.757 165.79 222.977C159.15 208.737 148.05 200.477 131.79 200.327C115.16 200.167 103.92 208.487 97.1696 223.187C94.0596 229.967 89.2696 233.187 82.4196 230.007C75.5696 226.827 76.3396 220.637 78.6596 214.727C86.5096 194.887 108.95 179.847 130.83 179.667Z" fill="#3E4347"/>
<path d="M274.19 200.388C264.71 200.658 253.77 208.308 246.87 222.198C245.19 225.598 244 229.527 239.66 230.587C235.77 231.587 232.06 231.398 229.06 228.138C225.59 224.378 225.78 220.347 227.54 215.837C243.02 176.197 296.97 167.298 324.19 199.938C328.37 204.938 332.32 210.128 334.27 216.448C336.1 222.378 335.61 228.048 329 230.448C322.78 232.728 318.37 229.787 315.41 223.927C306.87 207.037 296.64 200.258 274.19 200.388Z" fill="#3E4348"/>
<path d="M250.871 293.927C220.871 300.277 190.941 299.777 160.961 294.047C171.371 276.427 187.621 268.127 207.261 268.537C225.761 268.917 241.341 276.857 250.871 293.927Z" fill="#FAFAFA"/>
</svg>
