<svg width="415" height="415" viewBox="0 0 415 415" fill="none" xmlns="http://www.w3.org/2000/svg">
<path d="M45.0269 306.867C44.0387 306.496 43.1904 305.828 42.5991 304.953C42.0079 304.079 41.7031 303.042 41.7269 301.987C44.2269 302.667 45.2469 304.347 45.0269 306.867Z" fill="#F4DC93"/>
<path d="M54.9671 319.728C52.7571 318.928 51.4571 317.478 51.5271 315.018C52.5746 315.251 53.5013 315.858 54.1343 316.725C54.7672 317.591 55.0633 318.659 54.9671 319.728V319.728Z" fill="#F4E09D"/>
<path d="M9.38734 150.447C9.62734 148.167 8.10733 145.507 10.8173 143.757C10.5373 146.027 11.8873 148.647 9.38734 150.447Z" fill="#F6E7B0"/>
<path d="M48.3868 311.668C47.368 311.379 46.4777 310.753 45.8617 309.891C45.2458 309.03 44.9408 307.985 44.9968 306.928C47.2668 307.688 47.7168 309.748 48.3868 311.668Z" fill="#F4E6A6"/>
<path d="M10.9765 142.277C11.0765 140.487 10.1065 138.377 12.4265 137.277C12.3165 139.017 13.2365 141.127 10.9765 142.277Z" fill="#F6E7B0"/>
<path d="M82.5374 345.967C80.6174 345.297 78.6274 344.727 77.8174 342.537C80.3974 342.287 81.5174 344.067 82.5374 345.967Z" fill="#F3E3A7"/>
<path d="M17.3766 254.668C15.0566 253.668 15.9366 251.518 15.7266 249.768C17.3266 251.048 17.5466 252.788 17.3766 254.668Z" fill="#F5E59C"/>
<path d="M22.2771 267.697C20.0171 266.697 20.7871 264.597 20.5371 262.867C22.2271 264.127 22.4771 265.807 22.2771 267.697Z" fill="#F7E0A0"/>
<path d="M51.4971 86.9176C54.8871 86.2776 57.4971 87.5976 59.7871 90.0076C56.4771 90.4576 53.8071 89.1276 51.4971 86.9176Z" fill="#AAAC95"/>
<path d="M90.6465 98.3072C92.8965 98.5772 95.5865 96.9673 97.2465 99.8273C94.9765 99.5973 92.2965 101.177 90.6465 98.3072Z" fill="#B1AC8F"/>
<path d="M64.667 91.6573C66.447 91.7673 68.577 90.7373 69.667 93.2073C67.847 93.1273 65.667 94.2473 64.667 91.6573Z" fill="#B5AE82"/>
<path d="M59.7969 90.0073C61.5569 90.1673 63.7169 89.0773 64.6969 91.6173C62.9169 91.5273 60.7669 92.5473 59.7969 90.0073Z" fill="#AAAC95"/>
<path d="M69.6064 93.2273C71.3964 93.3173 73.5065 92.4172 74.5265 94.8372C72.7265 94.8172 70.5764 95.8173 69.6064 93.2273Z" fill="#BBB379"/>
<path d="M77.6064 95.0274C79.4464 94.9574 81.5064 94.1774 82.6064 96.5874C80.7964 96.4174 78.6164 97.5974 77.6064 95.0274Z" fill="#A9AC99"/>
<path d="M64.8564 43.7771C66.1864 44.5471 66.8564 43.2371 67.7664 42.8271C67.1464 45.8971 70.5265 46.8971 71.1465 49.3171C67.5465 49.1871 65.8964 46.8271 64.8564 43.7771Z" fill="#B9C09B"/>
<path d="M71.1572 49.3174C73.7772 49.5074 76.1572 50.1474 77.4872 52.7474C74.7472 52.7474 72.2672 52.2974 71.1572 49.3174Z" fill="#B9BF94"/>
<path d="M90.707 57.4576C92.987 57.6076 95.647 56.1976 97.257 59.0676C94.997 58.8376 92.407 59.9876 90.707 57.4576Z" fill="#C6C28B"/>
<path d="M90.8271 23.2774C91.6771 21.1274 93.6772 20.5874 95.5672 19.8774C95.3346 20.9285 94.7222 21.8567 93.8475 22.4841C92.9728 23.1115 91.8973 23.394 90.8271 23.2774V23.2774Z" fill="#F5E1A1"/>
<path d="M414.007 207.128C414.007 321.408 321.357 414.047 207.087 414.047C92.817 414.047 0.166992 321.408 0.166992 207.128C0.166992 92.8475 92.807 0.20752 207.087 0.20752C321.367 0.20752 414.007 92.8475 414.007 207.128Z" fill="#FFD120"/>
<path d="M207.347 324.598C166.827 323.908 134.527 306.928 108.977 276.268C106.377 273.158 104.127 269.748 101.787 266.428C100.047 263.938 99.7873 261.288 102.037 259.018C104.287 256.748 106.977 256.758 109.757 258.628C124.86 268.779 141.261 276.852 158.517 282.628C196.407 295.398 233.517 292.768 270.027 277.278C281.808 272.391 293.057 266.309 303.597 259.128C306.437 257.128 309.257 256.128 312.017 258.948C314.777 261.768 313.747 264.588 311.787 267.368C290.497 297.588 262.327 317.128 225.397 323.128C223.247 323.468 221.097 323.808 218.937 323.968C215.017 324.238 211.087 324.398 207.347 324.598Z" fill="#664501"/>
<path d="M345.556 112.017L344.027 112.137C342.657 113.577 340.457 112.297 339.027 113.657L337.527 113.797C336.137 115.197 333.907 113.877 332.527 115.367C329.757 115.537 327.387 117.507 324.527 117.117C322.647 118.617 319.707 116.807 318.097 119.167C315.907 119.977 313.396 118.697 311.306 120.167C301.106 121.717 290.957 123.757 280.717 124.647L252.477 127.127C225.797 129.387 199.127 128.577 172.477 128.027C159.687 127.767 146.897 126.307 134.187 124.797C126.767 123.917 119.367 122.747 111.947 121.797C108.947 121.397 106.027 119.967 102.867 120.217C100.867 118.617 98.1865 120.387 96.2565 118.687C94.3465 116.927 91.6265 118.687 89.6665 117.167C86.7865 117.467 84.3665 115.587 81.5765 115.447C80.2565 113.887 78.0265 115.227 76.5765 113.897L73.4965 113.707C72.1365 112.317 69.8665 113.707 68.5765 112.087C67.1965 110.717 64.9665 112.087 63.6265 110.537C62.2865 109.087 60.0265 110.457 58.7165 108.927C55.9865 107.817 53.2465 106.717 50.4265 105.837L35.8365 99.8374C30.8365 96.3474 25.7865 93.0274 20.9665 89.3374C15.3504 85.2216 11.0218 79.5923 8.48652 73.1074C4.33652 62.0474 8.23652 50.0474 18.4865 41.5474C27.0565 34.4274 36.8665 29.5474 47.2865 25.9174C70.0365 17.9174 93.6065 13.7174 117.497 11.0274C123.957 10.2974 130.367 9.0274 136.917 9.4274C137.497 11.5274 135.817 12.0574 134.517 12.4274C119.307 17.2174 105.327 24.5974 91.6865 32.7174C89.2265 34.1774 85.7565 34.2974 84.8665 37.8474C83.8665 39.4174 82.2265 40.0974 80.6265 40.8474C76.942 42.5293 73.4261 44.5584 70.1265 46.9074C64.8165 50.6974 62.4465 55.4674 64.8865 61.9074C65.1398 63.1661 65.7526 64.3244 66.6506 65.242C67.5487 66.1596 68.6935 66.7971 69.9465 67.0774C70.308 67.2087 70.6457 67.3978 70.9465 67.6374C72.4665 69.9274 74.7765 70.3174 77.2665 70.3074C81.4837 72.1301 85.7929 73.7323 90.1765 75.1074C91.7265 77.0274 93.9865 76.5774 96.0365 76.8374C96.4297 76.9377 96.8091 77.0854 97.1665 77.2774C99.2765 78.7974 101.577 78.2774 103.867 77.9174C107.997 77.6874 111.807 79.4074 115.807 79.9974C118.317 80.3674 120.897 80.5774 123.367 81.0974C132.107 82.9074 141.077 82.2274 149.867 83.8874C156.767 85.1874 164.047 83.4174 170.977 84.4674C190.027 87.3574 209.137 85.6274 228.207 85.7074C239.927 85.7674 251.717 84.7074 263.427 83.8874C273.867 83.1874 284.427 82.4074 294.757 80.7374C298.427 80.1474 302.266 79.8274 305.806 78.4274C307.222 77.954 308.719 77.7737 310.207 77.8974C312.497 78.2474 314.797 78.8174 316.927 77.3474C317.268 77.1398 317.634 76.9752 318.017 76.8574C320.017 76.5574 322.307 77.0574 323.787 75.0374C328.207 73.6974 332.337 71.5474 336.787 70.1874C339.297 70.3774 341.606 70.0174 343.186 67.7474C343.451 67.4938 343.755 67.2845 344.087 67.1274C345.36 66.8588 346.527 66.2247 347.445 65.3029C348.363 64.3811 348.993 63.2115 349.257 61.9374C351.867 55.0474 348.897 50.3474 343.427 46.3974C340.311 44.2693 337.015 42.4188 333.577 40.8674C331.997 40.0974 330.357 39.4374 329.297 37.9174C328.438 36.2034 327.03 34.8267 325.297 34.0074C314.807 28.1474 304.417 22.0874 293.297 17.5474C288.577 15.6274 283.977 13.3174 278.897 12.2674C276.987 11.8674 274.467 11.6874 274.117 8.8374C288.574 9.67438 302.976 11.3001 317.257 13.7074C332.111 15.9436 346.767 19.3475 361.087 23.8874C372.587 27.6374 383.737 32.1474 393.347 39.7074C411.467 53.9774 411.856 73.0574 394.436 88.2374C389.606 92.4374 384.157 95.7174 378.697 98.9774C377.837 100.487 375.846 99.3974 374.876 100.647L360.087 107.057C358.987 108.877 356.617 107.307 355.397 108.827C354.107 110.377 351.837 108.997 350.517 110.447C349.157 112.007 346.916 110.647 345.556 112.017Z" fill="#5DACEB"/>
<path d="M260.917 209.487C260.917 209.487 260.547 177.697 288.857 177.697C317.167 177.697 316.557 209.237 316.557 209.237" stroke="#403616" stroke-width="18" stroke-miterlimit="10" stroke-linecap="round"/>
<path d="M103.616 209.487C103.616 209.487 103.246 177.697 131.616 177.697C159.986 177.697 159.306 209.237 159.306 209.237" stroke="#403616" stroke-width="18" stroke-miterlimit="10" stroke-linecap="round"/>
</svg>
