<svg width="412" height="412" viewBox="0 0 412 412" fill="none" xmlns="http://www.w3.org/2000/svg">
<path d="M351.19 351.189C431.306 271.073 431.306 141.179 351.19 61.063C271.073 -19.0531 141.18 -19.0531 61.0636 61.063C-19.0525 141.179 -19.0525 271.073 61.0636 351.189C141.18 431.305 271.073 431.305 351.19 351.189Z" fill="#FFD120"/>
<path d="M100.919 240.988C99.8913 240.988 98.8795 241.241 97.9724 241.724C97.0653 242.207 96.2905 242.904 95.7159 243.756C95.1414 244.608 94.7847 245.588 94.6771 246.61C94.5695 247.632 94.7143 248.665 95.0988 249.618C103.849 270.998 133.099 324.818 205.669 324.818C278.239 324.818 308.109 270.618 317.149 249.048C317.54 248.09 317.689 247.051 317.583 246.022C317.477 244.994 317.119 244.007 316.541 243.15C315.962 242.292 315.181 241.591 314.267 241.107C313.352 240.624 312.333 240.373 311.299 240.378L100.919 240.988Z" fill="#403616"/>
<path d="M133.658 253.908C133.658 253.908 142.088 372.548 208.748 370.908C275.408 369.268 277.608 250.288 277.608 250.288" fill="#F15C5A"/>
<path d="M110.3 238.558C106.25 238.558 103.46 239.768 104.99 240.878C112.99 246.628 139.62 261.108 205.71 261.108C271.8 261.108 299.03 246.528 307.25 240.728C308.83 239.608 306.01 238.388 301.93 238.388L110.3 238.558Z" fill="white"/>
<path d="M93.7793 135.518L143.029 163.458L94.1693 191.148" stroke="#403616" stroke-width="18" stroke-linecap="round" stroke-linejoin="round"/>
<path d="M312.599 191.148L264.479 163.208L312.219 135.518" stroke="#403616" stroke-width="18" stroke-linecap="round" stroke-linejoin="round"/>
</svg>
