<svg id="Layer_1" data-name="Layer 1" xmlns="http://www.w3.org/2000/svg" viewBox="0 0 544.74 435.35"><defs><style>.cls-1{fill:#fff;}.cls-2{fill:#1a8542;}.cls-3{fill:#f79735;}.cls-4{fill:#2a2c77;}.cls-5{fill:#31733a;}.cls-6{fill:#272666;}.cls-7{fill:#f8f8f7;}.cls-8{fill:#f6f7f6;}.cls-9{fill:#2b2d7b;}.cls-10{fill:#2b2c77;}.cls-11{fill:#322f6c;}.cls-12{fill:#38386f;}.cls-13{fill:#343167;}.cls-14{fill:#33336b;}.cls-15{fill:#312f66;}.cls-16{fill:#302e68;}.cls-17{fill:#363569;}.cls-18{fill:#312e69;}.cls-19{fill:#2f2c65;}.cls-20{fill:#343269;}.cls-21{fill:#2c2b63;}.cls-22{fill:#2f2c67;}.cls-23{fill:#323065;}.cls-24{fill:#a9a8d1;}.cls-25{fill:#b5b6d4;}.cls-26{fill:#bfbdde;}.cls-27{fill:#c0c2dc;}.cls-28{fill:#b5b7dc;}.cls-29{fill:#b6b7da;}.cls-30{fill:#bcbadb;}.cls-31{fill:#918ca8;}.cls-32{fill:#6a6493;}.cls-33{fill:#9a98aa;}.cls-34{fill:#b8b8d9;}.cls-35{fill:#b2b1d2;}.cls-36{fill:#353276;}.cls-37{fill:#36346a;}.cls-38{fill:#34326c;}.cls-39{fill:#333167;}.cls-40{fill:#2f2d64;}.cls-41{fill:#302e6a;}.cls-42{fill:#34316c;}.cls-43{fill:#37356e;}.cls-44{fill:#2b2a64;}.cls-45{fill:#bec0df;}.cls-46{fill:#b9b8dc;}.cls-47{fill:#c3c4df;}.cls-48{fill:#b3b3d6;}.cls-49{fill:#c4c2e0;}.cls-50{fill:#bdbdc6;}.cls-51{fill:#27275c;}.cls-52{fill:#89829b;}.cls-53{fill:#9f97b4;}.cls-54{fill:#a6a8d0;}</style></defs><title>country flags</title><path class="cls-1" d="M1.68,139.94c2.94-1.07,6-.38,9-.38q264.58-.06,529.16-.15c5.38,0,6.19,1.64,6.16,6.63-.25,41.21-.15,82.42-.17,123.64,0,2.3-.16,4.6-.25,6.9-1.85,1-3.84.49-5.76.49q-265.81,0-531.63,0c-7.3,0-7.33,0-7.34-7.31q0-60.72-.06-121.45C.76,145.46,1.65,142.77,1.68,139.94Z"/><path class="cls-2" d="M1.68,282.09c2.94-1.07,6-.39,9-.39q264.58-.06,529.16-.15c5.38,0,6.19,1.65,6.16,6.64-.25,41.21-.15,82.42-.17,123.63,0,2.3-.16,4.6-.25,6.9-1.85,1-3.84.5-5.76.5q-265.81,0-531.63,0c-7.3,0-7.33,0-7.34-7.31q0-60.74-.06-121.46C.76,287.6,1.65,284.91,1.68,282.09Z"/><path class="cls-3" d="M273.18,6.81h265.4c7.18,0,7.17,0,7.17,7.14,0,41.21-.11,82.43,0,123.64,0,4.74-1.07,6.25-6.09,6.24q-266.48-.19-532.94,0c-5,0-6.78-1.32-6.75-6.55Q.26,74.66,0,12c0-4.5,1.81-5.29,5.67-5.28Q139.41,6.85,273.18,6.81Z"/><path class="cls-4" d="M316.35,247.05C295.23,276.41,248,275,227.53,244.33c-22.19-33.16-4.39-77.08,34.61-85.4C285,154,309.38,165,320.56,185.23c-.67,3.46,2.35,5.5,3.25,8.39,1,3.23,2,6.31.51,9.61a2.2,2.2,0,0,1-2.18.64c-2.6-.87-.62-4.8-3.63-5.4-1.46-.32-3.45-1.09-3.33-2.28.72-7.08-7.34-9.14-8.37-15.18a3.8,3.8,0,0,0-3.1-2.67,8.13,8.13,0,0,1-5.42-3.93,3.9,3.9,0,0,0-2.47-1.93A30.15,30.15,0,0,1,285.14,168c-1.15-.72-2.4-.34-3.59.12a5.1,5.1,0,0,1-4.6-.44c-.77-.43-1.72-1.26-2.4-1-5.48,2-11.84-.51-16.93,3.29a6.13,6.13,0,0,1-3.41,1.34c-.88,0-2.13-.26-2.59.29-4,4.71-11.11,5.94-13.57,12.26a6.24,6.24,0,0,1-2.94,3.6,5.62,5.62,0,0,0-3.24,5.65,6.67,6.67,0,0,1-2.26,5.18c-1.72,1.78-2.47,3.85-1.47,6.32a4.11,4.11,0,0,1-.33,4.07,6.67,6.67,0,0,0-.06,8.39,3.33,3.33,0,0,1,.66,3c-1.39,3.62-.55,6.55,2.39,9,1,.86,1.07,2.19,1,3.46,0,1.45,0,3.25,1,4,4.59,3.26,5.46,10,11.53,11.87,2.34.71,2.75,4.45,4.82,4.69,5.77.66,10.24,4.5,16.23,5.23,6.41.77,12.53-.89,18.74-.08,3.85-1,6.72-4.55,11.15-4.13a3,3,0,0,0,2.52-1.76c1.82-4.17,5.74-4.83,9.42-5.94,1-.19,2.21-.17,2.33-1.57.26-3.28,2.81-4.52,5.15-6,1.16-.58,2.33-1.22,3.24.36C319.28,242.3,316.36,244.36,316.35,247.05Z"/><path class="cls-5" d="M1.68,282.09l5.37.72c-6.06,1.49-5.17,5.12-5.17,8.34,0,40.31.11,80.62-.13,120.93,0,5.44,1.42,6.76,6.79,6.76q268.5-.21,537-.12c-.93,2.42-3,1.33-4.55,1.33q-250,.06-500,0c-11.73,0-23.46-.21-35.18.07-4.32.11-5.77-1-5.76-5.52.15-42.47.06-84.93.12-127.4C.21,285.49-.68,283.26,1.68,282.09Z"/><path class="cls-6" d="M323.94,203.3a23.87,23.87,0,0,0-3.68-14.87c-.71-1.08-1-2.25.3-3.2,11.63,20.54,10,45.12-4.21,61.82-2.21-2.85,1.61-4.8,1.11-7.4C324.4,228.38,325.76,216.13,323.94,203.3Z"/><path class="cls-7" d="M284.39,259.68c-3.19-.13-6.28-1.22-9.43,1.28-1.17.94-4.75-1.06-6.11-.92-6,.6-10.63-2.75-15.92-3.91-2-.44-4.82-1.17-5-2.08-1.34-6.18-9-4.57-11.45-10.43-2-4.85-6-9.17-7.76-14.49,0-.11-.34-.1-.48-.2-1.79-1.28-2.5-4.48-2.06-5.05,4-5.13-5-10.24.15-15,1.52-1.41,1.65-2.55.33-4a2.74,2.74,0,0,1-.56-.88c-.62-1.87.37-4.65,1-4.92,5.91-2.49,1.64-9.79,7.2-13.46,4.06-2.68,6.84-8,11.59-11.17,2.44-1.64,3.93-4.52,7.48-4,1.26.18,2.43.48,3.3-.84C259,166,262,165,265.84,167.32c.15.09.43.24.47.2,4.86-5,9.95-1.13,14.95-.4,4.68-.84,3.5,2.24,3.19,4.75-1.42,7.67-4.58,14.84-6.48,22.37-.39,1.52-.79,3.11-2.31,4-1.06-.11-1.53-.86-1.9-1.73a128.16,128.16,0,0,1-.51-21.77c-.23-1.84-1.29-.77-.67-1.13.22-.14.38,0,.39.31.3,8.93-.2,17.88.57,26.8.11,1.27-.19,2.63-1.69,2.91s-2.06-1-2.44-2.23c-.48-1.52-.23-3.17-.8-4.67-1.49-6.83-3.49-13.53-5.44-20.23-.27-2.26-1.46-4.29-1.73-6.55.22,2.19,1.29,4.16,1.64,6.31a20.83,20.83,0,0,0,.55,2.06c1.16,4,2.59,7.87,2.91,12-.1,1.38-.3,2.72-1.52,3.63-2.54.73-3.39-1.34-4.38-2.87-1.6-2.47-3.08-5-4.49-7.65,1.41,3.55,4.57,6.32,4.72,10.44a2.7,2.7,0,0,1-1.58,2.41c-4.64-.5-7-4-9.42-6.78,1.76,4,7.44,5.58,8.39,10.8a2.19,2.19,0,0,1-1.48,1.57c-5.5-.05-9.13-4.18-13.77-6.12-.54-.52-.33.89-.19.2,6.39,2.92,11.93,7.45,18.59,9.88.9,1.3,4.94,1.6,1.4,4.33-7.53-2.25-15.2-4-22.74-6.12-2.93-1.1-6.19-1.11-8.1-2.17,1.22.15,3.18,1.34,5.47,1.47,7.56,2.24,15.19,4.23,22.79,6.32,1.11.3,2.52.18,3,1.64-3.72,3.52-8.25,1.84-12.45,1.8-5-.06-9.92-.57-14.82.48-.64.53.56.81.05.31,6.33-2,12.67-1,19,0a2.85,2.85,0,0,1,1.86,1.69c-4.22,4.32-10.23,4-15.4,5.88-2.21.81-4.67.87-6.78,2-.62.39.52.73.05.2-.24-.27-.23-.47.05-.52,6.21-1.11,12.08-3.82,18.49-4a3,3,0,0,1,2.55,1.64c-2.89,5.21-8.34,6.64-12.4,9.11,4.37-.91,7.85-5.7,13.2-6a2.21,2.21,0,0,1,1.57,1.49c-1.95,6.23-7.66,9.31-10.7,13.09,6.25-5,12-12.29,18.71-18.49a1.81,1.81,0,0,1,1.38.45c.81,1.76-.14,3.15-1.09,4.39-5,6.48-8,14.09-12.09,20.47,3.76-3.83,3.74-11.11,10.32-13.47,1.43.74,1.59,2.1,1.75,3.48.19,2.8-1.23,5.28-1.62,8-1.12,2.92-1.15,6.17-2.17,8.15.16-1.21,1.29-3.11,1.43-5.31,1.91-7.6,4.46-15,6-22.73,2.39-1.93,3.17-.63,3.45,1.71a193,193,0,0,0-.18,27.52c.3.7,1.1-.33.49,0-.26.16-.42.07-.45-.27a117.73,117.73,0,0,1,.27-23,2.42,2.42,0,0,1,1.82-1.8c4.19,7.14,5.67,15.24,8.08,23,.26.82.35,1.71.64,2.53C284.66,255.37,286.13,257.5,284.39,259.68Z"/><path class="cls-8" d="M283.45,171.72c-.15-1.81,1.52-4.48-2.19-4.6.08-.16.11-.41.23-.47,4.49-1.91,6.53,2.92,9.59,3.53,3.85.77,7.68.15,9.12,4.81a2.41,2.41,0,0,0,2.6,2c4,.09,4.61,3.32,6.63,5.85,3.46,4.34,7,8.17,7.51,13.95,0,.18,1.79.78,2.5,1.6,1.15,2.59,3.36,14.79,3.13,17.24a7.66,7.66,0,0,1-1.05,1.95c-2.29,2.37,1,4.9-.18,7.3-3.07,4.21-4,9.38-6.25,14-3.47,1.73-4.65,5.56-7.33,8-1.62.79-4.05,1.71-4.7,2.43a26.57,26.57,0,0,1-13.5,7.92c-1.41.38-3,2.39-5.17,2.44-.35-2-.71-3.94-1.06-5.92,0-5.4-2.3-10.31-3.47-15.46-.51-2.25-1.36-4.41-.74-6.76a2.6,2.6,0,0,1,1.56-1.79c3.93,1.62,4.93,5.64,7,8.73,1.48,2.15,2.77,4.44,4,6.73a4.37,4.37,0,0,0,1.55,2.21c-1.28-1.16-1.41-2.48-2.08-3.51-2.49-4.14-5.43-8-6.61-12.85a2.51,2.51,0,0,1,1.42-2.53c4-.09,5.28,3.71,7.82,5.7a23.66,23.66,0,0,1,3.93,3.32,67.07,67.07,0,0,1-12.65-14,1.58,1.58,0,0,1,1.39-1.51c6.36,2.23,11.92,6,17.25,8.74-3.87-3.21-10.35-4.12-13.26-9.82a3,3,0,0,1,2.56-1.7c5.61-.08,10.66,2.6,16.56,3.43-8.32-1.67-15.84-4.7-23.82-5.82-1.1-.54-2.72-1.1-2.45-2.36.35-1.58,2.21-1.53,3.55-1.46,8,.38,16-.32,24.05-.07,1.39,0,2.79,0,4.18,0-2.13,0-4.26,0-6.4,0-7.73-.21-15.44.51-23.16,0-1.16-.07-2.57.5-2.69-1.44.69-2.17,2.71-1.83,4.31-2.32,6.86-2.09,14-3.25,20.75-5.68a27.05,27.05,0,0,0,7.58-2.06,43.9,43.9,0,0,0-4.26,1.4c-1.65.59-3.5.29-5,1.25-4,1-7.82,2.58-12,2.57a3.43,3.43,0,0,1-2.7-1.55c-.37-3.26,2.58-3.85,4.4-5.23s4.07-2,6-3.69c.34-.24-.75-.52-.2-.07.12.1.05.29-.27.44-3.9,1.86-7.1,5.23-11.79,5.35a2.19,2.19,0,0,1-1.55-1.51c1.5-5.63,6.6-8.31,9.51-11.92-3.58,2.47-6,7.49-11.3,9a2.21,2.21,0,0,1-1.6-1.46c0-5.46,4.15-9.08,5.67-13.1-3,3.09-3.17,9.31-9,11-1.58-1.1-1.53-2.79-1.64-4.43C280.19,183.43,283.45,177.91,283.45,171.72Z"/><path class="cls-9" d="M320.5,217.25l1.12-1.23c1.82-2.38,1.58-4.91.24-7.32-1-1.84-1.56-3.51-.07-5.3l2.15-.1c.58.33,1.65.66,1.65,1,.1,7.09,1.67,14.23-.89,21.23-1.13,3.09-2.1,6.24-2.95,9.41-.64,2.38-1.86,4.05-4.29,4.7-.67-1.23-1.39-.15-2.09,0a1.91,1.91,0,0,1-1.11-.9c.54-2.21,3-4,1.22-6.76-.63-1,.27-2.22,1.33-2.46,3-.66,2.17-3.75,3.65-5.32.14.11.4.21.4.32,0,.54.48.66.49.34C321.4,222.27,320.13,219.86,320.5,217.25Z"/><path class="cls-6" d="M321.79,203.4c-1,3.17,2.8,5.15,2,8.28-.39,1.64.94,4.12-2.22,4.34-.62-2.69,1.08-6.06-2.44-8a1.56,1.56,0,0,1-.24-2.35c2.79-2.33.16-4.9.5-7.31C323,198.78,321.24,201.62,321.79,203.4Z"/><path class="cls-6" d="M314.26,238.71l1.11.9c-1.59,2.32-5.36,3-4.68,7.17.27,1.62-1.82,1.55-2.93.11C309.11,243.51,310,239.78,314.26,238.71Z"/><path class="cls-10" d="M255.49,214.89l-21.27-1.18c7.69-2,15.45-2.11,23.25-2,1.72,0,4.07,2,5.38-.92-.24-.22-.31-.44-.22-.64s.18-.3.27-.3c2-3.08-2.3-1.59-2.31-3.2a1.92,1.92,0,0,1,1-.79c.95-.3,2-.06,2.92-.52.31-.23.62-.44.92-.67.43-.39.84-.77,1.25-1.18s.56-.6.82-.91c.6-1.35-.11-2.79.37-4.13.36-1.17.6-2.41,1.81-3.09,1.72,2.26.06,5.57,3.09,9-2-11.5-.91-21.59.47-31.7.88,8,1.74,16.07,1.48,24.18-.32,2,.5,3.9.64,5.84.24.37-.19,1.18.75,1.06a8,8,0,0,1,2.14-.8,2.2,2.2,0,0,1,1.14.34,6.49,6.49,0,0,0,2.08,1.14,2.31,2.31,0,0,1,.35,1.24,2.26,2.26,0,0,0,.47,2.83,4,4,0,0,1,.64,2,26.75,26.75,0,0,0,.17,4.9,4,4,0,0,1,.06,2.06,4.22,4.22,0,0,1-.58,1.21c-.41.49-.86.94-1.29,1.42l-.74,1a6.06,6.06,0,0,1-1.57,1.95,5.26,5.26,0,0,1-1.29.3A8.25,8.25,0,0,0,274,225a1.36,1.36,0,0,1-1.32-.16c-.13-1.52-.34-2.86-2.08-1a1.09,1.09,0,0,1-1.21.06,2.54,2.54,0,0,1-.61-1.72c-.11-.9-.92-1.11-1.53-1.51a6.31,6.31,0,0,1-1,0,1.09,1.09,0,0,1-1.18.15,6,6,0,0,1-1.17-1.49c-.22-.33-.43-.68-.65-1-.45-.62-1-1.19-1.49-1.79a9.68,9.68,0,0,0-.7-1A31.91,31.91,0,0,0,255.49,214.89Z"/><path class="cls-11" d="M276,204.11l-.64.71-.53-1.32a7.21,7.21,0,0,1,.88-5.55q3.87-13.11,7.73-26.22c1.34,6.12-2.14,11.6-2.37,17.52C280.46,194.56,280.94,200.26,276,204.11Z"/><path class="cls-12" d="M279.9,231.36c1.24,6.18,2.46,12.36,3.71,18.53.27,1.33,1.09,2.68-.28,3.87-2.43-8.61-5.94-16.89-7.66-25.71-1.07-1.64-1.51-3.62.61-4.28,1.71-.53,2.26,1.66,2.93,3S279.64,229.84,279.9,231.36Z"/><path class="cls-13" d="M265.42,220.47a2.94,2.94,0,0,1,.84.12c-5.61,8.9-14.32,14.64-22.35,21.16l13.85-16C259.37,222.65,261.38,220.09,265.42,220.47Z"/><path class="cls-14" d="M272.66,224.79a6.86,6.86,0,0,1,.9-.09c1.93,1.12.4,3.13,1.16,4.55v24.39h-1.88C272.28,244,270.17,234.46,272.66,224.79Z"/><path class="cls-15" d="M267.23,220.64c2.32-.26,2.32-.26,2,1-1,3.87-1.7,7.9-5.07,10.65l-10.3,15.1C257.18,237.77,262,229.08,267.23,220.64Z"/><path class="cls-16" d="M262.9,209.86a2.13,2.13,0,0,1,0,.94c-9.28,0-17.42-4.51-26.18-6.59.35-2.42,1.85-1.13,3-1C247.53,205.09,255.74,205.64,262.9,209.86Z"/><path class="cls-17" d="M261.9,215.48a8.46,8.46,0,0,1,.1.88c-1.68,4.14-5.72,3-8.85,4l-20.1,3.81-.27-.93L256.43,216A5.87,5.87,0,0,1,261.9,215.48Z"/><path class="cls-18" d="M257.66,200.2l-11.61-13.32.73-.78,11.87,10c4,1.91,7.09,4.39,6.5,9.43l.09-.09C261.41,205.58,259.29,203.25,257.66,200.2Z"/><path class="cls-19" d="M256.64,224.73c-5.24,1.8-9.67,5.59-15.56,5.94l14.46-9.44c2.49-2.13,5-4.11,8.63-2.87l-.08-.09C263.17,222.23,259.56,223.09,256.64,224.73Z"/><path class="cls-20" d="M262.39,206.41l-1.8.25c-8.13-2.12-13.87-8.23-20.76-12.48,6,1.21,10.92,5.07,16.58,7.13C259,202.32,261.64,203.25,262.39,206.41Z"/><path class="cls-21" d="M259.92,193.6l-6-12.39c4.61,3.19,6.48,8.55,10,12.57,2.95,2.58,4.53,5.63,3.29,9.64h.06C262.69,201.79,261.3,197.7,259.92,193.6Z"/><path class="cls-22" d="M269.74,223.69a3.4,3.4,0,0,1,.84.11c.49,8.31-3.68,15.47-5.66,23.17-2.18-.54-1.13-2-.92-3.22.45-2.73.89-5.45,1.34-8.17C266,231.33,266,226.82,269.74,223.69Z"/><path class="cls-23" d="M269.64,195.37c-.24,1.31-.05,2.73-1.08,3.81-3.89-1.92-2.21-5.88-3.24-8.85l-2.41-12.46c-.2-.92-1-2.14,1-1.94C265.55,182.49,268.76,188.59,269.64,195.37Z"/><path class="cls-24" d="M274.72,229.25c-1.24-1.3-.66-3.06-1.16-4.55.71-2.65,2.46-2.93,4.71-2.07,2.2,2.07,3.78,4.36,2.76,7.6l-1.13,1.13-3.84-8.11c-.18,2.23-.29,3.51-.39,4.8Z"/><path class="cls-25" d="M265.32,190.33c1.51,2.79,1.17,6.26,3.24,8.84,1.46,4.69,1.46,4.69-1.27,4.25.36-3.71-2.54-6.3-3.29-9.64C265.66,193.09,264.83,191.46,265.32,190.33Z"/><path class="cls-26" d="M259.92,193.6c2.48,3.27,4,7.25,7.43,9.81.35,1.83-.82,2.1-2.2,2.14-.74-4.13-4.54-6.15-6.5-9.43C259.72,195.6,259.77,194.58,259.92,193.6Z"/><path class="cls-27" d="M269.74,223.69q-2.21,5.94-4.4,11.89c-.44-1.1.24-2.59-1.18-3.34,1.57-3.6,2.62-7.46,5.07-10.65Z"/><path class="cls-28" d="M264.17,218.36c-3.19,0-5.64,2.25-8.63,2.87l-2.39-.89,8.85-4C263.85,215.8,264.11,217,264.17,218.36Z"/><path class="cls-29" d="M262.39,206.41l-6-5.1,1.25-1.11,7.58,5.26C265.54,209.56,263.27,205.9,262.39,206.41Z"/><path class="cls-30" d="M256.64,224.73c2.2-2.47,5.64-3.52,7.45-6.46a2,2,0,0,1,1.33,2.2l-7.66,5.31Z"/><path class="cls-31" d="M239.68,203.26c-1,.4-2.27-.22-3,1l-6.79-2.12A15.29,15.29,0,0,1,239.68,203.26Z"/><path class="cls-32" d="M264,243.75c.33,1.06-.25,2.39.92,3.22a20.53,20.53,0,0,1-2.79,7.22A21.72,21.72,0,0,1,264,243.75Z"/><path class="cls-33" d="M263.9,175.93l-1,1.94c-1.59-2.58-1.76-5.46-2-9C263.06,171.21,263.38,173.62,263.9,175.93Z"/><path class="cls-34" d="M261.9,215.48l-5.47.51-.94-1.1a9.11,9.11,0,0,1,7.3-.48.83.83,0,0,1-.1.48A6.76,6.76,0,0,1,261.9,215.48Z"/><path class="cls-35" d="M275.72,198a8.76,8.76,0,0,1-.88,5.55c-2.18-2.18-1-4.44-.16-6.69Z"/><path class="cls-36" d="M282.32,216.17c0-2.06-.05-4.13-.07-6.19a1,1,0,0,1,1.2-.33.86.86,0,0,1-.08,1.21c-.21,1.21.29,1.45,1.44,1.29,8.4-1.23,16.81-.08,25.21-.06.59.7,2.52-.16,2.07,1.77-9.37.06-18.73,1.59-28.52,0,.79,2,2.62,1.17,3.39,2.13a2.73,2.73,0,0,1-2.25,1.18A3.74,3.74,0,0,1,282.32,216.17Z"/><path class="cls-37" d="M291,221.34l16.8,11.17a102.16,102.16,0,0,1-21.21-9.95c-2.13-.74-4.9-.85-4.29-4.32l-.07.11C286,216.8,288.66,218.63,291,221.34Z"/><path class="cls-38" d="M285.55,223.48l16.18,17.15-.86.85L286.5,229c-3.5-1.83-6.2-4.25-6.32-8.57l-.1,0C283.26,219,283.91,222.15,285.55,223.48Z"/><path class="cls-39" d="M279.13,203.33l-.88-.1a12.84,12.84,0,0,1,4-9.52l10.06-14.78.77.38q-3.89,8.16-7.76,16.31C284.64,199.31,283,202.22,279.13,203.33Z"/><path class="cls-40" d="M281.31,205.4c0-.35-.09-.7-.15-1,.23-3.6,2.81-5.48,5.4-7.35l13.84-11.82.62.62-12.34,14.34C287.15,203.19,285.09,205.49,281.31,205.4Z"/><path class="cls-41" d="M283.37,210.86c0-.31-.07-.62-.08-.93,2.29-4.85,7-3.63,10.93-4.35l12.49-2.34c1.09-.33,2.33-.94,2.12,1.14C300.37,206.64,292.35,210.64,283.37,210.86Z"/><path class="cls-42" d="M281,230.23l-2.76-7.6a3.64,3.64,0,0,1,.66,0c4.09,1.34,5.15,5,6.58,8.45q3.18,6.41,6.37,12.81c.61,1.06.86,2-.91,1.91Z"/><path class="cls-43" d="M284.26,216.23,287,216c8.56.33,16,4.29,23.69,7.63l-17.43-3.29C290.13,219.18,286.06,220.18,284.26,216.23Z"/><path class="cls-44" d="M289.86,201.27c5-1.71,9.24-5.25,14.82-5.75l-12.81,8.86c-2.84,2-5.66,4.06-9.43,3.65C282.77,203.42,286.86,202.94,289.86,201.27Z"/><path class="cls-35" d="M282.22,193.71l-4,9.52a1.89,1.89,0,0,1-2.24.88l5.07-14.86C281.68,190.68,280.4,192.59,282.22,193.71Z"/><path class="cls-45" d="M282.2,207.85c3.55-.25,6.29-2.75,9.67-3.47.44,1.06,1.51.9,2.35,1.2l-10.93,4.35-.52-.06-.52.11c-.61-.22-1.13-.5-.86-1.3A.94.94,0,0,1,282.2,207.85Z"/><path class="cls-46" d="M285.51,231.07c-2.25-2.77-3.78-6.11-6.58-8.45-.11-1-.05-2,1.25-2.19q3.17,4.29,6.32,8.57C285.59,229.42,285.64,230.29,285.51,231.07Z"/><path class="cls-47" d="M282.2,207.85l-.81.83c-.35-1.09-1-2.17-.08-3.28l7.37-5.25,1.18,1.12C287.62,203.83,284,204.77,282.2,207.85Z"/><path class="cls-48" d="M284.26,216.23c2.55,2.32,6.12,2.4,9,4.09l-2.22,1c-3.12-.42-5.52-3-8.77-3l.09-2.18Z"/><path class="cls-49" d="M286.56,197l-5.4,7.35c-1.28.85-2.52,1.62-2-1l6.16-7.71Z"/><path class="cls-50" d="M312.09,213.86,310,212.09h9.75C316.75,214.58,314.43,214.24,312.09,213.86Z"/><path class="cls-51" d="M320.5,217.25c2.37,2.39,1.22,5.39.92,8-.12,1-.54-.73-1-1.06C321.72,221.87,315.69,219.54,320.5,217.25Z"/><path class="cls-52" d="M308.83,204.38c-.26-1.22-1.41-.78-2.12-1.14,2.72-1.44,5.72-1.53,9.19-2C313.75,203.68,311.18,203.78,308.83,204.38Z"/><path class="cls-53" d="M291,245.79c1-.29.7-1.23.91-1.91,1.66,1.86,2.64,4,3.51,8.05C292.86,249.48,291.67,247.85,291,245.79Z"/><path class="cls-54" d="M285.55,223.48c-2.08-.54-3-3.24-5.47-3a2.87,2.87,0,0,1,2.22-2.23c.54,2.33,3.25,2.49,4.29,4.32Z"/></svg>