<svg id="Layer_1" data-name="Layer 1" xmlns="http://www.w3.org/2000/svg" viewBox="0 0 575.97 432.26"><defs><style>.cls-1{fill:#ec1e24;}.cls-2{fill:#0c743b;}.cls-3{fill:#fff;}.cls-4{fill:#010101;}</style></defs><title>country flags</title><rect class="cls-1" x="10.98" y="8.95" width="143.83" height="411.6"/><path class="cls-2" d="M154.81,146.71q-.06-65.39-.13-130.78c0-2.24,0-4.47,0-6.71,33.9-.09,67.8-.25,101.71-.26Q404,8.91,551.68,9c1.38,0,2.76.16,4.15.24.75,1.39.45,2.91.45,4.38q0,64,0,127.94c0,1.46.29,3-.43,4.38l-2.19.87c-1.28,1.85-3.19,2.1-5.11,2.27-1.74.15-3.48.09-5.22.09q-189.09,0-378.18,0C161.59,149.1,157.74,150,154.81,146.71Z"/><path class="cls-3" d="M154.81,146.71q69.16,0,138.34-.09,128.7,0,257.39,0c1,0,2.08.12,3.12.19l2.75.41a2.61,2.61,0,0,1,1.15,2.32c-.5,44-.08,87.9-.22,131.85a4.79,4.79,0,0,1-.47,2.15l-402,0Z"/><path class="cls-4" d="M154.74,420.55q.06-67.93.11-135.86l401.85.05c.12,3.9.34,7.81.34,11.72,0,38.81-.07,77.62.13,116.43,0,5.54-1,7.5-6.68,7.49q-174.14-.19-348.26.07Q178.49,420.47,154.74,420.55Z"/></svg>