<svg xmlns="http://www.w3.org/2000/svg" width="273" height="273" viewBox="0 0 273 273">
  <g id="Group_3819" data-name="Group 3819" transform="translate(-51 -51)">
    <circle id="Ellipse_63" data-name="Ellipse 63" cx="136.5" cy="136.5" r="136.5" transform="translate(51 51)" fill="#9c9c9c"/>
    <g id="Group_3794" data-name="Group 3794" transform="translate(94.419 115.397)">
      <g id="Group_3792" data-name="Group 3792" transform="translate(-1 -0.241)">
        <path id="Path_2" data-name="Path 2" d="M58.206,0c32.146,0,58.206,24.366,58.206,54.422s-26.06,27.71-58.206,27.71S0,84.479,0,54.422,26.06,0,58.206,0Z" transform="translate(0 62.512)" fill="#494949"/>
        <circle id="Ellipse_60" data-name="Ellipse 60" cx="42.431" cy="42.431" r="42.431" transform="translate(16.972)" fill="#666"/>
      </g>
      <g id="Group_3793" data-name="Group 3793" transform="translate(104.237 33.705)">
        <path id="Path_2-2" data-name="Path 2" d="M42.463,0C65.914,0,84.925,17.786,84.925,39.726S65.914,59.954,42.463,59.954,0,61.667,0,39.726,19.011,0,42.463,0Z" transform="translate(0 47.983)" fill="#494949"/>
        <circle id="Ellipse_60-2" data-name="Ellipse 60" cx="29.702" cy="29.702" r="29.702" transform="translate(13.57 0)" fill="#666"/>
      </g>
    </g>
  </g>
</svg>
