<svg xmlns="http://www.w3.org/2000/svg" width="248.224" height="188.864" viewBox="0 0 248.224 188.864">
  <g id="Group_3794" data-name="Group 3794" transform="translate(1 0.241)">
    <g id="Group_3792" data-name="Group 3792" transform="translate(-1 -0.241)">
      <path id="Path_2" data-name="Path 2" d="M75.978,0c41.961,0,75.978,31.805,75.978,71.039S117.939,107.21,75.978,107.21,0,110.272,0,71.039,34.016,0,75.978,0Z" transform="translate(0 81.599)" fill="#9c9c9c"/>
      <circle id="Ellipse_60" data-name="Ellipse 60" cx="55.386" cy="55.386" r="55.386" transform="translate(22.155)" fill="#ccc"/>
    </g>
    <g id="Group_3793" data-name="Group 3793" transform="translate(136.368 44.069)">
      <path id="Path_2-2" data-name="Path 2" d="M55.428,0c30.612,0,55.428,23.217,55.428,51.856s-24.816,26.4-55.428,26.4S0,80.5,0,51.856,24.816,0,55.428,0Z" transform="translate(0 62.634)" fill="#9c9c9c"/>
      <circle id="Ellipse_60-2" data-name="Ellipse 60" cx="38.77" cy="38.77" r="38.77" transform="translate(17.713 0)" fill="#ccc"/>
    </g>
  </g>
</svg>
